<?xml version="1.0" encoding="utf-8"?>
<!-- Generator: Adobe Illustrator 22.0.1, SVG Export Plug-In . SVG Version: 6.00 Build 0)  -->
<svg version="1.1" id="Layer_1" xmlns="http://www.w3.org/2000/svg" xmlns:xlink="http://www.w3.org/1999/xlink" x="0px" y="0px"
	 viewBox="0 0 136 46" style="enable-background:new 0 0 136 46;" xml:space="preserve">
<style type="text/css">
	.st0{fill:#0B6DB5;}
	.st1{fill:#231F20;}
	.st2{fill:#EC1C24;}
	.st3{fill:#FFFFFF;}
	.st4{fill-rule:evenodd;clip-rule:evenodd;fill:#231F20;}
</style>
<g>
	<path class="st0" d="M24.8,24.8c0-6.7,5.5-11.4,11.9-11.4c6.4,0,11.9,4.7,11.9,11.4c0,6.7-5.5,11.4-11.9,11.4
		C30.3,36.2,24.8,31.5,24.8,24.8z M42.6,24.8c0-3.5-2.1-6.2-5.9-6.2c-3.7,0-5.9,2.7-5.9,6.2S33,31,36.7,31
		C40.5,31,42.6,28.3,42.6,24.8z"/>
	<path class="st0" d="M11.1,35.9h-6V13.6h8.4c6,0,9.4,3.8,9.4,8.7s-3.4,8.7-9.4,8.7h-2.5V35.9z M13.3,26c2.7,0,3.7-1.5,3.7-3.7
		s-1-3.7-3.7-3.7h-2.2V26H13.3z"/>
	<path class="st0" d="M49.1,32.1l4.3-3.2c1.1,1.3,2.4,2.4,4.6,2.4c1.8,0,2.8-0.5,2.8-1.8c0-0.9-0.7-1.4-2.2-1.9l-2.6-0.9
		c-3.2-1.1-5.5-3-5.5-6.7c0-4.4,3.6-6.6,7.6-6.6c3.9,0,6.1,1.4,7.4,2.9l-3.4,3.6c-0.9-0.9-1.9-1.6-3.7-1.6c-1.4,0-2.2,0.7-2.2,1.5
		c0,0.9,0.5,1.3,1.6,1.6l2.9,1c4.4,1.5,6,3.6,6,6.7c0,4.1-2.6,7-8.4,7C53.3,36.2,50.5,33.9,49.1,32.1z"/>
	<path class="st0" d="M73.4,18.6h-5.9v-5h17.7v5h-5.9v17.2h-6V18.6z"/>
	<path class="st0" d="M87.9,13.6h15.6v5h-9.7v5.2h8v4.7h-8v2.3H104v5H87.9V13.6z"/>
	<path class="st0" d="M124.6,35.9h-6.4l-3.1-5.1h-2.2v5.1h-6V13.6h8.4c6,0,9.4,3.8,9.4,8.7c0,3.2-1.4,5.8-4,7.2L124.6,35.9z M115,26
		c2.7,0,3.7-1.5,3.7-3.7s-1-3.7-3.7-3.7h-2.2V26H115z"/>
</g>
<path class="st1" d="M125.6,34.3h-0.5v-0.4h1.6v0.4h-0.5v1.5h-0.5V34.3z"/>
<path class="st1" d="M127,33.8C127,33.8,127,33.8,127,33.8l1,1.1l0.9-1.1c0,0,0,0,0,0l0.1,2h-0.5l0-0.8l-0.5,0.6c0,0,0,0,0,0
	l-0.5-0.6l0,0.9h-0.5L127,33.8z"/>
<g>
	<path class="st2" d="M36.7,22.4c-0.2,0-0.3-0.1-0.5-0.2c-1-0.9-2-1.8-3-2.6c-1.4-1.3-2.9-2.6-4.3-3.9c-1.2-1.1-2-2.1-2.7-3.1
		c-0.7-1.2-1.1-2.5-1.2-4.1c-0.1-1-0.1-2.2,0.4-3.3c0.8-2.1,2.4-3.3,4.6-3.6c0.4-0.1,0.8-0.1,1.1-0.1c2,0,3.8,1,5.2,3
		c0.1,0.1,0.2,0.3,0.3,0.5c0.2-0.3,0.4-0.7,0.7-1c1.3-1.6,3-2.5,5-2.5c0.1,0,0.1,0,0.2,0c2.9,0.1,5.3,2.3,5.6,5.2
		c0.3,3.2-0.6,6-2.9,8.2c-1,1-2,1.9-3.1,2.8c-0.5,0.4-1,0.8-1.4,1.3l-0.8,0.7c-1,0.9-1.9,1.7-2.9,2.6C37.2,22.2,37,22.4,36.7,22.4z"
		/>
	<path class="st3" d="M42.5,1.8c0.1,0,0.1,0,0.2,0c2.7,0.1,4.9,2.1,5.2,4.8c0.3,3.1-0.6,5.7-2.7,7.9c-1.4,1.4-3,2.7-4.5,4
		c-1.2,1.1-2.5,2.2-3.7,3.3c-0.1,0.1-0.2,0.1-0.3,0.1c-0.1,0-0.1,0-0.2-0.1c-2.4-2.2-4.9-4.3-7.3-6.5c-1-0.9-1.9-1.9-2.6-3
		c-0.7-1.2-1-2.5-1.1-3.9c-0.1-1.1-0.1-2.1,0.3-3.2c0.8-1.9,2.2-3,4.3-3.4c0.4-0.1,0.7-0.1,1.1-0.1c2,0,3.6,1.1,4.9,2.8
		c0.2,0.3,0.4,0.6,0.7,1c0.4-0.5,0.7-1,1-1.5C39,2.6,40.5,1.8,42.5,1.8 M42.5,0.9c-2.1,0-3.9,0.9-5.4,2.6C37,3.7,36.9,3.8,36.7,4
		c-1.5-2.1-3.4-3.1-5.5-3.1c-0.4,0-0.8,0-1.2,0.1c-2.3,0.4-4,1.7-4.9,3.9c-0.5,1.2-0.5,2.5-0.4,3.5c0.1,1.6,0.5,3.1,1.2,4.3
		c0.6,1.1,1.5,2.1,2.7,3.2c1.4,1.3,2.9,2.6,4.3,3.9c1,0.9,2,1.8,2.9,2.6c0.2,0.2,0.5,0.3,0.8,0.3c0.4,0,0.7-0.3,0.8-0.4
		c1-0.9,1.9-1.7,2.9-2.6l0.8-0.7c0.5-0.4,1-0.8,1.4-1.2c1-0.9,2.1-1.8,3.1-2.8c2.3-2.4,3.3-5.2,3-8.6c-0.3-3.1-2.9-5.5-6.1-5.6
		C42.6,0.9,42.5,0.9,42.5,0.9L42.5,0.9z"/>
</g>
<g>
	<path class="st3" d="M28.2,12.4V6.9h2.2v0.8h0c0.4-0.8,1.2-1,1.8-1c0.8,0,1.3,0.3,1.7,1c0.3-0.7,1.1-1,1.7-1c1.2,0,2.3,0.5,2.3,2.4
		v3.4h-2.2V9c0-0.6-0.4-0.7-0.7-0.7c-0.4,0-0.7,0.2-0.7,0.7v3.4h-2.2V9c0-0.6-0.4-0.7-0.7-0.7c-0.4,0-0.7,0.2-0.7,0.7v3.4H28.2z"/>
	<path class="st3" d="M45.4,6.9l-2.1,5.5c-0.7,2-1.1,2.4-2.7,2.4c-0.4,0-0.7,0-1.1-0.1v-1.4c0.1,0,0.3,0.1,0.5,0.1
		c0.5,0,0.8-0.3,1.1-1l-2.6-5.5h2.4l1.2,3.6h0l1-3.6H45.4z"/>
</g>
<path class="st4" d="M71.6,44.2c0.3-0.9,0.6-1.7,0.9-2.6c0.1-0.2,0.1-0.4,0.2-0.6c0.1-0.1,0.2-0.1,0.4-0.2c0,0.1,0.1,0.3,0.1,0.4
	c0,0.2-0.1,0.5-0.2,0.8c0.1-0.1,0.2-0.2,0.2-0.2c0.3-0.3,0.6-0.7,0.9-0.9c0.2-0.1,0.4-0.3,0.6-0.3c0.3,0.1,0.5,0.3,0.5,0.7
	c0,0.3,0,0.7,0,1.1c0,0.1,0,0.2,0,0.3c0,0,0.1,0,0.1,0.1c0.2-0.2,0.3-0.5,0.5-0.7c0.4-0.5,0.9-1,1.3-1.5c0.2-0.2,0.4-0.3,0.6-0.2
	c0.2,0.1,0.4,0.3,0.4,0.6c0,0.4-0.1,0.7-0.2,1.1c-0.2,0.6-0.4,1.3-0.5,1.9c0,0.2,0,0.4,0.1,0.6c0.1,0.3,0,0.4-0.2,0.5
	c-0.2,0.1-0.5,0-0.5-0.3c0-0.4,0-0.8,0.1-1.2c0.2-0.7,0.4-1.4,0.6-2.1c0-0.2,0-0.4-0.1-0.5c-0.2,0.1-0.4,0.1-0.5,0.3
	c-0.4,0.6-0.9,1.2-1.3,1.8c-0.3,0.4-0.4,0.8-0.7,1.3c-0.1,0.2-0.3,0.5-0.5,0.4c-0.3-0.1-0.1-0.4-0.1-0.7c0.1-0.8,0.2-1.5,0.3-2.3
	c0-0.1-0.1-0.3-0.2-0.4c-0.1,0.1-0.2,0.1-0.3,0.2c-0.7,0.6-1,1.4-1.4,2.1c-0.2,0.4-0.4,0.8-0.6,1.1c-0.1,0.1-0.3,0.2-0.4,0.3
	c-0.1-0.1-0.1-0.3-0.2-0.4C71.6,44.4,71.6,44.3,71.6,44.2z"/>
<path class="st4" d="M131.6,37.2c-0.7,0.9-1,2-1.5,3.1c-0.1,0.2-0.2,0.4-0.3,0.6c-0.1,0.1-0.2,0.2-0.3,0.3c0,0-0.1,0-0.1-0.1
	c0.1-0.4,0.1-0.8,0.3-1.1c0.4-1,0.8-1.9,1.2-2.8c0-0.1,0.1-0.2,0.2-0.2c0.2-0.3,0.3-0.3,0.5,0C131.6,37.1,131.6,37.1,131.6,37.2z"/>
<path class="st4" d="M97.8,39.8c0,0,0.1,0.1,0.1,0.1c0.2,0.1,0.2,0.3,0,0.4c-0.2,0.1-0.4,0.3-0.7,0.3c-0.1,0-0.4-0.1-0.4-0.2
	c-0.1-0.1,0-0.4,0.1-0.5c0.1-0.1,0.4-0.1,0.5-0.2C97.6,39.7,97.7,39.8,97.8,39.8z"/>
<path class="st4" d="M84.5,42.7c0.4-0.4,0.7-0.7,1-0.9c0.2-0.2,0.5-0.4,0.8-0.5c0.6-0.3,1.1,0.1,1,0.7c-0.1,0.5-0.3,0.9-0.5,1.4
	c-0.1,0.2-0.2,0.4,0.1,0.6c0,0,0,0.1,0,0.1c0,0.2-0.3,0.4-0.6,0.4c-0.2,0-0.4-0.1-0.4-0.3c0-0.2,0-0.4,0.1-0.5
	c0.2-0.5,0.4-1.1,0.6-1.6c0,0,0-0.1,0-0.2c-0.3-0.2-0.5,0-0.7,0.1c-0.8,0.5-1.3,1.2-1.7,2c-0.1,0.2-0.2,0.3-0.3,0.4
	c-0.1,0.1-0.3,0.1-0.4,0.1c-0.2-0.1-0.2-0.2-0.2-0.4c0.1-0.5,0.3-1,0.4-1.5c0-0.2,0-0.3,0-0.5c-0.2,0.1-0.4,0.1-0.5,0.2
	c-0.2,0.2-0.4,0.4-0.5,0.7c-0.3,0.4-0.5,0.9-0.7,1.4c-0.1,0.1-0.2,0.3-0.3,0.4c-0.1,0.1-0.3,0.1-0.4,0c-0.1-0.1-0.1-0.3-0.1-0.4
	c0.1-0.2,0.2-0.5,0.3-0.7c0.1-0.3,0.1-0.6,0.3-0.9c0.2-0.4,0.4-0.7,0.6-1.1c0-0.1,0.2,0,0.3-0.1c0.2,0,0.4,0,0.5-0.1
	c0.8-0.4,1.2-0.1,1.2,0.7C84.5,42.4,84.5,42.5,84.5,42.7z"/>
<path class="st4" d="M118.4,45.5c0.3-1.1,0.6-2.3,1-3.5c-0.4,0.1-0.7,0.1-1.1,0.2c-0.1,0-0.2,0.2-0.3,0.3c-0.2,0.6-0.3,1.2-0.4,1.9
	c0,0.1-0.2,0.3-0.3,0.3c-0.2,0-0.3-0.2-0.3-0.4c0.1-0.5,0.2-0.9,0.3-1.4c0-0.1,0-0.2,0-0.2c-0.2-0.1-0.5-0.1-0.5-0.2
	c-0.1-0.3,0.1-0.4,0.3-0.5c0.3-0.1,0.5-0.4,0.5-0.7c0.2-0.7,0.4-1.5,0.6-2.2c0.1-0.2,0.2-0.4,0.3-0.6c0.1-0.1,0.2-0.2,0.4-0.1
	c0.2,0.1,0.2,0.2,0.1,0.4c-0.3,0.8-0.6,1.7-0.9,2.5c0,0.1,0,0.1,0,0.2c0.4,0,0.7-0.1,1.1-0.1c0.1,0,0.2-0.2,0.2-0.3
	c0.1-0.5,0.2-1,0.3-1.5c0.1-0.2,0.1-0.5,0.3-0.7c0.1-0.1,0.3-0.1,0.4-0.1c0.2,0.1,0.3,0.2,0.2,0.4c-0.2,0.6-0.4,1.1-0.5,1.7
	c-0.1,0.3-0.1,0.5,0.2,0.7c0.1,0,0.1,0.1,0.2,0.2c-0.1,0.2-0.3,0.2-0.5,0.2c-0.2,0-0.3,0-0.3,0.2c-0.2,0.8-0.5,1.6-0.7,2.4
	C119,45.1,118.9,45.4,118.4,45.5z"/>
<path class="st4" d="M112.5,41.3c-0.7,0.4-1.3,0.9-1.7,1.5c-0.2,0.4-0.4,0.8-0.7,1.2c-0.1,0.1-0.1,0.2-0.2,0.3
	c-0.1,0.1-0.3,0.1-0.3,0.1c-0.1-0.1-0.2-0.3-0.2-0.4c0.1-0.3,0.2-0.7,0.3-1c0.1-0.3,0.1-0.6,0.2-1c0,0-0.1-0.1-0.1-0.1
	c-0.2,0.2-0.5,0.3-0.6,0.5c-0.4,0.6-0.7,1.2-1,1.7c-0.1,0.2-0.2,0.4-0.3,0.5c-0.1,0.1-0.3,0.1-0.4,0c-0.1-0.1-0.1-0.3-0.1-0.4
	c0.3-0.7,0.5-1.4,0.8-2.1c0.1-0.1,0.1-0.3,0.2-0.4c0.1-0.2,0.3-0.2,0.4-0.1c0.2,0.1,0.3,0.1,0.4,0c0.1-0.1,0.2-0.2,0.3-0.2
	c0.2-0.1,0.4-0.1,0.5-0.1c0.2,0.1,0.4,0.3,0.3,0.6c0,0.1,0,0.3,0,0.5c0.4-0.5,0.8-0.9,1.2-1.3c0.2-0.2,0.4-0.4,0.7-0.5
	c0.4-0.2,0.7,0,0.7,0.4c0,0.2-0.1,0.5-0.2,0.7c-0.2,0.6-0.5,1.1-0.7,1.7c0,0.1,0,0.2,0,0.3c0,0.1,0.1,0.3,0,0.4
	c-0.1,0.1-0.3,0.2-0.4,0.1c-0.1-0.1-0.3-0.3-0.3-0.4c0-0.3,0.1-0.6,0.2-0.9c0.2-0.5,0.4-1,0.6-1.5C112.4,41.6,112.5,41.4,112.5,41.3
	z"/>
<path class="st4" d="M80.8,44.3c-0.6,0.5-1.3,0.7-2,0.6c-0.6-0.1-0.9-0.7-0.6-1.4c0.3-1,0.9-1.9,1.8-2.6c0.4-0.3,0.6-0.3,0.9-0.2
	c0.3,0.3,0.4,0.9,0.2,1.2c-0.3,0.4-0.7,0.7-1.1,0.8c-0.1,0-0.3-0.1-0.4-0.1c0-0.1,0-0.3,0.1-0.4c0.1-0.1,0.2-0.1,0.4-0.2
	c0.1,0,0.2,0,0.2-0.1c0.1-0.1,0.3-0.2,0.2-0.4c0,0-0.3,0-0.4,0.1c-0.7,0.5-1,1.2-1.2,2c-0.1,0.5,0.1,0.8,0.6,0.7
	c0.3,0,0.7-0.1,1-0.2c0.1,0,0.3,0,0.4,0C80.8,44.2,80.8,44.3,80.8,44.3z"/>
<path class="st4" d="M99.5,44.7c-0.7,0.6-1.7,0.4-2.1-0.3c-0.1-0.2-0.1-0.4-0.1-0.6c0.2-0.9,0.7-1.6,1.4-2.2
	c0.3-0.2,0.7-0.4,1.1-0.5c0.3-0.1,0.6,0,0.8,0.3c0.2,0.3,0.1,0.5-0.1,0.8c-0.5,0.6-1.1,0.9-1.8,0.6c-0.1,0-0.2,0-0.2,0
	c-0.3,0.2-0.5,0.6-0.5,1c0,0.3,0.2,0.4,0.5,0.5c0.2,0.1,0.4,0.1,0.6,0.1C99.2,44.6,99.4,44.6,99.5,44.7z M99.2,42.2
	c0.5,0.2,0.7,0,0.8-0.4C99.7,41.9,99.4,42,99.2,42.2z"/>
<path class="st4" d="M87.3,43.6c0.2-0.6,0.6-1.1,1-1.6c0.1-0.1,0.2-0.1,0.2-0.2c0.5-0.5,0.8-0.5,1.4-0.2c0.4,0.2,0.5,0.7,0.5,1.2
	c-0.2,0.9-1.4,1.9-2.3,1.9C87.6,44.8,87.2,44.3,87.3,43.6z M89.8,43c0-0.1,0-0.2,0-0.3c0-0.4-0.1-0.6-0.5-0.5
	c-0.7,0.1-1.4,0.9-1.4,1.6c0,0.2,0.2,0.4,0.4,0.4c0.2,0,0.3,0,0.5-0.1C89.3,43.9,89.7,43.6,89.8,43z"/>
<path class="st4" d="M102.3,43c0.1,0.1,0.3,0.2,0.4,0.3c0.2,0.2,0.5,0.3,0.7,0.5c0.2,0.2,0.2,0.5,0,0.7c-0.2,0.2-0.4,0.4-0.7,0.5
	c-0.4,0.2-0.9,0.4-1.3,0.5c-0.1,0-0.3,0-0.5,0c0.1-0.1,0.1-0.4,0.2-0.4c0.4-0.2,0.8-0.4,1.2-0.6c0.1-0.1,0.2-0.2,0.3-0.2
	c-0.1-0.1-0.2-0.2-0.3-0.3c-0.2-0.1-0.5-0.2-0.7-0.4c-0.3-0.2-0.3-0.5-0.1-0.8c0.4-0.6,1.1-0.9,1.7-1.1c0.2-0.1,0.4,0.1,0.6,0.3
	c0.2,0.1,0,0.4-0.3,0.4c-0.3,0.1-0.6,0.1-0.8,0.2c-0.2,0.1-0.4,0.2-0.6,0.4C102.3,42.9,102.3,42.9,102.3,43z"/>
<path class="st4" d="M121.5,44c0.3,0.4,1,0.5,1.5,0.3c0.2-0.1,0.3-0.1,0.5-0.2c0.1,0,0.1,0,0.2,0c0,0,0,0.1,0,0.2
	c-0.5,0.8-2.3,0.7-2.7,0c-0.2-0.4-0.1-0.8,0.1-1.2c0.4-0.7,1.3-1,2.1-0.6c0.4,0.2,0.4,0.4,0.1,0.7c-0.2,0.2-0.5,0.4-0.8,0.5
	C122.1,43.8,121.8,43.9,121.5,44z M122.4,43.1c0-0.1,0-0.1-0.1-0.2c-0.2,0.1-0.4,0.1-0.6,0.2c0,0.1,0,0.1,0,0.2
	C122,43.2,122.2,43.1,122.4,43.1z"/>
<path class="st4" d="M116.1,43.9c-0.4,0.6-0.8,0.5-1.5-0.3c-0.1,0.1-0.3,0.1-0.4,0.2c-0.2,0.1-0.4,0.1-0.7,0.1
	c-0.5,0-0.7-0.3-0.5-0.8c0.4-0.7,1-1.1,1.7-1.5c0.1-0.1,0.3,0,0.5,0.1c0.1,0.1,0,0.2,0.1,0.4c0,0,0,0,0,0c0,0.4,0,0.8,0.1,1.2
	c0,0.1,0.2,0.2,0.3,0.2C115.8,43.7,115.9,43.8,116.1,43.9z M113.4,43.3c0.4,0.2,0.9-0.1,1.2-0.6c0-0.1,0-0.2,0.1-0.2
	c-0.1,0-0.2-0.1-0.3,0C114,42.6,113.6,42.9,113.4,43.3z"/>
<path class="st4" d="M94.5,41.8c-0.2,0-0.4,0.1-0.6,0.1c-1,0.1-1.6,0.7-2,1.5c-0.1,0.1-0.1,0.2-0.1,0.4c0,0.4-0.2,0.7-0.5,0.9
	c-0.1,0.1-0.3,0.1-0.4,0c-0.1-0.1-0.2-0.3-0.2-0.4c0.1-0.4,0.3-0.8,0.5-1.1c0.5-0.7,0.9-1.4,1.7-1.7c0.3-0.1,0.6-0.2,0.9-0.2
	C94.2,41.3,94.4,41.4,94.5,41.8z"/>
<path class="st4" d="M127.5,42.2c-0.2,0.1-0.4,0.1-0.5,0.2c-1,0.2-1.6,0.9-2.1,1.8c-0.1,0.2-0.2,0.3-0.3,0.4c-0.1,0.1-0.2,0.1-0.3,0
	c-0.1-0.1-0.1-0.2-0.1-0.3c0-0.1,0.1-0.2,0.1-0.3c0.5-0.7,1.1-1.5,2-1.9c0.2-0.1,0.5-0.2,0.8-0.2c0.1,0,0.3,0.1,0.5,0.2
	C127.5,42.1,127.5,42.2,127.5,42.2z"/>
<path class="st4" d="M95.3,43.7c0.1-0.4,0.1-0.8,0.2-1.3c0-0.1,0.1-0.2,0.1-0.3c0.1-0.2,0.2-0.3,0.4-0.3c0.2,0.1,0.3,0.3,0.2,0.5
	c-0.2,0.5-0.3,1-0.5,1.5c-0.1,0.2-0.3,0.4-0.4,0.4C95.1,44.2,95.2,43.9,95.3,43.7z"/>
<path class="st4" d="M129,44.2c0,0.1,0.1,0.3,0,0.3c-0.3,0.2-0.6,0.4-1,0.5c-0.1,0-0.3-0.1-0.3-0.2c0-0.1,0.1-0.3,0.2-0.3
	C128.3,44.3,128.6,44.3,129,44.2z"/>
</svg>
