<?xml version="1.0" encoding="utf-8"?>
<!-- Generator: Adobe Illustrator 22.0.1, SVG Export Plug-In . SVG Version: 6.00 Build 0)  -->
<svg version="1.1" id="Layer_1" xmlns="http://www.w3.org/2000/svg" xmlns:xlink="http://www.w3.org/1999/xlink" x="0px" y="0px"
	 viewBox="0 0 98 51" style="enable-background:new 0 0 98 51;" xml:space="preserve">
<style type="text/css">
	.st0{fill-rule:evenodd;clip-rule:evenodd;fill:#E9DBCE;}
	.st1{fill-rule:evenodd;clip-rule:evenodd;fill:#F9B87B;}
	.st2{fill-rule:evenodd;clip-rule:evenodd;fill:#FFC32A;}
	.st3{fill-rule:evenodd;clip-rule:evenodd;fill:#ED3726;}
	.st4{fill-rule:evenodd;clip-rule:evenodd;fill:#0B6EB5;}
	.st5{fill:#0B6EB5;}
</style>
<g>
	<g>
		<path class="st0" d="M52.1,9.8c0,0-0.1,0-0.1,0c0.1,0,0.2,0,0.3,0c0,0,0,0,0,0C52.2,9.8,52.1,9.8,52.1,9.8z"/>
		<path class="st1" d="M52.2,9.8C52.2,9.8,52.2,9.8,52.2,9.8c0.1,0,0.2,0,0.3,0c0,0,0,0,0,0C52.4,9.8,52.3,9.8,52.2,9.8z"/>
		<path class="st2" d="M52.1,9.8c0.1,0,0.1,0,0.2,0c0.1,0,0.2,0,0.3,0c0.1,0,0.2,0,0.4,0c0.6,0.1,1.1,0.2,1.6,0.3
			c0.1,0,0.1,0.1,0.2,0.1c0,0,0.1,0,0.1,0.1c0.1,0,0.2,0.1,0.3,0.1c0.1,0.1,0.2,0.1,0.3,0.1c0.1,0,0.1,0.1,0.2,0.1
			c0.1,0,0.1,0.1,0.2,0.1c0.1,0.1,0.3,0.2,0.4,0.3c0,0.1,0.1,0.1,0.2,0.1c0.1,0.1,0.2,0.2,0.3,0.3c0.1,0.1,0.2,0.2,0.3,0.3
			c0.2,0.3,0.4,0.6,0.4,1.1c0,0.1,0,0.1,0,0.2c0,0.1,0,0.1,0,0.2c0,0.1-0.1,0.3-0.1,0.4c0,0.1-0.1,0.2-0.1,0.3c0,0-0.1,0.1-0.1,0.1
			c-0.1,0.1-0.2,0.2-0.3,0.3c-0.1,0.1-0.2,0.2-0.3,0.2c-0.2,0.1-0.3,0.2-0.5,0.2c-0.1,0-0.2,0.1-0.3,0.1c-0.3,0.1-0.6,0.1-0.9,0.2
			c0,0-0.1,0-0.1,0c-0.3,0-0.5,0-0.8,0c0,0-0.1,0-0.1,0c-0.3,0-0.6-0.1-0.9-0.1c-0.1,0-0.2-0.1-0.3-0.1c-0.1,0-0.2-0.1-0.3-0.1
			c-0.1,0-0.1-0.1-0.2-0.1c-0.1-0.1-0.3-0.1-0.5-0.2c-0.1,0-0.1-0.1-0.2-0.1c-0.1-0.1-0.3-0.1-0.4-0.2c-0.3-0.2-0.5-0.3-0.8-0.5
			c-0.1-0.1-0.2-0.2-0.4-0.4c-0.1-0.1-0.1-0.2-0.2-0.3c0,0,0-0.1,0-0.1c0-0.1-0.1-0.1-0.1-0.2c-0.1-0.2-0.2-0.5-0.3-0.8
			c0-0.1,0-0.2,0-0.2c0-0.2,0.1-0.4,0.1-0.5c0-0.1,0.1-0.1,0.1-0.2c0.1,0,0.1-0.1,0.1-0.2c0,0,0.1,0,0.1-0.1
			c0.1-0.1,0.2-0.2,0.3-0.3c0.1-0.1,0.2-0.1,0.3-0.2c0.1,0,0.1,0,0.1-0.1c0.1,0,0.1-0.1,0.2-0.1C50.9,9.9,51.4,9.8,52.1,9.8z"/>
		<path class="st0" d="M49.1,12c0,0.2,0-0.4,0-0.2C49.1,11.9,49.1,11.9,49.1,12z"/>
		<path class="st1" d="M57.3,12.9c0,0,0,0.2,0,0.2C57.3,13,57.3,13,57.3,12.9z"/>
		<path class="st2" d="M46.8,14.2c0.2-0.1,0.4,0,0.5,0.1c0.2,0.1,0.4,0.2,0.6,0.3c0.1,0.1,0.2,0.1,0.4,0.2c0.1,0.1,0.2,0.1,0.4,0.2
			c0.1,0.1,0.2,0.1,0.3,0.2c0.1,0,0.1,0.1,0.1,0.1c0.1,0.1,0.2,0.1,0.4,0.2c0.3,0.1,0.5,0.3,0.8,0.4c0.1,0.1,0.2,0.1,0.4,0.2
			c0.2,0.1,0.4,0.2,0.6,0.3c0.1,0.1,0.2,0.1,0.3,0.2c0.1,0.1,0.2,0.1,0.4,0.2c0.1,0.1,0.2,0.1,0.4,0.2c0.1,0,0.2,0.1,0.3,0.1
			c0,0.1-0.1,0-0.1,0c-0.1,0-0.1,0-0.1,0c-0.1,0.1-0.3,0.1-0.4,0.2c-0.1,0.1-0.3,0.1-0.4,0.2c-0.5,0.3-1,0.6-1.4,0.9
			c-0.1,0.1-0.2,0.1-0.3,0.2c-0.1,0-0.2,0.1-0.3,0.2c-0.8,0.5-1.4,1.2-2.1,1.8c-0.1,0.1-0.2,0.2-0.3,0.3c0,0,0,0.1-0.1,0.1
			c-0.3,0.3-0.6,0.6-0.9,0.9c0,0,0,0,0,0.1c-0.1,0.1-0.2,0.2-0.3,0.3c-0.5,0.5-0.9,1-1.3,1.6c-0.1,0.1-0.2,0.2-0.3,0.4
			c-0.1,0.1-0.2,0.2-0.2,0.3c-0.1,0.1-0.1,0.2-0.2,0.3c-0.1,0.1-0.2,0.2-0.2,0.3c-0.1,0.2-0.2,0.3-0.3,0.5c-0.1,0-0.1,0.1-0.1,0.1
			c-0.1,0.2-0.3,0.4-0.4,0.6c-0.1,0.1-0.2,0.2-0.2,0.4c-0.2,0.3-0.3,0.6-0.5,0.9c0,0.1-0.1,0.2-0.1,0.2c0,0.1-0.1,0.1-0.1,0.2
			c-0.1,0-0.1,0.1-0.1,0.2c-0.1,0.2-0.3,0.5-0.4,0.8c-0.2,0.5-0.4,1-0.6,1.5c-0.1,0.2-0.2,0.5-0.3,0.8c-0.3,0.9-0.5,1.9-0.6,3
			c0,0.1,0,0.2,0,0.2c0,0.1,0,0.3,0,0.4c0,0.1,0,0.1,0,0.2c0,0.1,0,0.3,0,0.4c0,0.1,0,0.3,0,0.4c0,0.5,0.1,0.9,0.2,1.2
			c0,0.1,0,0.2,0.1,0.3c0,0.1,0.1,0.2,0.1,0.3c0,0.1,0.1,0.2,0.1,0.3c0.2,0.5,0.4,1,0.7,1.5c0.2,0.4,0.5,0.8,0.9,1.2
			c0.1,0.2,0.3,0.3,0.5,0.5c0.2,0.2,0.4,0.4,0.7,0.6c0,0,0,0,0,0c-0.1,0-0.1-0.1-0.1-0.1c-0.1-0.1-0.2-0.1-0.4-0.2
			c-0.3-0.1-0.5-0.3-0.8-0.4c-0.1-0.1-0.2-0.1-0.4-0.2c-0.2-0.1-0.4-0.2-0.6-0.3c-0.2-0.1-0.4-0.2-0.6-0.3c-0.7-0.4-1.5-0.8-2.2-1.2
			c-0.1-0.1-0.2-0.2-0.4-0.2c-0.3-0.3-0.7-0.5-1-0.8c-0.1-0.1-0.2-0.2-0.4-0.4c-0.4-0.5-0.8-1-1.2-1.6c-0.1-0.1-0.1-0.2-0.2-0.3
			c-0.1-0.2-0.2-0.4-0.3-0.7c0-0.1-0.1-0.2-0.1-0.3c0-0.1-0.1-0.2-0.1-0.4c0-0.1-0.1-0.3-0.1-0.4c-0.1-0.4-0.1-0.7-0.2-1.1
			c0-0.2,0-0.3,0-0.4c0-0.3,0-0.6,0-0.9c0-0.1,0-0.2,0-0.4c0.1-1.1,0.3-2.1,0.6-3c0.1-0.1,0.1-0.2,0.1-0.4c0,0,0-0.1,0.1-0.2
			c0-0.1,0.1-0.1,0.1-0.2c0.1-0.4,0.3-0.7,0.4-1.1c0.1-0.2,0.2-0.4,0.3-0.5c0.1-0.1,0.2-0.3,0.2-0.4c0-0.1,0.1-0.2,0.1-0.3
			c0.1-0.2,0.2-0.4,0.4-0.7c0-0.1,0.1-0.1,0.1-0.2c0.1-0.1,0.1-0.2,0.2-0.3c0-0.1,0.1-0.1,0.1-0.2c0.1-0.1,0.1-0.2,0.2-0.3
			c0.1-0.1,0.2-0.2,0.2-0.3c0.1-0.1,0.1-0.2,0.2-0.2c0.1-0.1,0.1-0.2,0.2-0.3c0.1,0,0.1-0.1,0.1-0.1c0.1-0.2,0.3-0.3,0.4-0.5
			c0,0,0.1,0,0.1-0.1c0.6-0.8,1.2-1.5,1.9-2.2c0.1-0.1,0.2-0.2,0.3-0.3c0,0,0.1-0.1,0.1-0.1c0.1-0.1,0.2-0.2,0.3-0.3c0,0,0,0,0,0
			c0.2-0.2,0.4-0.4,0.5-0.5c0,0,0,0,0.1,0c0.1-0.1,0.2-0.2,0.3-0.3c0,0,0,0,0.1,0c0.1-0.1,0.1-0.1,0.2-0.2c0,0,0,0,0,0
			c0.1-0.1,0.2-0.2,0.3-0.3c0.2-0.2,0.4-0.3,0.6-0.5c0.1,0,0.1-0.1,0.1-0.1c0.4-0.3,0.8-0.6,1.2-0.9c0.1-0.1,0.3-0.2,0.4-0.3
			c0.1-0.1,0.2-0.1,0.3-0.2c0.1,0,0.1,0,0.1-0.1C45.6,14.9,46.1,14.4,46.8,14.2z"/>
		<path class="st0" d="M53.7,15.1c-0.1,0-0.4,0-0.1,0C53.6,15.1,53.7,15.1,53.7,15.1C53.7,15.1,53.7,15.1,53.7,15.1z"/>
		<path class="st1" d="M53.7,15.1C53.7,15.1,53.7,15.1,53.7,15.1c0.3,0,0.5,0,0.8,0c0,0,0,0,0,0c0,0,0,0-0.1,0
			C54.2,15.1,54,15.1,53.7,15.1C53.7,15.1,53.7,15.1,53.7,15.1z"/>
		<path class="st0" d="M54.5,15.1C54.5,15.1,54.5,15.1,54.5,15.1c0,0,0.1,0,0.1,0C54.8,15.1,54.6,15.1,54.5,15.1z"/>
		<path class="st0" d="M53.7,15.1c0.2,0,0.4,0,0.7,0C54.2,15.2,53.9,15.2,53.7,15.1z"/>
		<path class="st0" d="M49.1,24.3c0.3,0,0.7,0,0.9,0C49.7,24.3,49.4,24.3,49.1,24.3z"/>
		<path class="st0" d="M48.4,24.4c0,0,0.2,0,0.3,0c0,0,0,0,0,0c0,0,0,0,0,0C48.6,24.4,48.5,24.4,48.4,24.4z"/>
		<path class="st1" d="M48.7,24.4C48.7,24.4,48.7,24.3,48.7,24.4c0.1,0,0.2,0,0.3,0c0.3,0,0.6,0,0.9,0c0.1,0,0.2,0,0.3,0
			c0,0,0,0,0,0C49.8,24.4,49.2,24.4,48.7,24.4z"/>
		<path class="st0" d="M50.3,24.4C50.3,24.4,50.3,24.3,50.3,24.4c0.1,0,0.2,0,0.2,0C50.5,24.4,50.4,24.4,50.3,24.4
			C50.3,24.4,50.3,24.4,50.3,24.4z"/>
		<path class="st0" d="M48.2,24.4c0,0,0.1,0,0.2,0c0,0,0,0,0,0c0,0,0,0-0.1,0C48.3,24.4,48.2,24.4,48.2,24.4z"/>
		<path class="st1" d="M48.4,24.4C48.4,24.4,48.4,24.4,48.4,24.4C48.4,24.4,48.4,24.4,48.4,24.4c0.2,0,0.3,0,0.3,0
			C48.6,24.4,48.5,24.4,48.4,24.4z"/>
		<path class="st3" d="M48.7,24.4C48.7,24.4,48.7,24.4,48.7,24.4c0.5,0,1.1,0,1.6,0c0,0,0,0,0,0c0,0,0.2,0,0.3,0c0,0,0.1,0,0.1,0
			c0,0,0.2,0,0.2,0c0,0,0,0,0.1,0c0,0,0.1,0,0.2,0c0.4,0.1,0.7,0.1,1.1,0.1c0.1,0,0.1,0,0.2,0c0.5,0.1,0.9,0.2,1.4,0.3
			c0.1,0.1,0.3,0.1,0.4,0.1c0.2,0.1,0.3,0.1,0.5,0.2c0.2,0.1,0.3,0.2,0.5,0.2c0,0,0,0,0,0c0.1,0.1,0.3,0.2,0.4,0.2c0,0,0,0,0,0
			c0.1,0.1,0.3,0.2,0.4,0.3c0,0,0,0,0,0c0,0.1,0.1,0.1,0.2,0.1c0,0,0,0,0,0c0,0.1,0.1,0.1,0.2,0.1c0,0,0,0,0,0
			c0,0.1,0.1,0.1,0.2,0.1c0,0,0,0,0,0c0,0.1,0.1,0.1,0.2,0.1c0,0,0,0,0,0c0,0.1,0.1,0.1,0.2,0.1c0,0,0,0,0,0
			c0.1,0.1,0.3,0.2,0.4,0.3c0,0,0,0,0,0c0,0.1,0.1,0.1,0.2,0.1c0,0,0,0,0,0c0,0.1,0.1,0.1,0.2,0.1c0,0,0,0,0,0
			c0,0.1,0.1,0.1,0.2,0.1c0,0,0,0,0,0c0.4,0.3,0.9,0.5,1.3,0.7c0,0,0,0,0,0c0,0.1,0.1,0.1,0.2,0.1c0,0,0,0,0,0
			c0,0.1,0.1,0.1,0.2,0.1c0,0,0,0,0,0c0,0,0,0,0.1,0c-0.1,0-0.2-0.1-0.3-0.1c0,0,0,0,0,0c0-0.1-0.1-0.1-0.2-0.1
			c-0.3-0.1-0.5-0.2-0.8-0.2c-0.1-0.1-0.3-0.1-0.5-0.1c-0.6-0.1-1.2-0.3-1.9-0.3c0,0-0.2,0-0.3,0c0,0-0.1,0-0.2,0c0,0-0.1,0-0.1,0
			c-0.1,0-0.2,0-0.3,0c0,0,0,0-0.1,0c-0.4,0-1,0-1.5,0c0,0,0,0-0.1,0c-0.1,0-0.2,0-0.3,0c0,0-0.1,0-0.1,0c-0.1,0-0.2,0-0.2,0
			c-0.1,0-0.2,0-0.3,0c0,0,0,0,0,0c-0.1,0-0.2,0-0.2,0c-0.5,0-1,0.1-1.5,0.2c-0.1,0-0.2,0-0.3,0.1c-0.2,0-0.4,0.1-0.5,0.1
			c-0.1,0-0.3,0-0.4,0.1c-0.5,0.1-0.9,0.3-1.3,0.4c-0.1,0-0.2,0-0.2,0.1c-0.1,0-0.2,0-0.3,0.1c-0.1,0-0.2,0.1-0.3,0.1
			c-0.1,0-0.1,0-0.1,0c-0.1,0-0.2,0.1-0.2,0.1c-0.1,0-0.2,0.1-0.3,0.1c-0.1,0-0.2,0.1-0.3,0.1c0,0,0,0,0,0C45,30.3,43,32,41.4,34.2
			c0,0,0-0.1,0-0.1c0,0,0,0,0,0c0,0,0-0.1,0-0.2c0-0.2,0-0.3,0.1-0.5c0-0.1,0-0.1,0-0.2c0.1-0.5,0.2-1,0.3-1.4
			c0-0.1,0.1-0.2,0.1-0.3c0-0.1,0.1-0.2,0.1-0.3c0.1,0,0.1-0.1,0.1-0.2c0-0.1,0.1-0.1,0.1-0.2c0.1-0.1,0.1-0.2,0.1-0.3c0,0,0,0,0,0
			c0.1-0.1,0.1-0.1,0.1-0.2c0-0.1,0.1-0.2,0.1-0.3c0-0.1,0.1-0.1,0.1-0.2c0,0,0,0,0,0c0.1-0.1,0.1-0.2,0.1-0.3
			c0-0.1,0.1-0.1,0.1-0.1c0.1-0.1,0.1-0.2,0.1-0.3c0,0,0,0,0-0.1c0.1-0.2,0.2-0.4,0.3-0.6c0,0,0,0,0,0c0.1-0.2,0.2-0.4,0.3-0.5
			c0,0,0.1-0.1,0.1-0.1c0.1-0.1,0.2-0.3,0.3-0.4c0,0,0,0,0,0c0.1-0.1,0.2-0.3,0.3-0.5c0,0,0,0,0,0c0.5-0.7,1-1.4,1.5-2
			c0,0,0.1,0,0.1,0c0,0,0,0,0,0c0.1,0,0.2,0,0.2,0c0.1,0,0.2,0,0.3,0c0.1,0,0.2,0,0.2,0c0.3,0,0.7-0.1,1-0.1c0.1,0,0.2,0,0.2,0
			c0,0,0,0,0,0c0.1,0,0.2,0,0.3,0c0,0,0,0,0,0c0.1,0,0.2,0,0.2,0c0,0,0,0,0.1,0C48.5,24.4,48.6,24.4,48.7,24.4z"/>
		<path class="st1" d="M50.3,24.4c0.1,0,0.1,0,0.2,0c0,0,0,0,0.1,0c0,0,0,0,0,0C50.5,24.4,50.4,24.4,50.3,24.4z"/>
		<path class="st0" d="M50.6,24.4C50.6,24.4,50.6,24.4,50.6,24.4c0.1,0,0.2,0,0.3,0C50.8,24.4,50.7,24.4,50.6,24.4
			C50.6,24.4,50.6,24.4,50.6,24.4z"/>
		<path class="st1" d="M48.1,24.4C48.1,24.4,48.1,24.4,48.1,24.4c0.1,0,0.2,0,0.2,0C48.3,24.4,48.2,24.4,48.1,24.4z"/>
		<path class="st1" d="M50.7,24.4c0.1,0,0.1,0,0.2,0c0,0,0.1,0,0.1,0C50.8,24.4,50.7,24.4,50.7,24.4z"/>
		<path class="st1" d="M47.8,24.4c0,0,0.2,0,0.3,0C48,24.5,47.9,24.4,47.8,24.4z"/>
		<path class="st1" d="M51,24.4c0.1,0,0.2,0,0.2,0C51.1,24.4,51,24.5,51,24.4z"/>
		<path class="st1" d="M47.6,24.4c0,0,0.1,0,0.2,0C47.7,24.5,47.6,24.4,47.6,24.4z"/>
		<path class="st2" d="M66.6,26.2c0.2-0.2,0.5-0.4,0.9-0.3c0.1,0,0.2,0.1,0.3,0.1c0.1,0,0.1,0.1,0.2,0.2c0.1,0.2,0.2,0.5,0.1,0.7
			c-0.1,0.2-0.2,0.4-0.4,0.4c-0.1,0-0.2,0-0.2,0.1c-0.4,0-0.6-0.1-0.8-0.3C66.5,26.8,66.5,26.4,66.6,26.2z"/>
		<path class="st3" d="M85.2,26.3c0.1,0,0.1,0,0.2,0c0.1,0,0.2,0.1,0.3,0.2c0,0.1,0.1,0.2,0,0.3c-0.1,0.2-0.2,0.3-0.4,0.3
			c0,0,0,0,0,0C85.1,27,85,26.9,85,26.8c0,0,0,0,0,0c0-0.1,0-0.1,0-0.2c0,0,0,0,0,0C85,26.5,85.1,26.4,85.2,26.3z"/>
		<path class="st1" d="M85,26.8c0,0,0-0.2,0-0.2C85,26.7,85,26.7,85,26.8z"/>
		<path class="st1" d="M54.5,27.4c0.4,0,1,0,1.5,0c-0.1,0-0.2,0-0.3,0c-0.3,0-0.5,0-0.8,0C54.7,27.4,54.6,27.4,54.5,27.4z"/>
		<path class="st1" d="M54.1,27.5c0.1,0,0.2,0,0.3,0c0,0,0,0,0,0c-0.1,0-0.1,0-0.2,0C54.2,27.5,54.2,27.5,54.1,27.5z"/>
		<path class="st0" d="M54.4,27.5C54.4,27.5,54.4,27.4,54.4,27.5C54.4,27.4,54.5,27.4,54.4,27.5c0.2,0,0.3,0,0.4,0
			C54.7,27.5,54.5,27.4,54.4,27.5z"/>
		<path class="st0" d="M55.6,27.4c0.1,0,0.2,0,0.3,0c0,0,0,0,0.1,0c0,0,0,0,0,0C55.9,27.4,55.7,27.5,55.6,27.4z"/>
		<path class="st1" d="M56,27.5C56,27.5,56,27.4,56,27.5c0.1,0,0.2,0,0.3,0c0,0-0.1,0-0.1,0C56.1,27.5,56.1,27.5,56,27.5z"/>
		<path class="st1" d="M53.8,27.5c0,0,0.2,0,0.2,0c0,0,0,0,0,0c0,0,0,0-0.1,0C53.9,27.5,53.8,27.5,53.8,27.5z"/>
		<path class="st0" d="M54,27.5C54,27.5,54,27.5,54,27.5c0,0,0.1,0,0.1,0c0,0,0.1,0,0.1,0C54.2,27.5,54.1,27.5,54,27.5z"/>
		<path class="st0" d="M56.2,27.5c0,0,0.1,0,0.1,0c0,0,0.1,0,0.1,0c0,0,0,0,0,0C56.3,27.5,56.2,27.5,56.2,27.5z"/>
		<path class="st1" d="M56.4,27.5C56.4,27.5,56.4,27.5,56.4,27.5c0.1,0,0.2,0,0.2,0C56.6,27.5,56.5,27.5,56.4,27.5
			C56.4,27.5,56.4,27.5,56.4,27.5z"/>
		<path class="st1" d="M53.3,27.5c0,0,0.1,0,0.2,0C53.5,27.6,53.4,27.5,53.3,27.5z"/>
		<path class="st1" d="M76.5,27.9c0.1,0,0.3,0,0.3,0C76.7,27.9,76.6,27.9,76.5,27.9z"/>
		<path class="st2" d="M66.6,27.9c0.5,0,1.1,0,1.6,0c0,1.5,0,3,0,4.4c-0.5,0-1.1,0-1.6,0C66.6,30.9,66.6,29.4,66.6,27.9
			C66.6,27.9,66.6,27.9,66.6,27.9z"/>
		<path class="st3" d="M76.3,27.9c0.1,0,0.2,0,0.3,0c0.1,0,0.2,0,0.3,0c0.1,0,0.2,0,0.3,0c0.2,0.1,0.3,0.1,0.5,0.2
			c0,0.1-0.1,0.2-0.1,0.3c-0.1,0-0.2-0.1-0.3-0.1c-0.1,0-0.1-0.1-0.3-0.1c0,0-0.1,0-0.2,0c0,0-0.2,0-0.2,0c0,0,0,0,0,0
			c-0.1,0-0.2,0-0.3,0.1c0,0,0,0,0,0c-0.2,0.1-0.4,0.3-0.4,0.5c0,0,0,0,0,0c0,0,0,0.2,0,0.3c0,0,0,0.1,0,0.1c0,0.1,0,0.1,0,0.1
			c0.1,0.2,0.3,0.3,0.5,0.4c0,0,0,0,0.1,0c0.1,0.1,0.3,0.2,0.5,0.2c0,0,0,0,0,0c0.1,0.1,0.2,0.1,0.3,0.1c0,0,0,0,0,0
			c0.3,0.2,0.5,0.4,0.6,0.8c0,0,0,0,0,0c0,0.2,0,0.3,0,0.5c0,0,0,0.1,0,0.1c-0.1,0.4-0.4,0.6-0.7,0.8c-0.2,0-0.3,0.1-0.5,0.1
			c-0.2,0-0.3,0-0.5,0c-0.2,0-0.4-0.1-0.5-0.1c-0.1-0.1-0.1-0.1-0.2-0.1c0,0-0.1,0-0.1-0.1c0-0.1,0.1-0.2,0.1-0.3c0,0,0,0,0,0
			c0,0,0,0,0,0c0.1,0,0.2,0.1,0.4,0.2c0.3,0.1,0.8,0.2,1.1,0c0.2-0.1,0.4-0.3,0.5-0.5c0.1-0.2,0-0.5-0.1-0.6
			c-0.1-0.3-0.4-0.4-0.7-0.5c0,0,0,0-0.1,0c-0.1-0.1-0.3-0.1-0.4-0.2c0,0-0.1,0-0.1,0c-0.3-0.2-0.6-0.4-0.7-0.9c0,0,0,0,0,0
			c0-0.1,0-0.2,0-0.3c0,0,0-0.1,0-0.1c0-0.1,0.1-0.1,0.1-0.2c0,0,0,0,0,0C75.6,28.2,75.9,28,76.3,27.9z"/>
		<path class="st3" d="M85.1,28c0.1,0,0.3,0,0.4,0c0,1.4,0,2.9,0,4.3c-0.1,0-0.3,0-0.4,0C85.1,30.9,85.1,29.5,85.1,28
			C85.1,28,85.1,28,85.1,28z"/>
		<path class="st3" d="M94.2,30.6c-0.4,0.6-0.8,1.2-1.2,1.8c-0.1,0-0.3,0-0.4,0c0.5-0.8,1.1-1.5,1.6-2.2c-0.5-0.7-1-1.4-1.5-2.1
			c0.1,0,0.3,0,0.4,0c0.4,0.5,0.8,1.1,1.2,1.6c0,0,0,0,0,0c0,0.1,0.1,0.1,0.1,0.2c0.4-0.6,0.9-1.2,1.3-1.8c0.1,0,0.3,0,0.4,0
			c0,0.1-0.1,0.2-0.2,0.3c0,0,0,0,0,0c-0.5,0.6-0.9,1.2-1.3,1.8c0.4,0.6,0.8,1.2,1.3,1.8c0,0,0,0,0,0c0.1,0.1,0.2,0.2,0.3,0.4
			c-0.1,0-0.3,0-0.4,0c-0.4-0.5-0.8-1.1-1.2-1.6c0,0,0,0,0,0c0-0.1-0.1-0.2-0.2-0.3C94.2,30.4,94.2,30.5,94.2,30.6
			C94.2,30.5,94.2,30.6,94.2,30.6z"/>
		<path class="st1" d="M76.5,28.2c0,0,0.2,0,0.2,0C76.7,28.2,76.6,28.2,76.5,28.2z"/>
		<path class="st1" d="M75.8,28.9c0,0.1,0,0.2,0,0.3C75.7,29.1,75.7,28.9,75.8,28.9z"/>
		<path class="st1" d="M75.3,28.9C75.3,28.9,75.3,28.9,75.3,28.9c0,0.1,0,0.2,0,0.3c0,0,0,0,0,0C75.3,29.1,75.3,29,75.3,28.9z"/>
		<path class="st0" d="M75.3,28.9c0,0.1,0,0.2,0,0.2C75.3,29.1,75.3,28.9,75.3,28.9z"/>
		<path class="st4" d="M49.8,42.1c-3.3-0.1-5.8-1.2-7.2-3.2c1.8,0.2,3.8,0.1,5.5-0.3c3.3-0.7,5.9-2,8-4.1c0.5-0.5,0.9-1.1,1.2-1.8
			c0.3-0.7,0.6-1.6,0.4-2.5c-0.1-0.4-0.2-0.8-0.4-1.1c2.3,0.4,4.2,1.1,5.4,2.6c0.6,0.8,0.9,1.9,0.7,3.1c-0.2,1.1-0.8,1.8-1.5,2.6
			c-1.2,1.4-2.9,2.4-4.8,3.2c-1.9,0.8-4.1,1.3-6.6,1.4C50.3,42.1,50,42.1,49.8,42.1z"/>
		<path class="st1" d="M77.8,30.9C77.8,30.9,77.8,31,77.8,30.9c0,0.2,0,0.3,0,0.4c0,0,0,0,0,0C77.8,31.3,77.8,31.1,77.8,30.9z"/>
		<path class="st0" d="M77.8,31c0,0.1,0,0.3,0,0.4C77.8,31.2,77.8,31.1,77.8,31z"/>
		<path class="st1" d="M34.3,31.4C34.3,31.4,34.3,31.4,34.3,31.4c0,0.3,0,0.6,0,0.9c0,0,0,0,0,0c0-0.1,0-0.2,0-0.2
			c0-0.1,0-0.3,0-0.4C34.3,31.6,34.3,31.5,34.3,31.4z"/>
		<path class="st0" d="M34.2,31.7C34.2,31.7,34.2,31.7,34.2,31.7c0,0.1,0,0.3,0,0.4c0,0,0,0,0,0C34.2,32,34.2,31.8,34.2,31.7z"/>
		<path class="st0" d="M92.5,32.3c0.2,0,0.3,0,0.5,0C92.8,32.4,92.6,32.4,92.5,32.3z"/>
		<path class="st1" d="M76.2,32.4c0,0-0.1,0-0.1,0c0.2,0,0.3,0,0.5,0c0,0-0.1,0-0.1,0C76.4,32.4,76.3,32.4,76.2,32.4z"/>
		<path class="st0" d="M76.2,32.4c0.1,0,0.2,0,0.3,0C76.4,32.5,76.2,32.5,76.2,32.4z"/>
		<path class="st1" d="M41.4,34.1c0-0.1,0-0.2,0-0.2C41.4,33.9,41.4,34.1,41.4,34.1z"/>
		<path class="st1" d="M39.9,34.5c0,0,0,0.1,0,0.1c0,0.1,0,0.2,0,0.3C39.9,34.8,39.9,34.6,39.9,34.5z"/>
		<path class="st1" d="M39.9,35.1c0,0,0,0.2,0,0.3c0,0,0,0.1,0,0.1C39.9,35.4,39.9,35.2,39.9,35.1z"/>
		<path class="st0" d="M50.2,10.2C50.2,10.2,50.2,10.2,50.2,10.2c-0.1,0,0.1-0.1,0.2-0.1C50.4,10.2,50.3,10.2,50.2,10.2z"/>
		<path class="st0" d="M49.4,10.9c0.2-0.3,0.4-0.4,0.7-0.6c-0.1,0.1-0.2,0.2-0.3,0.2c-0.1,0.1-0.2,0.2-0.3,0.3
			C49.5,10.9,49.5,10.9,49.4,10.9z"/>
		<path class="st0" d="M49.2,11.3c-0.1,0,0.1-0.3,0.1-0.2C49.3,11.2,49.3,11.2,49.2,11.3z"/>
		<path class="st0" d="M49.5,13c-0.1,0-0.2-0.3-0.1-0.2C49.4,12.9,49.5,12.9,49.5,13z"/>
		<path class="st0" d="M50.1,13.7c-0.2-0.2-0.4-0.4-0.6-0.7c0.1,0.1,0.2,0.2,0.2,0.3C49.9,13.5,50,13.6,50.1,13.7z"/>
		<path class="st0" d="M50.1,13.7c0.3,0.2,0.5,0.4,0.8,0.5c0,0,0,0,0,0C50.7,14.3,50.3,13.9,50.1,13.7z"/>
		<path class="st0" d="M51.4,14.6c0.1,0.1-0.2-0.1-0.2-0.1C51.3,14.5,51.4,14.5,51.4,14.6z"/>
		<path class="st0" d="M52.1,14.8c-0.1,0.1-0.2,0-0.2,0c0,0,0,0,0,0C52,14.8,52,14.8,52.1,14.8z"/>
		<path class="st0" d="M52.7,15c-0.1,0-0.3,0-0.3-0.1C52.5,14.9,52.6,14.9,52.7,15z"/>
		<path class="st0" d="M55.5,14.9c0.1-0.1,0.2-0.1,0.3-0.1C55.7,14.9,55.6,14.9,55.5,14.9z"/>
		<path class="st0" d="M56.3,14.6c0.1-0.1,0.2-0.2,0.3-0.2c0.1-0.1,0.2-0.2,0.3-0.3c0,0,0-0.1,0.1-0.1
			C56.9,14.2,56.6,14.5,56.3,14.6z"/>
		<path class="st0" d="M57.2,13.7c0-0.1,0.1-0.3,0.1-0.4C57.3,13.4,57.3,13.6,57.2,13.7z"/>
		<path class="st0" d="M56.2,11.1c0.3,0.2,0.5,0.4,0.7,0.7c-0.1-0.1-0.2-0.2-0.3-0.3c-0.1-0.1-0.2-0.2-0.3-0.3
			C56.3,11.2,56.3,11.1,56.2,11.1z"/>
		<path class="st0" d="M55.6,10.6c-0.1-0.1,0.3,0.2,0.2,0.1C55.7,10.7,55.7,10.7,55.6,10.6z"/>
		<path class="st0" d="M54.8,10.3c0.1,0,0.2,0.1,0.3,0.1c0,0,0,0,0,0C55,10.3,54.9,10.3,54.8,10.3z"/>
		<path class="st0" d="M54.5,10.1c0,0,0.1,0,0.2,0c0,0,0,0,0,0C54.6,10.2,54.6,10.2,54.5,10.1z"/>
		<path class="st0" d="M96,32.2C96.1,32.2,96.1,32.3,96,32.2c0.1,0.1,0.1,0.1,0.1,0.1c-0.1,0-0.5,0.1-0.5,0c0.1,0.1,0.4,0,0.5,0
			C96.1,32.3,96,32.3,96,32.2z"/>
		<path class="st0" d="M95.6,27.9c0.1,0,0.4-0.1,0.5,0C95.9,27.9,95.7,28,95.6,27.9z"/>
		<path class="st0" d="M92.6,28.1c0,0-0.1,0-0.1-0.1c0.1,0,0.4,0,0.5,0c-0.2,0-0.3,0-0.5,0C92.5,28,92.6,28,92.6,28.1z"/>
		<path class="st0" d="M94.3,30.5c0.1,0,0.1,0.1,0.1,0.1c0,0,0,0,0,0c0,0,0,0,0,0C94.4,30.7,94.4,30.6,94.3,30.5z"/>
		<path class="st0" d="M49.4,42.1C49.4,42,49.4,42,49.4,42.1c-2.3-0.1-4.2-0.8-5.6-1.9c-0.3-0.3-0.7-0.6-0.9-0.9
			c-0.1-0.1-0.2-0.2-0.2-0.4c3.9,0.4,7.3-0.5,9.9-1.8c1.3-0.7,2.4-1.5,3.5-2.5c1-1,2.2-2.8,1.5-4.8c-0.1-0.2-0.2-0.4-0.3-0.6
			c1.6,0.2,3,0.7,4.2,1.5c1.1,0.7,2.1,1.9,2,3.7c-0.1,1.4-1,2.5-1.7,3.3c-0.8,0.9-1.8,1.6-2.9,2.2c-2.2,1.3-4.8,2-7.8,2.3
			c-0.2,0-0.3,0-0.5,0c2.5-0.1,4.7-0.6,6.6-1.4c1.9-0.8,3.5-1.8,4.8-3.2c0.6-0.7,1.2-1.5,1.5-2.6c0.3-1.2-0.1-2.3-0.7-3.1
			c-1.1-1.5-3-2.2-5.4-2.6c0.2,0.4,0.3,0.7,0.4,1.1c0.2,0.9-0.1,1.8-0.4,2.5c-0.3,0.7-0.8,1.3-1.2,1.8c-2,2-4.6,3.4-8,4.1
			c-1.6,0.3-3.6,0.5-5.5,0.3c1.4,2,3.9,3.1,7.2,3.2C49.7,42.1,49.5,42.1,49.4,42.1z"/>
		<path class="st0" d="M34.5,33.9c0,0.1,0.1,0.3,0.1,0.4C34.5,34.2,34.5,34,34.5,33.9z"/>
		<path class="st0" d="M34.8,34.9c-0.1,0-0.1-0.2-0.1-0.3C34.7,34.7,34.7,34.8,34.8,34.9z"/>
		<path class="st0" d="M37.7,38.6c-1.1-0.7-1.9-1.6-2.5-2.8c0,0,0,0,0,0c0.3,0.6,0.7,1.1,1.2,1.6c0.1,0.1,0.2,0.2,0.4,0.4
			C37,38.1,37.4,38.4,37.7,38.6z"/>
		<path class="st0" d="M38.1,38.9c0.7,0.4,1.5,0.8,2.2,1.2c0,0.1-0.4-0.2-0.5-0.3C39.2,39.5,38.4,39.1,38.1,38.9z"/>
		<path class="st0" d="M41.5,40.7c0.1,0.1-0.7-0.4-0.6-0.3C41.1,40.5,41.3,40.6,41.5,40.7z"/>
		<path class="st0" d="M42.7,41.4c0,0.1-0.1,0-0.2-0.1c-0.2-0.1-0.6-0.3-0.7-0.4c0,0,0,0,0,0C42.1,41.1,42.4,41.2,42.7,41.4z"/>
		<path class="st0" d="M43.2,41.7c0,0-0.3-0.1-0.2-0.1C43.1,41.6,43.1,41.6,43.2,41.7C43.2,41.7,43.2,41.7,43.2,41.7z"/>
		<path class="st0" d="M41.1,39.4c0.6,1,1.5,1.8,2.4,2.5c-0.1-0.1-0.3-0.1-0.3-0.2c0.1,0,0.1,0.1,0.2,0.1c0-0.1-0.1-0.1-0.2-0.2
			c-0.3-0.2-0.5-0.4-0.7-0.6c-0.1-0.2-0.3-0.3-0.5-0.5C41.7,40.2,41.4,39.9,41.1,39.4z"/>
		<path class="st0" d="M40.3,37.7c0,0,0.1,0.2,0.1,0.3C40.4,37.9,40.3,37.8,40.3,37.7z"/>
		<path class="st0" d="M40.2,37.1c0-0.1,0.1,0.2,0.1,0.3C40.2,37.2,40.2,37.2,40.2,37.1z"/>
		<path class="st0" d="M40.8,30.6c0,0.2-0.1,0.5-0.3,0.8C40.6,31.1,40.7,30.8,40.8,30.6z"/>
		<path class="st0" d="M41.4,29.1c0.1-0.3,0.2-0.5,0.4-0.8c0.1,0,0,0.1,0,0.1C41.6,28.7,41.5,29,41.4,29.1z"/>
		<path class="st0" d="M41.8,28.2c0-0.1,0.1-0.2,0.1-0.2C42,27.9,41.9,28.1,41.8,28.2z"/>
		<path class="st0" d="M42.1,27.7c0.2-0.3,0.3-0.6,0.5-0.9c0.1,0,0,0.1-0.1,0.2C42.4,27.2,42.2,27.5,42.1,27.7z"/>
		<path class="st0" d="M42.8,26.5c0.1-0.2,0.3-0.4,0.4-0.6c0.1-0.1,0,0.1,0,0.1C43.1,26.1,43,26.3,42.8,26.5
			C42.9,26.4,42.8,26.6,42.8,26.5z"/>
		<path class="st0" d="M43.7,25.2c-0.1,0.2-0.2,0.4-0.4,0.5C43.4,25.5,43.5,25.4,43.7,25.2C43.7,25.2,43.7,25.2,43.7,25.2z"/>
		<path class="st1" d="M43.9,24.9c0,0.1-0.1,0.2-0.2,0.3c0,0,0,0-0.1,0C43.7,25.1,43.8,25,43.9,24.9z"/>
		<path class="st0" d="M44.3,24.4c-0.1,0.1-0.1,0.2-0.2,0.3C44.1,24.6,44.2,24.5,44.3,24.4z"/>
		<path class="st0" d="M49.7,19c-1.9,1.5-3.6,3.1-5.1,5c0.4-0.6,0.9-1.1,1.3-1.6c0.1-0.1,0.2-0.2,0.3-0.3c0,0,0,0,0-0.1
			c0.3-0.3,0.6-0.6,0.9-0.9c0,0,0-0.1,0.1-0.1c0.1-0.1,0.2-0.2,0.3-0.3C48.2,20.2,48.9,19.6,49.7,19z"/>
		<path class="st1" d="M50.2,18.7c-0.1,0.1-0.1,0.1-0.3,0.2C50,18.7,50.1,18.7,50.2,18.7C50.2,18.6,50.2,18.6,50.2,18.7z"/>
		<path class="st0" d="M50.2,18.6c0.5-0.3,0.9-0.7,1.4-0.9C51.2,18,50.7,18.3,50.2,18.6C50.2,18.6,50.2,18.6,50.2,18.6z"/>
		<path class="st0" d="M52,17.4c0.1-0.1,0.2-0.2,0.4-0.2C52.4,17.3,52.2,17.4,52,17.4z"/>
		<path class="st0" d="M52.4,17c0-0.1,0.4,0.2,0.4,0.2c-0.1,0-0.2,0-0.2,0c0.1,0,0.1,0,0.1,0C52.5,17.1,52.5,17,52.4,17z"/>
		<path class="st0" d="M51.6,16.6c0-0.1,0.4,0.2,0.4,0.2C51.9,16.8,51.8,16.7,51.6,16.6z"/>
		<path class="st0" d="M50.7,16.1c0-0.1,0.1,0,0.3,0.1c0.2,0.1,0.4,0.2,0.4,0.2C51.1,16.3,50.9,16.2,50.7,16.1z"/>
		<path class="st0" d="M49.5,15.4C49.4,15.4,49.6,15.4,49.5,15.4c0.2,0.1,0.6,0.3,0.7,0.4c0.1,0,0.2,0.1,0.1,0.1
			C50,15.8,49.8,15.6,49.5,15.4z"/>
		<path class="st0" d="M49,15.2c-0.1-0.1,0.3,0.1,0.1,0.1C49.1,15.2,49,15.2,49,15.2z"/>
		<path class="st0" d="M48.3,14.8c0-0.1,0.4,0.2,0.4,0.2C48.5,14.9,48.4,14.8,48.3,14.8z"/>
		<path class="st0" d="M47.3,14.3C47.3,14.2,47.3,14.2,47.3,14.3c0.2,0,0.4,0.2,0.6,0.3c0,0,0,0.1,0,0
			C47.7,14.5,47.5,14.4,47.3,14.3z"/>
		<path class="st0" d="M45,15.2c-0.1,0,0.1-0.1,0.1-0.1c0.4-0.3,1.2-0.8,1.6-0.9C46.1,14.4,45.6,14.9,45,15.2z"/>
		<path class="st0" d="M44.6,15.5C44.5,15.6,44.5,15.5,44.6,15.5c0.1-0.1,0.2-0.2,0.3-0.2C44.8,15.4,44.7,15.5,44.6,15.5z"/>
		<path class="st0" d="M43.1,16.7c0.4-0.3,0.8-0.6,1.2-0.9C43.9,16.1,43.5,16.4,43.1,16.7z"/>
		<path class="st0" d="M38.3,21.7c1.4-1.8,2.9-3.5,4.7-5c-0.2,0.2-0.4,0.4-0.6,0.5c-0.1,0.1-0.2,0.2-0.3,0.3c0,0,0,0,0,0
			c-0.1,0.1-0.1,0.1-0.2,0.2c0,0,0,0-0.1,0c-0.1,0.1-0.2,0.2-0.3,0.3c0,0,0,0-0.1,0c-0.2,0.2-0.4,0.4-0.5,0.5c0,0,0,0,0,0
			c-0.1,0.1-0.2,0.2-0.3,0.3c0,0-0.1,0.1-0.1,0.1c-0.1,0.1-0.2,0.2-0.3,0.3C39.5,20.2,38.9,21,38.3,21.7z"/>
		<path class="st0" d="M37.8,22.4C37.7,22.4,37.8,22.3,37.8,22.4c0.1-0.2,0.3-0.4,0.4-0.5C38.1,22,38,22.2,37.8,22.4z"/>
		<path class="st0" d="M37.5,22.8c0.1-0.1,0.1-0.2,0.2-0.3C37.7,22.6,37.6,22.7,37.5,22.8C37.5,22.8,37.5,22.8,37.5,22.8z"/>
		<path class="st0" d="M37.2,23.3c0.1-0.1,0.1-0.3,0.2-0.4c0,0,0,0,0,0C37.3,23.1,37.3,23.2,37.2,23.3z"/>
		<path class="st0" d="M36.9,23.8c-0.1,0.1,0.2-0.3,0.1-0.2C37,23.7,36.9,23.7,36.9,23.8z"/>
		<path class="st0" d="M36.6,24.2c-0.1,0.1,0.1-0.3,0.1-0.2C36.7,24.1,36.7,24.2,36.6,24.2z"/>
		<path class="st0" d="M36.1,25.2c0.1-0.1,0.1-0.3,0.2-0.3C36.2,25,36.2,25.1,36.1,25.2C36.1,25.2,36.1,25.2,36.1,25.2z"/>
		<path class="st0" d="M35.9,25.6C35.9,25.6,35.9,25.6,35.9,25.6c-0.1,0.2-0.2,0.4-0.3,0.6C35.6,26,35.8,25.8,35.9,25.6z"/>
		<path class="st0" d="M35.2,27.3c0,0.1,0,0.2-0.1,0.2C35.1,27.5,35.1,27.3,35.2,27.3z"/>
		<path class="st0" d="M34.9,28.1c0-0.1,0.1-0.3,0.1-0.4C35,27.8,35,27.9,34.9,28.1z"/>
		<path class="st1" d="M55.1,10.4C55.1,10.4,55.1,10.4,55.1,10.4c0.1,0.1,0.2,0.1,0.3,0.1C55.3,10.5,55.2,10.4,55.1,10.4z"/>
		<path class="st1" d="M56.4,11.2c0.1,0.1,0.2,0.2,0.3,0.3C56.6,11.4,56.5,11.3,56.4,11.2z"/>
		<path class="st1" d="M56.7,14.4c0.1-0.1,0.2-0.2,0.3-0.3C56.9,14.2,56.8,14.3,56.7,14.4z"/>
		<path class="st1" d="M50.1,13.7c-0.1-0.1-0.2-0.2-0.3-0.4C49.9,13.5,50,13.6,50.1,13.7C50.1,13.7,50.1,13.7,50.1,13.7z"/>
		<path class="st1" d="M49.5,10.8c0.1-0.1,0.2-0.2,0.3-0.3C49.7,10.6,49.6,10.7,49.5,10.8z"/>
		<path class="st1" d="M47.3,21.1c0.1-0.1,0.2-0.2,0.3-0.3C47.5,20.9,47.4,21,47.3,21.1z"/>
		<path class="st1" d="M46.3,22.1c0.3-0.3,0.6-0.6,0.9-0.9C46.9,21.5,46.6,21.8,46.3,22.1z"/>
		<path class="st1" d="M46,22.4c0.1-0.1,0.2-0.2,0.3-0.3C46.2,22.2,46.1,22.3,46,22.4z"/>
		<path class="st1" d="M42,40.6c0.2,0.1,0.3,0.3,0.5,0.5C42.3,40.9,42.1,40.7,42,40.6z"/>
		<path class="st1" d="M43.2,41.6c0.1,0.1,0.2,0.1,0.2,0.2C43.3,41.8,43.3,41.7,43.2,41.6C43.2,41.7,43.2,41.7,43.2,41.6
			C43.2,41.7,43.2,41.7,43.2,41.6C43.2,41.6,43.2,41.6,43.2,41.6z"/>
		<path class="st1" d="M36.7,37.9c-0.1-0.1-0.2-0.2-0.4-0.4C36.5,37.6,36.6,37.7,36.7,37.9z"/>
		<path class="st1" d="M35.2,35.8c0-0.1-0.1-0.2-0.1-0.3C35.1,35.6,35.1,35.8,35.2,35.8C35.2,35.9,35.2,35.8,35.2,35.8z"/>
		<path class="st1" d="M35.9,25.6c0.1-0.1,0.1-0.3,0.2-0.4c0,0,0,0,0,0C36,25.4,36,25.5,35.9,25.6C35.9,25.6,35.9,25.6,35.9,25.6z"
			/>
		<path class="st1" d="M37.4,22.9c0-0.1,0.1-0.1,0.1-0.1c0,0,0,0,0.1,0C37.5,22.8,37.5,22.9,37.4,22.9C37.4,23,37.4,23,37.4,22.9z"
			/>
		<path class="st1" d="M40.1,19.5c0.1-0.1,0.2-0.2,0.3-0.3C40.3,19.3,40.2,19.4,40.1,19.5z"/>
		<path class="st1" d="M40.5,19.1c0.1-0.1,0.2-0.2,0.3-0.3C40.7,18.9,40.6,19,40.5,19.1z"/>
		<path class="st1" d="M40.8,18.8c0.2-0.2,0.4-0.4,0.5-0.5C41.2,18.4,41,18.6,40.8,18.8z"/>
		<path class="st1" d="M41.4,18.2c0.1-0.1,0.2-0.2,0.3-0.3C41.7,18,41.6,18.1,41.4,18.2z"/>
		<path class="st1" d="M41.8,17.8c0.1-0.1,0.1-0.1,0.2-0.2C42,17.7,41.9,17.7,41.8,17.8z"/>
		<path class="st1" d="M42.1,17.6c0.1-0.1,0.2-0.2,0.3-0.3C42.3,17.4,42.2,17.5,42.1,17.6z"/>
		<path class="st0" d="M44.2,26.8c0.1-0.1,0.1-0.2,0.2-0.3C44.4,26.5,44.3,26.6,44.2,26.8C44.3,26.7,44.3,26.7,44.2,26.8
			C44.2,26.7,44.2,26.8,44.2,26.8z"/>
		<path class="st0" d="M44.1,27c0-0.1,0.1-0.2,0.1-0.2C44.2,26.9,44.1,26.9,44.1,27C44.1,27,44.1,27,44.1,27z"/>
		<path class="st0" d="M42.9,29c0.1-0.1,0.1-0.2,0.2-0.3C43.1,28.7,43,28.8,42.9,29C43,28.9,43,28.9,42.9,29
			C42.9,28.9,42.9,29,42.9,29z"/>
		<path class="st0" d="M42.8,29.2C42.8,29.2,42.8,29.2,42.8,29.2c0,0.1,0,0.1-0.1,0.2c0,0,0,0.1-0.1,0.1
			C42.7,29.4,42.8,29.3,42.8,29.2z"/>
		<path class="st0" d="M42.5,32.8c0.1-0.1,0.1-0.2,0.2-0.2C42.7,32.7,42.6,32.8,42.5,32.8z"/>
		<path class="st0" d="M42.8,32.5c0.2-0.2,0.4-0.4,0.7-0.7C43.2,32.1,43,32.3,42.8,32.5z"/>
		<path class="st0" d="M43.5,31.9c0.1-0.1,0.1-0.2,0.2-0.2C43.6,31.7,43.6,31.8,43.5,31.9z"/>
		<path class="st0" d="M44.2,31.3c0-0.1,0.1-0.1,0.2-0.2C44.3,31.2,44.2,31.2,44.2,31.3z"/>
		<path class="st0" d="M45.2,30.5c0.1-0.1,0.2-0.2,0.4-0.3C45.5,30.3,45.3,30.4,45.2,30.5z"/>
		<path class="st0" d="M60.7,28.4C60.7,28.4,60.7,28.5,60.7,28.4C60.7,28.4,60.6,28.4,60.7,28.4c0,0,0.1,0,0.2,0.1
			C60.8,28.5,60.7,28.5,60.7,28.4z"/>
		<path class="st1" d="M52.3,24.6c0.1,0,0.2,0,0.2,0C52.4,24.6,52.3,24.6,52.3,24.6z"/>
		<path class="st1" d="M53.9,25c0.2,0,0.3,0.1,0.4,0.1C54.2,25.1,54,25,53.9,25z"/>
		<path class="st1" d="M54.8,25.3c0.2,0.1,0.4,0.1,0.5,0.2C55.2,25.4,55,25.4,54.8,25.3z"/>
		<path class="st1" d="M55.4,25.5c0.2,0.1,0.3,0.1,0.4,0.2C55.7,25.7,55.5,25.6,55.4,25.5z"/>
		<path class="st1" d="M55.8,25.8c0.1,0.1,0.3,0.1,0.4,0.3C56.1,25.9,56,25.9,55.8,25.8z"/>
		<path class="st1" d="M56.3,26c0.1,0,0.2,0.1,0.2,0.1C56.4,26.1,56.3,26.1,56.3,26z"/>
		<path class="st1" d="M56.5,26.1c0.1,0,0.2,0.1,0.2,0.1C56.7,26.2,56.6,26.2,56.5,26.1z"/>
		<path class="st1" d="M56.8,26.3c0.1,0,0.2,0.1,0.2,0.1C56.9,26.3,56.8,26.3,56.8,26.3z"/>
		<path class="st1" d="M57,26.4c0.1,0,0.2,0.1,0.2,0.1C57.1,26.5,57,26.5,57,26.4z"/>
		<path class="st1" d="M57.2,26.5c0.1,0,0.2,0.1,0.2,0.1C57.4,26.6,57.3,26.6,57.2,26.5z"/>
		<path class="st1" d="M57.5,26.6c0.2,0.1,0.3,0.1,0.4,0.3C57.7,26.8,57.6,26.7,57.5,26.6z"/>
		<path class="st1" d="M57.9,26.9c0.1,0,0.2,0.1,0.2,0.1C58.1,27,58,27,57.9,26.9z"/>
		<path class="st1" d="M58.1,27c0.1,0,0.2,0.1,0.2,0.1C58.3,27.1,58.2,27.1,58.1,27z"/>
		<path class="st1" d="M58.4,27.1c0.1,0,0.2,0.1,0.2,0.1C58.5,27.2,58.4,27.2,58.4,27.1z"/>
		<path class="st1" d="M58.6,27.3c0.4,0.2,0.9,0.5,1.3,0.7C59.5,27.8,59,27.5,58.6,27.3z"/>
		<path class="st1" d="M60,28c0.1,0,0.2,0.1,0.2,0.1C60.1,28.1,60,28.1,60,28z"/>
		<path class="st1" d="M60.2,28.1c0.1,0,0.2,0.1,0.2,0.1C60.3,28.2,60.2,28.2,60.2,28.1z"/>
		<path class="st1" d="M60.4,28.3c0.1,0,0.1,0.1,0.2,0.1c0,0.1,0.1,0,0.1,0.1c0,0,0,0-0.1,0c-0.1-0.1-0.3-0.1-0.4-0.2
			C60.3,28.2,60.4,28.4,60.4,28.3C60.5,28.3,60.4,28.3,60.4,28.3z"/>
		<path class="st1" d="M60.2,28.2c-0.1,0-0.2,0-0.2-0.1C60.1,28.2,60.1,28.2,60.2,28.2z"/>
		<path class="st1" d="M59.2,27.9c-0.2,0-0.3-0.1-0.5-0.1C58.9,27.8,59.1,27.9,59.2,27.9z"/>
		<path class="st1" d="M51.5,27.8c0.1,0,0.2-0.1,0.3-0.1C51.7,27.8,51.6,27.8,51.5,27.8z"/>
		<path class="st1" d="M50.6,28c0.1-0.1,0.3-0.1,0.4-0.1C50.9,28,50.7,28,50.6,28z"/>
		<path class="st1" d="M49,28.5c0-0.1,0.1-0.1,0.2-0.1C49.2,28.5,49.1,28.5,49,28.5z"/>
		<path class="st1" d="M48.5,28.7c0.1-0.1,0.2-0.1,0.3-0.1C48.7,28.6,48.6,28.7,48.5,28.7z"/>
		<path class="st1" d="M48.2,28.8c0.1-0.1,0.1-0.1,0.2-0.1C48.3,28.8,48.3,28.8,48.2,28.8z"/>
		<path class="st1" d="M47.6,29.1c0.1-0.1,0.2-0.1,0.3-0.1C47.8,29,47.7,29.1,47.6,29.1z"/>
		<path class="st1" d="M41.4,34.1c0,0,0,0.1,0,0.1c1.6-2.2,3.6-4,6.2-5.1c-0.7,0.4-1.4,0.7-2,1.1c-0.1,0.1-0.3,0.1-0.4,0.3
			c-0.3,0.2-0.6,0.4-0.8,0.6c-0.1,0.1-0.2,0.1-0.2,0.2c-0.2,0.1-0.3,0.3-0.5,0.4c-0.1,0.1-0.2,0.1-0.2,0.2c0,0,0,0,0,0
			c-0.2,0.2-0.4,0.4-0.7,0.7c0,0,0,0,0,0c-0.1,0.1-0.2,0.1-0.2,0.2c-0.3,0.3-0.6,0.7-0.9,1.1c-0.1,0.1-0.2,0.3-0.3,0.3
			C41.3,34.2,41.3,34.2,41.4,34.1C41.3,34.1,41.4,34.1,41.4,34.1z"/>
		<path class="st1" d="M41.4,33.4c0-0.1,0-0.2,0-0.2C41.5,33.2,41.5,33.3,41.4,33.4z"/>
		<path class="st1" d="M41.8,31.7c0-0.1,0-0.2,0.1-0.3C41.9,31.5,41.9,31.6,41.8,31.7z"/>
		<path class="st1" d="M42,31.1c0-0.1,0-0.2,0.1-0.2C42.1,31,42.1,31.1,42,31.1z"/>
		<path class="st1" d="M42.2,30.7c0-0.1,0.1-0.2,0.1-0.3C42.2,30.5,42.2,30.6,42.2,30.7z"/>
		<path class="st1" d="M42.3,30.4c0-0.1,0.1-0.2,0.1-0.2C42.3,30.3,42.3,30.4,42.3,30.4z"/>
		<path class="st1" d="M42.5,29.9c0-0.1,0.1-0.2,0.1-0.2C42.6,29.8,42.5,29.8,42.5,29.9z"/>
		<path class="st1" d="M42.6,29.7c0-0.1,0.1-0.1,0.1-0.2c0,0,0-0.1,0.1-0.1C42.7,29.5,42.7,29.6,42.6,29.7z"/>
		<path class="st1" d="M42.8,29.2c0-0.1,0.1-0.1,0.1-0.2c0,0,0,0,0,0C42.9,29,42.9,29.1,42.8,29.2C42.8,29.2,42.8,29.2,42.8,29.2z"
			/>
		<path class="st1" d="M43,28.9c0-0.1,0.1-0.1,0.1-0.2c0.1-0.1,0.1-0.3,0.2-0.4C43.2,28.5,43.1,28.7,43,28.9z"/>
		<path class="st1" d="M43.3,28.3c0.1-0.2,0.2-0.4,0.3-0.5C43.5,27.9,43.4,28.1,43.3,28.3z"/>
		<path class="st1" d="M43.7,27.6c0.1-0.1,0.2-0.3,0.3-0.4C43.9,27.3,43.8,27.5,43.7,27.6z"/>
		<path class="st1" d="M44,27.2c0-0.1,0.1-0.1,0.1-0.2c0,0,0,0,0,0c0-0.1,0.1-0.1,0.1-0.2c0,0,0,0,0,0c0,0,0,0,0.1,0
			C44.2,26.9,44.1,27.1,44,27.2z"/>
		<path class="st1" d="M44.3,26.7c0.1-0.1,0.1-0.2,0.2-0.3c0.3-0.4,0.6-0.9,1-1.3c0.1-0.1,0.2-0.4,0.4-0.4c0,0-0.1,0-0.1,0
			C45.2,25.3,44.8,26,44.3,26.7z"/>
		<path class="st1" d="M45.9,24.7c0.1,0,0.1,0,0.2,0C46,24.7,46,24.7,45.9,24.7z"/>
		<path class="st1" d="M46.3,24.6c0.1,0,0.1,0,0.2,0C46.5,24.6,46.4,24.6,46.3,24.6z"/>
		<path class="st0" d="M66.6,26.2c0.1-0.3,0.5-0.4,0.9-0.3C67.1,25.8,66.8,26,66.6,26.2z"/>
		<path class="st0" d="M67.5,27.4c0.1,0-0.2,0-0.2,0c-0.2,0-0.6-0.2-0.6-0.4c0,0,0,0,0,0C66.8,27.3,67.1,27.4,67.5,27.4z"/>
		<path class="st0" d="M67.7,27.3c0.2-0.1,0.4-0.2,0.4-0.4C68.1,27.1,67.9,27.3,67.7,27.3z"/>
		<path class="st0" d="M67.9,26c0-0.1,0.2,0.1,0.2,0.2C68,26.1,67.9,26,67.9,26z"/>
		<path class="st1" d="M85.3,26.3c0.1,0,0.2,0.1,0.3,0.2C85.5,26.4,85.4,26.4,85.3,26.3z"/>
		<path class="st1" d="M85.6,26.8c0,0.2-0.2,0.3-0.4,0.3C85.5,27.1,85.6,27,85.6,26.8z"/>
		<path class="st1" d="M85.2,27.1C85.1,27,85,27,85,26.8C85,26.9,85.1,27,85.2,27.1z"/>
		<path class="st1" d="M85,26.6c0-0.1,0.1-0.2,0.2-0.2C85.1,26.4,85,26.5,85,26.6z"/>
		<path class="st0" d="M66.5,27.9c0.5-0.1,1.2,0,1.6,0c0,1.4,0,3,0,4.4c0-1.5,0-3,0-4.4C67.7,27.8,67,27.8,66.5,27.9z"/>
		<path class="st1" d="M66.5,27.9c0.5,0,1.1,0,1.6,0c0,1.5,0,3,0,4.4c0,0,0,0,0,0c-0.5,0-1.1,0-1.6,0c0,0,0,0,0,0
			C66.5,30.8,66.5,29.3,66.5,27.9z M66.6,27.9c0,1.5,0,2.9,0,4.4c0.5,0,1.1,0,1.6,0c0-1.5,0-3,0-4.4C67.6,27.9,67.1,27.9,66.6,27.9
			C66.6,27.9,66.6,27.9,66.6,27.9z"/>
		<path class="st0" d="M75.5,28.3c0.1-0.1,0.2-0.2,0.3-0.3C75.8,28.2,75.7,28.3,75.5,28.3z"/>
		<path class="st0" d="M76,30C76,30,76.1,30.1,76,30c0.1,0,0.1,0.1,0.2,0.1c0,0,0.1,0,0.1,0.1C76.2,30.1,76.1,30.1,76,30z"/>
		<path class="st0" d="M76.6,30.3C76.6,30.3,76.6,30.3,76.6,30.3C76.6,30.3,76.6,30.3,76.6,30.3c0.1,0.1,0.2,0.1,0.3,0.1
			C76.7,30.4,76.6,30.4,76.6,30.3z"/>
		<path class="st0" d="M75.2,32.1c0,0,0.1,0.1,0.1,0.1c0.1,0,0.2,0.1,0.2,0.1C75.4,32.3,75.3,32.2,75.2,32.1z"/>
		<path class="st0" d="M77.4,32.1c0.1-0.1,0.2-0.2,0.3-0.3C77.6,32,77.5,32.1,77.4,32.1z"/>
		<path class="st1" d="M77.2,27.9c0.2,0,0.4,0.1,0.5,0.2c0,0.1-0.1,0.2-0.1,0.4c-0.1,0-0.2-0.1-0.3-0.2c0.1,0,0.2,0.1,0.3,0.1
			c0-0.1,0.1-0.2,0.1-0.3C77.5,28,77.3,28,77.2,27.9z"/>
		<path class="st1" d="M76.2,28.3c0.1-0.1,0.1-0.1,0.3-0.1c0,0,0,0,0,0C76.4,28.2,76.3,28.3,76.2,28.3z"/>
		<path class="st1" d="M75.8,28.8c0-0.3,0.2-0.5,0.4-0.5C76,28.4,75.8,28.5,75.8,28.8C75.8,28.8,75.8,28.8,75.8,28.8z"/>
		<path class="st1" d="M75.8,29.3c0.1,0.2,0.3,0.3,0.5,0.4C76.1,29.6,75.9,29.5,75.8,29.3z"/>
		<path class="st1" d="M76.4,29.7c0.2,0.1,0.3,0.1,0.5,0.2C76.7,29.9,76.5,29.8,76.4,29.7z"/>
		<path class="st1" d="M76.9,30c0.1,0,0.2,0.1,0.3,0.1C77,30,76.9,30,76.9,30z"/>
		<path class="st1" d="M77.2,30.1c0.3,0.2,0.6,0.4,0.6,0.8C77.7,30.5,77.4,30.3,77.2,30.1z"/>
		<path class="st1" d="M77.8,31.5c0,0.1-0.1,0.2-0.1,0.3c-0.1,0.1-0.2,0.2-0.3,0.3c-0.1,0-0.2,0.1-0.3,0.2
			C77.4,32.1,77.6,31.9,77.8,31.5z"/>
		<path class="st1" d="M75.3,32.2c0,0-0.1,0-0.1-0.1c0-0.1,0.1-0.2,0.1-0.3C75.3,32,75.3,32,75.3,32.2
			C75.3,32.1,75.3,32.1,75.3,32.2z"/>
		<path class="st1" d="M75.3,31.8C75.3,31.8,75.4,31.8,75.3,31.8c0.2,0,0.3,0.1,0.4,0.1C75.6,31.9,75.5,31.8,75.3,31.8
			C75.4,31.8,75.4,31.8,75.3,31.8z"/>
		<path class="st1" d="M76.9,32c0.2-0.1,0.4-0.3,0.5-0.5C77.3,31.7,77.1,31.9,76.9,32z"/>
		<path class="st1" d="M77.3,30.8c-0.1-0.2-0.2-0.3-0.5-0.4c0-0.1-0.1-0.1-0.2-0.1C76.9,30.4,77.2,30.6,77.3,30.8z"/>
		<path class="st1" d="M76.6,30.3c-0.1,0-0.2-0.1-0.3-0.1c0,0-0.1,0-0.1-0.1C76.3,30.2,76.5,30.2,76.6,30.3
			C76.6,30.3,76.6,30.3,76.6,30.3z"/>
		<path class="st1" d="M76.1,30.1C76.1,30.1,76,30,76.1,30.1c-0.4-0.2-0.7-0.4-0.7-0.9C75.5,29.6,75.8,29.9,76.1,30.1z"/>
		<path class="st1" d="M75.4,28.7c0-0.1,0-0.2,0.1-0.2C75.4,28.6,75.4,28.7,75.4,28.7z"/>
		<path class="st1" d="M75.5,28.5c0-0.1,0.1-0.1,0.1-0.2c0.1-0.1,0.2-0.2,0.3-0.3c0.1,0,0.2-0.1,0.4-0.1
			C75.9,28,75.6,28.2,75.5,28.5z"/>
		<path class="st0" d="M85.1,28c0.1-0.1,0.3,0,0.4,0C85.3,28,85.2,27.9,85.1,28z"/>
		<path class="st0" d="M85.1,32.3c0.1,0,0.3,0,0.4,0c0-1.5,0-2.9,0-4.4c0,1.4,0,2.9,0,4.4C85.4,32.4,85.1,32.4,85.1,32.3z"/>
		<path class="st1" d="M85.1,28c0.1,0,0.3,0,0.4,0c0,0,0,0,0,0c0,1.5,0,2.9,0,4.4c-0.1,0-0.3,0-0.4,0C85.1,30.9,85.1,29.4,85.1,28z
			 M85.1,28c0,1.4,0,2.9,0,4.3c0.1,0,0.3,0,0.4,0c0-1.4,0-2.9,0-4.3C85.4,28,85.2,28,85.1,28C85.1,28,85.1,28,85.1,28z"/>
		<path class="st1" d="M94.2,29.6c0.1,0,0.1,0.1,0.1,0.2c0.4-0.6,0.8-1.2,1.3-1.8c0.1,0,0.3,0,0.5,0c-0.1,0.1-0.1,0.2-0.2,0.3
			c0-0.1,0.1-0.2,0.2-0.3c-0.1,0-0.3,0-0.4,0c-0.4,0.6-0.8,1.2-1.3,1.8C94.3,29.7,94.2,29.7,94.2,29.6z"/>
		<path class="st1" d="M95.8,31.9c-0.4-0.6-0.9-1.2-1.3-1.8c0.4-0.6,0.9-1.2,1.3-1.8c-0.4,0.6-0.9,1.2-1.3,1.8
			C95,30.7,95.4,31.3,95.8,31.9z"/>
		<path class="st1" d="M95.8,31.9c0.1,0.1,0.1,0.2,0.2,0.3c0,0,0.1,0.1,0.1,0.1c-0.2,0-0.4,0-0.5,0c-0.3-0.5-0.7-1-1.1-1.6
			c0,0,0,0,0,0c0.4,0.5,0.7,1.1,1.2,1.6c0.1,0,0.3,0,0.4,0C96,32.2,95.9,32.1,95.8,31.9z"/>
		<path class="st1" d="M94.2,30.5c0-0.1,0-0.1,0.1-0.1c0,0.1,0.1,0.2,0.2,0.3c-0.1,0-0.1-0.1-0.1-0.1c0-0.1-0.1,0,0-0.1
			C94.2,30.4,94.2,30.5,94.2,30.5z"/>
		<path class="st1" d="M94.2,29.6c-0.4-0.5-0.7-1.1-1.2-1.6c-0.1,0-0.3,0-0.4,0c0.5,0.7,1,1.4,1.5,2.1c-0.5,0.8-1.1,1.5-1.6,2.2
			c0.1,0,0.3,0,0.4,0c0.4-0.6,0.8-1.2,1.2-1.8c-0.4,0.6-0.8,1.2-1.2,1.8c-0.2,0-0.3,0-0.5,0c0.5-0.8,1.1-1.5,1.6-2.3
			c-0.5-0.7-1-1.4-1.4-2c0,0-0.1,0,0-0.1c0.2,0,0.3,0,0.5,0C93.4,28.5,93.8,29,94.2,29.6z"/>
		<path class="st0" d="M52.8,9.7C52.8,9.8,52.9,9.8,52.8,9.7c-0.1,0.1-0.2,0-0.3,0c0,0,0,0,0,0C52.6,9.7,52.7,9.7,52.8,9.7z"/>
		<path class="st0" d="M56.6,27.5c0.1,0,0.2,0,0.3,0c-0.1,0-0.3,0-0.4,0C56.5,27.5,56.6,27.5,56.6,27.5z"/>
		<path class="st0" d="M76.7,28.2c0.1,0,0.2,0,0.2,0c-0.1,0-0.3,0-0.4,0c0,0,0,0,0,0c0,0,0,0,0,0C76.6,28.2,76.7,28.2,76.7,28.2z"/>
		<path class="st0" d="M75.8,28.8c0,0.1,0,0.2,0,0.4c0,0,0-0.1,0-0.1C75.8,29,75.8,28.9,75.8,28.8C75.8,28.8,75.8,28.8,75.8,28.8
			C75.8,28.8,75.8,28.8,75.8,28.8z"/>
		<path class="st0" d="M34.3,31.1c0,0.1,0,0.2,0,0.4c0,0,0,0,0,0c0-0.2,0-0.4,0-0.5C34.3,31,34.3,31,34.3,31.1z"/>
		<path class="st0" d="M39.9,34.5c0,0,0-0.1,0-0.2c0,0.1,0,0.3,0,0.3C39.9,34.6,39.9,34.6,39.9,34.5z"/>
		<path class="st0" d="M39.9,35.4c0,0.1,0,0.3,0,0.5c0-0.1,0-0.3,0-0.4C39.9,35.4,39.9,35.4,39.9,35.4z"/>
		<path class="st0" d="M53.5,27.5c0,0,0.2,0,0.3,0c0.1,0,0.1,0,0.2,0C53.9,27.5,53.7,27.5,53.5,27.5z"/>
		<path class="st0" d="M34.3,32.3c0,0.1,0,0.3,0,0.4c0,0,0,0.1,0,0.1C34.3,32.6,34.2,32.5,34.3,32.3C34.3,32.3,34.3,32.3,34.3,32.3z
			"/>
	</g>
</g>
<g>
	<path class="st5" d="M1.4,31.4L1.4,31.4c0.1-0.3,0.2-0.6,0.3-0.9c0.1-0.3,0.2-0.6,0.3-0.9c0-0.1,0-0.2,0.1-0.3c0-0.1,0-0.2,0.1-0.3
		c-0.1,0-0.1,0-0.2,0.1c0,0-0.1,0.1-0.2,0.1c0,0,0,0,0,0c0,0,0,0,0,0c0,0,0,0-0.1,0c0,0-0.1,0-0.1,0c0,0,0,0,0-0.1c0,0,0,0,0,0
		c0,0,0,0,0,0c0,0,0,0,0,0c0,0,0-0.1,0.1-0.1c0,0,0.1,0,0.1-0.1c0-0.1,0-0.1,0.1-0.1c0.1,0,0.1-0.1,0.1-0.1c0,0-0.1,0-0.1,0l-0.1,0
		c0,0,0,0-0.1,0c0.1-0.1,0.1-0.2,0.3-0.2c0.1-0.1,0.2-0.1,0.4-0.1c0.3,0,0.7-0.1,1,0c0,0,0,0,0,0c0,0,0,0,0.1,0c0,0,0.1,0,0.1,0
		c0,0,0.1,0,0.1,0c0.1,0,0.2,0.1,0.3,0.1c0,0,0,0,0,0c0,0,0,0,0,0c0.1,0.1,0.3,0.2,0.2,0.4c0,0.1-0.1,0.3-0.2,0.4
		c-0.1,0.1-0.2,0.2-0.3,0.3l-0.1,0c0,0,0,0-0.1,0.1c-0.1,0-0.2,0.1-0.3,0.2C3.4,29.9,3.2,30,3.1,30c-0.1,0.1-0.2,0.1-0.3,0.1
		c0,0-0.1,0-0.1,0c0,0-0.1,0-0.1,0c0,0,0,0-0.1,0c0,0.1-0.1,0.2-0.1,0.3c-0.1,0.1-0.1,0.2-0.1,0.3l0,0.1c0,0.1-0.1,0.1-0.1,0.2
		l0,0.1c0,0,0,0.1,0,0.1h0c0,0,0,0,0,0c0,0.1,0,0.2-0.1,0.2c0,0,0,0-0.1,0l0,0c0,0,0,0,0,0c0,0,0,0-0.1,0c0,0,0,0-0.1,0c0,0,0,0,0,0
		c0,0,0,0,0,0c-0.1,0.1-0.1,0-0.2,0C1.5,31.6,1.5,31.5,1.4,31.4L1.4,31.4z M3.1,29.4c0.1,0,0.2-0.1,0.3-0.2c0.1-0.2,0.1-0.3-0.1-0.4
		c-0.1,0-0.3,0-0.4,0.1c0,0.1-0.1,0.1-0.1,0.2c0,0.1,0,0.2,0,0.2c0,0,0,0.1,0,0.1c0,0,0,0.1,0,0.1C2.9,29.5,3,29.5,3.1,29.4z
		 M3.4,29.6c-0.1,0-0.1,0-0.1,0.1C3.4,29.7,3.4,29.7,3.4,29.6z M3.5,29.6C3.5,29.6,3.5,29.6,3.5,29.6C3.5,29.6,3.5,29.6,3.5,29.6
		C3.5,29.6,3.5,29.6,3.5,29.6z M4.2,28.7L4.2,28.7C4.2,28.7,4.2,28.7,4.2,28.7C4.2,28.7,4.2,28.7,4.2,28.7L4.2,28.7z"/>
	<path class="st5" d="M6.6,28.2C6.6,28.2,6.6,28.2,6.6,28.2L6.6,28.2c0.3,0.1,0.4,0.2,0.5,0.4l0,0l0,0c0.1,0.1,0.1,0.2,0.2,0.3
		c0,0,0,0.1,0,0.2c0,0.1,0,0.2,0.1,0.3c0,0.1,0,0.1,0,0.2c0,0.1,0,0.2-0.1,0.3c0,0.1,0,0.1,0,0.2c0,0,0,0.1,0,0.1
		c0,0.1-0.1,0.2-0.1,0.2l-0.1,0.2c-0.1,0.1-0.1,0.1-0.2,0.2c-0.1,0.2-0.3,0.3-0.5,0.4c-0.1,0.1-0.2,0.1-0.3,0.2
		c-0.2,0.1-0.3,0.1-0.5,0.1h0c0,0,0,0,0,0c-0.1,0-0.2,0-0.3,0c-0.3,0-0.5-0.1-0.6-0.3c-0.2-0.1-0.3-0.3-0.4-0.5c0-0.1,0-0.2,0-0.3
		c0-0.2,0-0.4,0-0.6c0-0.1,0-0.2,0-0.3c0-0.1,0.1-0.1,0.1-0.2c0-0.1,0.1-0.2,0.1-0.2c0-0.1,0.1-0.1,0.1-0.2c0,0,0,0,0.1-0.1
		c0-0.1,0.1-0.2,0.2-0.2c0.1-0.1,0.2-0.2,0.2-0.2l0.1-0.1c0.1-0.1,0.2-0.1,0.3-0.2c0.1,0,0.3-0.1,0.5-0.1
		C6.3,28.2,6.4,28.2,6.6,28.2L6.6,28.2z M4.9,31.3C4.8,31.3,4.8,31.2,4.9,31.3c-0.1-0.1-0.1-0.1-0.1-0.1c0-0.1-0.1-0.1-0.1-0.2
		c0-0.1-0.1-0.1-0.1-0.2C4.5,31,4.7,31.2,4.9,31.3z M4.9,29.1C5,29.1,5,29.1,4.9,29.1C5,29,4.9,29,4.9,29.1z M6.4,29.2
		c0-0.1-0.1-0.1-0.1-0.1c0,0-0.1,0-0.2,0c-0.1,0-0.1,0-0.2,0c-0.2,0.1-0.4,0.2-0.6,0.4c-0.1,0.1-0.2,0.3-0.3,0.4c0,0,0,0,0,0.1
		c0,0.1,0,0.1,0,0.1l0,0c0,0,0,0,0,0.1c0,0,0,0.1,0,0.1c0,0,0,0.1,0,0.1c0,0.1,0,0.2,0.1,0.3c0.1,0.1,0.2,0.1,0.3,0.1s0.3,0,0.4-0.1
		c0.1,0,0.2-0.1,0.3-0.2l0.1-0.1c0-0.1,0-0.1,0.1-0.1c0,0,0,0,0,0c0,0,0,0,0,0c0.1-0.2,0.1-0.3,0.2-0.5C6.5,29.6,6.5,29.3,6.4,29.2z
		 M7.1,29.7C7.1,29.7,7.1,29.8,7.1,29.7C7.1,29.8,7.1,29.7,7.1,29.7z"/>
	<path class="st5" d="M7.8,31.3L7.8,31.3c0-0.2,0-0.5,0-0.7c0-0.2,0-0.5,0-0.7c0-0.3,0-0.5,0.1-0.7c0-0.2,0-0.5,0-0.7c0,0,0,0,0,0
		c0,0,0,0,0,0c0,0,0.1,0,0.1,0l0,0c0,0,0,0,0,0c0,0,0.1-0.1,0.1,0c0,0,0,0.1,0,0.1c0,0,0,0.1,0,0.1c0,0,0-0.1,0-0.1c0,0,0-0.1,0-0.1
		c0,0,0,0,0.1,0c0,0,0,0,0.1,0c0,0,0,0,0,0c0,0,0,0,0,0c0,0,0,0,0-0.1c0,0,0,0,0-0.1l0.1,0c0,0,0,0,0.1,0c0,0.1,0,0.2,0,0.4
		c0,0.1,0,0.2,0,0.3c0,0.2,0,0.3,0,0.5c0,0.2,0,0.3,0,0.5l0.1-0.2l0.1-0.2c0.2-0.3,0.4-0.6,0.5-0.9c0.1-0.1,0.1-0.1,0.2-0.2l0.1-0.3
		c0,0,0,0,0,0c0,0,0,0,0,0c0,0,0,0,0,0h0c0,0,0-0.1,0-0.1c0,0,0,0,0.1,0c0,0,0,0,0.1,0c0,0,0,0,0,0c0,0,0,0,0,0c0,0,0,0,0,0
		c0,0,0,0,0,0l0.1,0c0,0,0,0,0.1,0c0,0,0,0.1,0,0.1l0,0.1c0,0.1,0,0.2,0,0.3c0,0.1,0,0.2,0,0.3c0,0.3,0,0.6,0,0.9l0.1-0.2l0.1-0.2
		c0.1-0.2,0.3-0.4,0.4-0.7l0.2-0.3c0.1-0.1,0.1-0.2,0.2-0.3l0,0c0,0,0.1,0,0.1,0c0,0,0,0,0,0.1c0,0,0.1,0,0.1,0c0,0,0,0.1,0,0.1
		c0,0,0,0.1,0,0.1c0,0,0.1-0.1,0.1-0.2c0-0.1,0.1-0.2,0.1-0.2c0,0,0,0,0,0c0,0,0,0,0.1,0c0,0,0,0,0,0c0,0,0,0,0,0c0,0,0,0,0.1,0
		c0,0,0,0,0,0c0,0,0,0,0.1,0.1c0,0,0,0,0,0.1c-0.1,0.1-0.2,0.3-0.2,0.4c-0.1,0.2-0.2,0.3-0.2,0.4c-0.1,0.2-0.2,0.4-0.4,0.6
		c-0.1,0.2-0.3,0.4-0.3,0.6c0,0,0,0.1-0.1,0.1c0,0,0,0.1,0,0.1c0,0,0,0,0,0.1c0,0.1-0.1,0.2-0.1,0.3l-0.2,0.3c0,0,0,0,0,0h0v0l0,0
		l-0.1,0c0,0,0,0-0.1,0c-0.1,0-0.1,0.1-0.1,0.1l0,0c0,0-0.1,0-0.1,0c0,0,0,0,0,0l0,0c0,0,0,0,0,0l0,0c0,0,0,0,0,0c0,0-0.1,0-0.1,0
		l-0.1,0l0-0.1c0,0,0,0-0.1,0l0,0c0,0,0,0,0,0c0,0,0,0-0.1,0l0,0l0,0v0c0,0,0,0,0,0h0c0-0.2,0-0.3,0-0.5c0-0.2,0-0.3,0-0.5
		c0,0.1-0.1,0.2-0.1,0.2c0,0,0,0.1-0.1,0.1c0,0,0,0.1,0,0.1c0,0,0,0,0,0.1C9,31,8.9,31,8.9,31.1c-0.1,0.1-0.1,0.2-0.2,0.3
		c0,0,0,0,0,0h0l0,0l0,0l0,0c0,0,0,0-0.1,0c-0.1,0-0.1,0.1-0.1,0.1l0,0c0,0-0.1,0-0.1,0c0,0,0,0,0,0c0,0,0,0,0,0c0,0,0,0,0,0
		c0,0,0,0,0,0c0,0-0.1,0-0.1,0l-0.1,0l0-0.1c0,0,0,0-0.1,0l0,0c0,0,0,0,0,0c0,0,0,0-0.1,0L7.8,31.3L7.8,31.3
		C7.8,31.4,7.8,31.4,7.8,31.3L7.8,31.3z M8.5,30.1C8.5,30,8.5,30,8.5,30.1C8.4,30.1,8.5,30.1,8.5,30.1C8.5,30.2,8.5,30.1,8.5,30.1z
		 M8.5,29.9C8.5,29.9,8.5,29.9,8.5,29.9C8.5,29.8,8.5,29.8,8.5,29.9C8.4,29.9,8.5,30,8.5,29.9C8.5,29.9,8.5,29.9,8.5,29.9z
		 M8.5,29.1C8.5,29.1,8.5,29.2,8.5,29.1c0,0.1,0,0.1,0,0.1C8.5,29.2,8.5,29.2,8.5,29.1z M8.6,29C8.6,29,8.6,29,8.6,29
		C8.5,29,8.5,29,8.6,29C8.5,29,8.5,29.1,8.6,29C8.5,29.1,8.6,29.1,8.6,29z M8.6,28.9C8.5,28.9,8.5,28.9,8.6,28.9
		C8.6,28.9,8.5,28.9,8.6,28.9C8.5,28.9,8.5,29,8.6,28.9z M9.2,30.2C9.2,30.2,9.2,30.2,9.2,30.2C9.2,30.2,9.2,30.1,9.2,30.2
		C9.2,30.2,9.2,30.2,9.2,30.2C9.2,30.3,9.2,30.2,9.2,30.2z M9.3,30c0,0-0.1,0.1,0,0.1L9.3,30C9.3,30.1,9.3,30,9.3,30L9.3,30z
		 M9.9,30.1C9.9,30,9.9,30,9.9,30.1C9.9,30.1,9.9,30.1,9.9,30.1C9.9,30.2,9.9,30.1,9.9,30.1z M9.9,29.9C9.9,29.9,9.9,29.9,9.9,29.9
		C9.9,29.8,9.9,29.8,9.9,29.9C9.9,29.9,9.9,30,9.9,29.9C9.9,29.9,9.9,29.9,9.9,29.9z M9.9,29.3C9.9,29.3,9.9,29.3,9.9,29.3
		C10,29.3,10,29.2,9.9,29.3L9.9,29.3z M10.6,30.2C10.6,30.2,10.6,30.2,10.6,30.2C10.6,30.2,10.6,30.1,10.6,30.2
		C10.6,30.2,10.6,30.2,10.6,30.2C10.6,30.3,10.6,30.2,10.6,30.2z M10.7,30C10.7,30,10.7,30,10.7,30C10.7,30,10.7,30,10.7,30
		C10.7,30,10.7,30.1,10.7,30C10.7,30.1,10.7,30,10.7,30z M11.1,29.3C11.1,29.3,11.1,29.4,11.1,29.3c-0.1,0.1-0.1,0.1-0.1,0.1
		C11.1,29.4,11.1,29.4,11.1,29.3z M11.2,29.2C11.2,29.2,11.2,29.2,11.2,29.2C11.2,29.3,11.2,29.3,11.2,29.2z M11.3,29.1
		C11.3,29.1,11.3,29.1,11.3,29.1C11.2,29.1,11.2,29.2,11.3,29.1C11.2,29.2,11.2,29.2,11.3,29.1z"/>
	<path class="st5" d="M14.1,28.9L14.1,28.9c-0.1,0-0.2,0-0.2,0.1c0,0,0,0,0,0c0,0,0,0,0,0c0,0,0,0,0,0c0,0,0,0,0,0c0,0,0,0,0,0.1
		c0,0,0,0,0,0.1c0,0-0.1,0-0.2,0h-0.2c-0.1,0-0.1,0-0.2,0h-0.2c0,0-0.1,0-0.1,0c-0.1,0-0.1,0-0.2,0c0,0,0,0.1,0,0.1c0,0,0,0.1,0,0.1
		c0,0.1-0.1,0.1-0.1,0.2c0,0,0,0,0,0.1c0.3,0,0.7,0,1,0c0,0,0,0-0.1,0c0,0-0.1,0-0.1,0c0,0,0,0.1-0.1,0.1c0,0,0,0.1-0.1,0.1
		c0,0,0,0,0,0.1c0,0,0,0,0,0.1c0,0,0,0,0,0c0,0,0,0,0,0c0,0,0,0,0,0c0,0,0,0,0.1,0c0,0,0,0.1,0,0.1l-0.1,0c0,0,0,0,0,0c0,0,0,0,0,0
		c-0.1,0-0.3,0-0.4,0c-0.2,0-0.3,0-0.5,0c0,0.1-0.1,0.1-0.1,0.2c0,0.1,0,0.2-0.1,0.2c0,0,0,0.1,0.1,0c0,0,0.1,0,0.1,0
		c0.2,0,0.3,0,0.5,0c0.2,0,0.3,0,0.5,0c-0.1,0-0.2,0-0.2,0.1c0,0,0,0.1,0.1,0.1c0,0,0.1,0,0.1,0c0,0-0.1,0.1-0.1,0.1l-0.1,0
		c0,0,0,0,0.1,0c0,0,0.1,0,0.1,0c0,0,0,0,0,0c0,0,0,0.1,0,0.1c0,0,0,0,0,0c0,0,0,0,0,0c0,0-0.1,0-0.1,0c0,0-0.1,0-0.1,0.1
		c0,0,0,0,0,0c0,0,0.1,0,0.1,0c0,0,0,0,0,0c-0.1,0-0.3,0.1-0.4,0.1c-0.1,0-0.2,0-0.3,0c-0.1,0-0.2,0-0.3,0c-0.1,0-0.2,0-0.3,0
		c-0.1,0-0.2,0-0.3,0c0,0,0-0.1,0-0.1c-0.1,0-0.1,0.1,0,0.1c-0.1,0-0.2,0-0.2,0c0,0,0,0-0.1,0c0,0,0,0-0.1,0c0-0.2,0.1-0.4,0.2-0.7
		l0.1-0.3c0.1-0.2,0.1-0.4,0.2-0.6c0-0.1,0.1-0.2,0.1-0.3c0.1-0.4,0.2-0.8,0.4-1.2c0,0,0,0,0,0c0,0,0,0,0,0c0,0,0,0,0,0c0,0,0,0,0,0
		c0,0,0,0,0,0c0,0,0.1,0,0.1-0.1c0,0,0,0,0,0c0,0,0,0,0,0.1c0,0,0,0,0.1,0s0.1,0,0.1,0c0,0,0,0,0,0c0,0,0,0,0,0
		c0.1,0.1,0.3,0.1,0.5,0.1c0.2,0,0.4,0,0.6,0c0,0,0,0,0,0c0,0,0,0,0,0c0,0,0.1,0,0.1,0s0.1,0,0.1,0.1c0,0,0,0,0,0.1c0,0,0,0,0,0
		c0,0,0,0.1,0,0.1s0,0,0,0.1C14,28.8,14,28.9,14.1,28.9C14.1,28.9,14.1,28.9,14.1,28.9z M11.9,31.3C11.9,31.4,11.9,31.3,11.9,31.3
		L11.9,31.3C11.9,31.3,11.9,31.3,11.9,31.3L11.9,31.3z M12,31.2C12,31.2,12,31.2,12,31.2C11.9,31.2,11.9,31.2,12,31.2
		C11.9,31.2,11.9,31.2,12,31.2z M12.3,30.5C12.3,30.5,12.3,30.5,12.3,30.5L12.3,30.5z M12.4,28.9C12.4,28.9,12.4,29,12.4,28.9
		c0,0.1,0,0.1,0,0.1c0,0,0,0,0,0C12.4,29,12.4,28.9,12.4,28.9L12.4,28.9C12.4,28.9,12.4,28.9,12.4,28.9
		C12.4,28.9,12.4,28.9,12.4,28.9L12.4,28.9z M12.6,29.5C12.6,29.5,12.6,29.5,12.6,29.5C12.6,29.4,12.6,29.4,12.6,29.5
		C12.6,29.5,12.5,29.5,12.6,29.5C12.6,29.5,12.6,29.5,12.6,29.5z M13.1,29.7C13.1,29.7,13.1,29.7,13.1,29.7c0.1,0,0.1,0,0.1,0
		C13.2,29.7,13.1,29.7,13.1,29.7z M13.3,29.7C13.3,29.7,13.3,29.7,13.3,29.7C13.3,29.7,13.3,29.7,13.3,29.7
		C13.4,29.7,13.4,29.7,13.3,29.7C13.4,29.7,13.4,29.7,13.3,29.7C13.4,29.7,13.3,29.7,13.3,29.7z"/>
	<path class="st5" d="M15.9,31.2c0,0-0.1-0.1-0.1-0.2c-0.1-0.1-0.1-0.3-0.2-0.4c0-0.1-0.1-0.1-0.1-0.2c0,0-0.1-0.1-0.1-0.1
		c0,0,0-0.1-0.1-0.1c0,0-0.1,0.1-0.1,0.1c0,0.1,0,0.2-0.1,0.3c0,0.1-0.1,0.2-0.1,0.3h0l0,0.1l0,0.1l-0.1,0.4l0,0c0,0,0,0,0,0.1
		c0,0-0.1,0-0.1,0c0,0-0.1,0-0.1,0c0,0,0,0,0,0c0,0,0,0,0,0c0,0-0.1,0-0.1,0c0,0-0.1,0-0.1,0c0,0-0.1,0-0.1,0c0,0,0,0,0,0
		c0,0,0,0,0,0c0.1-0.3,0.2-0.6,0.3-0.9c0.1-0.3,0.2-0.6,0.3-0.9c0-0.1,0-0.2,0.1-0.3c0-0.1,0.1-0.2,0.1-0.3c-0.1,0-0.1,0-0.2,0.1
		c0,0-0.1,0.1-0.2,0.1c0,0,0,0,0,0c0,0,0,0,0,0c0,0-0.1,0-0.1,0s-0.1,0-0.1,0c0,0,0,0,0-0.1c0,0,0,0,0,0c0,0,0,0,0,0c0,0,0,0,0,0
		c0,0,0-0.1,0.1-0.1c0,0,0-0.1,0.1-0.1c0-0.1,0-0.1,0.1-0.1c0.1,0,0.1-0.1,0.1-0.1c0,0-0.1,0-0.1,0l-0.1,0c0,0,0,0-0.1,0
		c0.1-0.1,0.1-0.2,0.3-0.3c0.1-0.1,0.2-0.1,0.4-0.1c0.3-0.1,0.7-0.1,1,0l0,0c0,0,0.1,0,0.1,0c0,0,0,0,0,0c0.1,0,0.2,0,0.3,0.1
		c0,0,0.1,0,0.1,0.1c0,0,0,0,0,0c0,0,0,0,0,0c0.1,0.1,0.3,0.2,0.2,0.5c0,0.1-0.1,0.3-0.2,0.4c-0.1,0.1-0.2,0.2-0.3,0.3
		c0,0,0,0-0.1,0c0,0,0,0-0.1,0.1c-0.2,0-0.3,0.1-0.5,0.1l0,0l0,0l0.2,0.3c0.1,0.2,0.3,0.5,0.4,0.7c0.1,0.1,0.1,0.2,0.2,0.3
		c0,0-0.1,0.1-0.1,0.1c0,0,0,0,0,0c0,0,0,0,0,0c0,0,0,0,0,0c0,0,0,0,0,0c0,0,0,0,0,0c0,0,0,0,0,0c0,0,0,0,0,0c0,0,0,0,0,0
		c0,0,0,0,0,0c0,0,0,0,0,0c0,0,0,0,0,0c0,0-0.1,0-0.1,0c0,0,0,0.1,0,0l0,0c0,0,0,0,0,0c0,0,0,0,0,0c-0.1-0.1-0.1-0.1-0.1-0.2
		C16,31.4,16,31.3,15.9,31.2C16,31.3,15.9,31.2,15.9,31.2L15.9,31.2z M14.4,31.3C14.4,31.3,14.4,31.2,14.4,31.3
		C14.3,31.3,14.3,31.3,14.4,31.3C14.4,31.4,14.4,31.3,14.4,31.3z M14.4,31.1C14.4,31.1,14.4,31.1,14.4,31.1
		C14.4,31.1,14.4,31.1,14.4,31.1C14.4,31.1,14.4,31.2,14.4,31.1C14.4,31.1,14.4,31.1,14.4,31.1z M14.6,30.6
		C14.6,30.6,14.6,30.6,14.6,30.6C14.5,30.6,14.5,30.6,14.6,30.6C14.5,30.6,14.5,30.6,14.6,30.6C14.6,30.6,14.6,30.6,14.6,30.6z
		 M14.7,30.4C14.6,30.4,14.6,30.4,14.7,30.4c-0.1,0.1-0.1,0.1,0,0.1C14.7,30.5,14.7,30.4,14.7,30.4z M14.7,30.3
		C14.7,30.3,14.7,30.3,14.7,30.3L14.7,30.3C14.7,30.2,14.7,30.2,14.7,30.3L14.7,30.3z M14.8,30.1C14.8,30.1,14.8,30.1,14.8,30.1
		C14.7,30.1,14.7,30.2,14.8,30.1C14.8,30.2,14.8,30.2,14.8,30.1z M15.8,29.4c0.1,0,0.2-0.1,0.3-0.2c0.1-0.2,0.1-0.3-0.1-0.4
		c-0.1,0-0.3,0-0.4,0.1c0,0.1,0,0.1-0.1,0.2c0,0.1,0,0.2,0,0.2c0,0,0,0.1,0,0.1c0,0,0,0.1,0,0.1C15.6,29.5,15.7,29.5,15.8,29.4z
		 M16,30.5C16,30.5,16,30.5,16,30.5C16,30.5,16,30.6,16,30.5C16,30.5,16,30.5,16,30.5z M16,29.7c0,0,0.1,0,0.1-0.1
		C16.1,29.7,16,29.7,16,29.7z M16,30.6L16,30.6C16.1,30.6,16.1,30.6,16,30.6C16,30.6,16,30.6,16,30.6z M16.1,30.8
		C16.1,30.8,16.2,30.9,16.1,30.8C16.2,30.8,16.1,30.7,16.1,30.8C16.1,30.8,16.1,30.8,16.1,30.8z M16.2,29.6
		C16.2,29.6,16.2,29.6,16.2,29.6C16.2,29.7,16.2,29.6,16.2,29.6C16.2,29.6,16.2,29.6,16.2,29.6z M16.2,31L16.2,31
		C16.2,31,16.2,31,16.2,31L16.2,31z M16.5,31.5C16.5,31.4,16.5,31.4,16.5,31.5L16.5,31.5C16.5,31.4,16.5,31.4,16.5,31.5
		C16.5,31.4,16.5,31.4,16.5,31.5C16.5,31.4,16.5,31.5,16.5,31.5z M16.9,28.7C16.9,28.7,16.9,28.7,16.9,28.7L16.9,28.7
		C16.9,28.7,16.9,28.7,16.9,28.7C17,28.7,17,28.7,16.9,28.7z"/>
	<path class="st5" d="M19.7,28.9L19.7,28.9c-0.1,0-0.2,0-0.2,0.1c0,0,0,0,0,0c0,0,0,0,0,0c0,0,0,0,0,0c0,0,0,0,0,0c0,0,0,0,0,0.1
		c0,0,0,0,0,0.1c0,0-0.1,0-0.2,0h-0.2c-0.1,0-0.1,0-0.2,0h-0.2c0,0-0.1,0-0.1,0c-0.1,0-0.1,0-0.2,0c0,0,0,0.1,0,0.1c0,0,0,0.1,0,0.1
		c0,0.1-0.1,0.1-0.1,0.2c0,0,0,0,0,0.1c0.3,0,0.7,0,1,0c0,0,0,0-0.1,0c0,0-0.1,0-0.1,0c0,0,0,0.1-0.1,0.1c0,0,0,0.1-0.1,0.1
		c0,0,0,0,0,0.1c0,0,0,0,0,0.1c0,0,0,0,0,0c0,0,0,0,0,0c0,0,0,0,0,0c0,0,0,0,0.1,0c0,0,0,0.1,0,0.1l-0.1,0c0,0,0,0,0,0c0,0,0,0,0,0
		c-0.1,0-0.3,0-0.4,0c-0.2,0-0.3,0-0.5,0c0,0.1-0.1,0.1-0.1,0.2c0,0.1,0,0.2-0.1,0.2c0,0,0,0.1,0.1,0c0,0,0.1,0,0.1,0
		c0.2,0,0.3,0,0.5,0c0.2,0,0.3,0,0.5,0c-0.1,0-0.2,0-0.2,0.1c0,0,0,0.1,0.1,0.1c0,0,0.1,0,0.1,0c0,0-0.1,0.1-0.1,0.1l-0.1,0
		c0,0,0,0,0.1,0c0,0,0.1,0,0.1,0c0,0,0,0,0,0c0,0,0,0.1,0,0.1c0,0,0,0,0,0c0,0,0,0,0,0c0,0-0.1,0-0.1,0c0,0-0.1,0-0.1,0.1
		c0,0,0,0,0,0c0,0,0.1,0,0.1,0c0,0,0,0,0,0c-0.1,0-0.3,0.1-0.4,0.1c-0.1,0-0.2,0-0.3,0c-0.1,0-0.2,0-0.3,0c-0.1,0-0.2,0-0.3,0
		c-0.1,0-0.2,0-0.3,0c0,0,0-0.1,0-0.1c-0.1,0-0.1,0.1,0,0.1c-0.1,0-0.2,0-0.2,0c0,0,0,0-0.1,0c0,0,0,0-0.1,0c0-0.2,0.1-0.4,0.2-0.7
		l0.1-0.3c0.1-0.2,0.1-0.4,0.2-0.6c0-0.1,0.1-0.2,0.1-0.3c0.1-0.4,0.2-0.8,0.4-1.2c0,0,0,0,0,0c0,0,0,0,0,0c0,0,0,0,0,0c0,0,0,0,0,0
		c0,0,0,0,0,0c0,0,0.1,0,0.1-0.1c0,0,0,0,0,0c0,0,0,0,0,0.1c0,0,0,0,0.1,0c0,0,0.1,0,0.1,0c0,0,0,0,0,0c0,0,0,0,0,0
		c0.1,0.1,0.3,0.1,0.5,0.1c0.2,0,0.4,0,0.6,0c0,0,0,0,0,0c0,0,0,0,0,0c0,0,0.1,0,0.1,0c0,0,0.1,0,0.1,0.1c0,0,0,0,0,0.1c0,0,0,0,0,0
		c0,0,0,0.1,0,0.1s0,0,0,0.1C19.7,28.8,19.7,28.9,19.7,28.9C19.8,28.9,19.8,28.9,19.7,28.9z M17.6,31.3
		C17.6,31.4,17.6,31.3,17.6,31.3L17.6,31.3C17.6,31.3,17.6,31.3,17.6,31.3L17.6,31.3z M17.6,31.2C17.6,31.2,17.6,31.2,17.6,31.2
		C17.6,31.2,17.6,31.2,17.6,31.2C17.6,31.2,17.6,31.2,17.6,31.2z M18,30.5C17.9,30.5,18,30.5,18,30.5L18,30.5z M18.1,28.9
		C18.1,28.9,18.1,29,18.1,28.9c0,0.1,0,0.1,0,0.1c0,0,0,0,0,0C18.1,29,18.1,28.9,18.1,28.9L18.1,28.9C18.1,28.9,18.1,28.9,18.1,28.9
		C18.1,28.9,18.1,28.9,18.1,28.9L18.1,28.9z M18.3,29.5C18.3,29.5,18.3,29.5,18.3,29.5C18.3,29.4,18.3,29.4,18.3,29.5
		C18.2,29.5,18.2,29.5,18.3,29.5C18.3,29.5,18.3,29.5,18.3,29.5z M18.8,29.7C18.8,29.7,18.8,29.7,18.8,29.7c0.1,0,0.1,0,0.1,0
		C18.8,29.7,18.8,29.7,18.8,29.7z M19,29.7C19,29.7,18.9,29.7,19,29.7C19,29.7,19,29.7,19,29.7C19,29.7,19,29.7,19,29.7
		C19.1,29.7,19.1,29.7,19,29.7C19,29.7,19,29.7,19,29.7z"/>
	<path class="st5" d="M20.4,31.5L20.4,31.5c-0.1-0.1-0.1-0.1,0-0.1c0,0,0,0,0.1,0c0,0,0,0,0,0c-0.1,0-0.1-0.1-0.2-0.1
		c0,0,0-0.1,0-0.1c0,0-0.1,0-0.1,0.1c0,0-0.1,0-0.1,0c0,0,0,0-0.1,0c-0.1,0-0.1-0.1-0.1-0.2c0-0.1,0-0.1,0.1-0.2
		c0-0.1,0-0.1,0.1-0.2c0.1-0.3,0.2-0.6,0.3-0.9c0.1-0.3,0.2-0.6,0.3-0.8c-0.1,0-0.1,0-0.2,0c0,0-0.1,0-0.2,0.1c0,0,0,0,0,0
		c0,0,0,0,0,0c0,0-0.1,0-0.1,0c0,0-0.1,0-0.1,0c0,0,0,0,0-0.1c0,0,0-0.1,0-0.1c0,0,0,0,0,0c0,0,0-0.1,0.1-0.1c0,0,0.1,0,0.1-0.1
		c0-0.1,0-0.1,0.1-0.1c0.1,0,0.1-0.1,0.1-0.1c0,0-0.1,0-0.1,0c0,0-0.1,0.1-0.1,0.1c0.1-0.1,0.1-0.2,0.3-0.2c0.1-0.1,0.2-0.1,0.4-0.1
		l0.3,0h0c0.1,0,0.2,0,0.4,0c0.5,0,0.9,0.2,1.1,0.4c0.2,0.3,0.3,0.6,0.1,1c-0.2,0.5-0.5,0.9-0.9,1.2C21.5,31.2,21,31.5,20.4,31.5
		L20.4,31.5z M20.3,31C20.3,31,20.3,31,20.3,31C20.3,31,20.3,31,20.3,31C20.3,31.1,20.3,31.1,20.3,31z M20.3,30.9
		C20.3,30.9,20.3,30.9,20.3,30.9C20.3,30.9,20.3,30.9,20.3,30.9C20.3,30.9,20.3,31,20.3,30.9C20.3,30.9,20.3,30.9,20.3,30.9z
		 M20.4,29.9C20.4,29.9,20.4,29.9,20.4,29.9C20.4,29.9,20.4,29.9,20.4,29.9C20.4,30,20.4,29.9,20.4,29.9z M20.5,29.7
		C20.5,29.7,20.5,29.7,20.5,29.7C20.5,29.7,20.5,29.7,20.5,29.7c-0.1,0-0.1,0.1,0,0.1C20.5,29.7,20.5,29.7,20.5,29.7z M20.7,29
		C20.6,29,20.6,29,20.7,29c-0.1,0.1,0,0.1,0,0.1C20.7,29.1,20.7,29,20.7,29z M20.7,28.9C20.7,28.9,20.7,28.9,20.7,28.9
		C20.7,28.8,20.7,28.8,20.7,28.9L20.7,28.9z M20.8,28.7C20.8,28.7,20.8,28.7,20.8,28.7C20.7,28.7,20.7,28.7,20.8,28.7
		C20.7,28.8,20.7,28.8,20.8,28.7C20.8,28.8,20.8,28.7,20.8,28.7z M20.8,30.8c0.2-0.1,0.4-0.2,0.5-0.4c0.2-0.2,0.3-0.4,0.5-0.6
		c0.1-0.2,0.2-0.4,0.2-0.6c0-0.1-0.1-0.2-0.2-0.3c-0.1-0.1-0.3-0.1-0.4-0.1l0,0c-0.3,0.6-0.4,1.1-0.6,1.7L20.8,30.8z"/>
	<path class="st5" d="M26.6,29.7C26.6,29.7,26.5,29.8,26.6,29.7c0,0.1,0,0.1,0,0.1c0.1,0,0.1,0,0.1,0.1l0.1,0.1c0,0,0,0,0,0.1
		c0,0,0,0,0,0.1c0,0,0,0.1,0,0.1c0,0,0,0,0,0c0,0,0,0,0,0c0,0,0,0.1-0.1,0.1c0,0,0,0.1,0,0.1c-0.1,0-0.1,0.1-0.1,0.1
		c0,0.1,0,0.1-0.1,0.2c0,0,0,0,0,0s0,0,0,0c-0.1,0-0.1,0.1-0.2,0.2c-0.1,0.1-0.1,0.1-0.2,0.1c0,0,0,0,0,0l0,0c0,0-0.1,0-0.1,0
		c0,0,0,0,0,0c0,0,0,0,0,0c0,0-0.1,0-0.1,0c-0.1,0-0.1,0-0.2,0c0,0,0,0,0,0.1c0,0,0,0,0,0c0,0-0.1,0,0,0c0,0,0,0,0,0
		c-0.3,0-0.5,0-0.7-0.2c0,0,0,0,0,0c0,0,0,0,0,0c0,0,0,0,0,0c0,0,0,0,0,0c0,0,0,0.1-0.1,0.1c0,0,0,0.1-0.1,0.1c0,0-0.1,0-0.1,0
		c0,0-0.1,0-0.1,0c0,0,0,0,0,0c0,0,0,0,0,0c0,0-0.1,0-0.1,0c0,0-0.1,0-0.1,0c0,0,0,0-0.1,0c0,0-0.1,0-0.1,0c0,0,0,0,0,0
		c0.1-0.3,0.2-0.6,0.3-0.9c0.1-0.3,0.2-0.6,0.3-0.9c0-0.1,0-0.2,0.1-0.3c0-0.1,0-0.2,0-0.3c-0.1,0-0.1,0-0.2,0.1
		c0,0-0.1,0.1-0.2,0.1c0,0,0,0,0,0c0,0,0,0,0,0c0,0-0.1,0-0.1,0c0,0-0.1,0-0.1,0c0,0,0,0,0-0.1c0,0,0,0,0,0c0,0,0,0,0,0c0,0,0,0,0,0
		c0,0,0.1-0.1,0.1-0.1c0,0,0-0.1,0.1-0.1c0-0.1,0-0.1,0.1-0.1c0.1,0,0.1-0.1,0.1-0.1c0,0-0.1,0-0.1,0c0,0-0.1,0.1-0.1,0.1
		c0.1-0.1,0.1-0.2,0.3-0.3c0.1-0.1,0.2-0.1,0.4-0.1c0.3,0,0.7-0.1,1,0c0,0,0,0,0,0c0,0,0,0,0.1,0c0,0,0.1,0,0.1,0c0,0,0.1,0,0.1,0
		c0.1,0,0.2,0.1,0.3,0.1c0,0,0,0,0,0c0,0,0,0,0,0c0.1,0.1,0.2,0.2,0.2,0.5c0,0.1-0.1,0.3-0.2,0.4C26.8,29.5,26.7,29.6,26.6,29.7
		C26.6,29.7,26.6,29.7,26.6,29.7z M24.4,31.3C24.4,31.4,24.4,31.4,24.4,31.3C24.4,31.4,24.4,31.4,24.4,31.3L24.4,31.3z M24.5,31.1
		C24.5,31.1,24.4,31.1,24.5,31.1c-0.1,0.1,0,0.1,0,0.1C24.5,31.2,24.5,31.1,24.5,31.1z M24.6,31C24.5,30.9,24.5,31,24.6,31
		C24.6,31,24.6,31,24.6,31z M24.6,30.9C24.6,30.8,24.6,30.8,24.6,30.9C24.6,30.8,24.6,30.8,24.6,30.9C24.5,30.9,24.5,30.9,24.6,30.9
		C24.5,30.9,24.6,30.9,24.6,30.9C24.6,30.9,24.6,30.9,24.6,30.9z M25.9,30.6c0.1-0.1,0.1-0.3,0-0.4c-0.3-0.1-0.5,0-0.7,0.2
		c0,0.1,0,0.2-0.1,0.3c0,0.1-0.1,0.2-0.1,0.3c0.1,0,0.3,0,0.4-0.1C25.6,30.9,25.8,30.8,25.9,30.6z M26.1,28.9c-0.1,0-0.3,0-0.4,0.1
		c0,0.1-0.1,0.1-0.1,0.2c0,0.1,0,0.2,0,0.2l0,0.1c0,0,0,0.1,0,0.1c0.1,0,0.2-0.1,0.4-0.1c0.1,0,0.2-0.1,0.3-0.2
		C26.3,29.1,26.2,28.9,26.1,28.9z M26.2,29.7c-0.1,0-0.1,0-0.1,0.1C26.1,29.8,26.1,29.7,26.2,29.7z M26.3,29.6
		C26.2,29.6,26.2,29.7,26.3,29.6C26.2,29.7,26.2,29.7,26.3,29.6C26.2,29.7,26.2,29.7,26.3,29.6z M26.4,30.4
		C26.4,30.3,26.4,30.3,26.4,30.4C26.4,30.4,26.4,30.4,26.4,30.4C26.4,30.4,26.4,30.4,26.4,30.4z M26.8,30.3
		C26.8,30.3,26.8,30.3,26.8,30.3C26.8,30.3,26.8,30.3,26.8,30.3C26.8,30.3,26.8,30.3,26.8,30.3z M27,28.7L27,28.7L27,28.7
		C26.9,28.7,27,28.8,27,28.7C27,28.7,27,28.7,27,28.7z"/>
	<path class="st5" d="M28.5,30C28.5,30,28.5,30.1,28.5,30l0,0.1c0,0.1-0.1,0.2-0.1,0.3c0,0.1-0.1,0.3-0.1,0.4c0,0,0,0,0,0
		c0,0-0.1,0.1-0.1,0.1l0,0.2c0,0,0,0.1,0,0.1c0,0.1,0,0.1-0.1,0.2c0,0,0,0-0.1,0.1c0,0-0.1,0-0.1,0c0,0,0,0-0.1,0c0,0,0,0,0-0.1
		c0,0,0,0,0-0.1c0,0,0,0,0,0c0,0,0,0,0,0l0,0.1c0,0,0,0,0,0c0,0,0,0,0,0c0,0,0-0.1,0-0.1c0,0,0,0,0,0c-0.1,0-0.1,0-0.1,0.1
		c0,0,0,0.1-0.1,0.1c0,0,0,0,0-0.1c0,0,0,0,0-0.1c0,0-0.1,0.1-0.1,0.1c0,0,0,0-0.1,0c0,0-0.1,0-0.1,0c0-0.2,0.1-0.3,0.2-0.5
		c0.1-0.2,0.1-0.4,0.2-0.5h0l0-0.1c0-0.1,0-0.1,0.1-0.2c0,0,0-0.1,0-0.1l-0.2-0.4c0-0.1-0.1-0.2-0.1-0.3c0-0.1,0-0.1,0-0.1
		c0,0,0-0.1,0-0.1c0,0,0,0,0,0c0,0,0-0.1,0-0.1c0-0.1,0-0.1,0-0.2l0-0.1l0,0c0,0,0,0,0,0c0,0,0,0,0,0c0-0.1,0-0.2,0-0.3
		c0,0,0.1,0,0.1,0c0,0,0,0,0,0.1h0l0.1,0c0,0,0,0,0,0l0,0l0.1,0.1c0,0,0,0.1,0,0.1c0-0.1,0-0.1,0.1-0.2l0,0c0,0,0,0,0.1,0l0,0l0,0
		c0,0.1,0.2,0.1,0.3,0.2l0,0l0,0l0,0.2l0,0.2l0,0.2c0,0.1,0,0.2,0.1,0.2c0-0.1,0.1-0.1,0.1-0.2c0.1-0.1,0.2-0.2,0.3-0.4
		c0.1-0.1,0.2-0.3,0.3-0.4c0.1-0.1,0.1-0.1,0.2-0.1l0,0c0,0,0,0,0,0c0,0,0,0,0,0c0,0,0.1,0,0.1,0l0,0l0,0c0,0,0,0.1,0,0.1
		c0,0,0,0,0,0l0,0c0,0,0,0,0.1,0c0,0,0,0,0,0c0,0,0.1,0,0.1,0l0,0l0,0c0,0,0,0.1,0,0.1c0,0-0.1,0.1-0.1,0.1l-0.4,0.5
		c-0.1,0.1-0.2,0.2-0.2,0.3l-0.2,0.2c-0.1,0.1-0.1,0.1-0.1,0.1L28.5,30z M28.1,30.7C28.1,30.7,28.1,30.7,28.1,30.7
		c-0.1,0.1-0.1,0.1,0,0.1C28.1,30.8,28.1,30.7,28.1,30.7z M28.2,30.5C28.2,30.5,28.2,30.5,28.2,30.5C28.2,30.6,28.2,30.6,28.2,30.5
		C28.2,30.6,28.2,30.6,28.2,30.5z M28.2,30.4C28.3,30.4,28.3,30.4,28.2,30.4C28.2,30.4,28.2,30.4,28.2,30.4
		C28.2,30.5,28.2,30.5,28.2,30.4C28.2,30.5,28.2,30.5,28.2,30.4z M28.8,29.3C28.7,29.3,28.7,29.3,28.8,29.3
		c-0.1,0.1-0.1,0.1-0.1,0.1C28.7,29.4,28.8,29.3,28.8,29.3z M28.9,29.2L28.9,29.2C28.9,29.1,28.8,29.2,28.9,29.2
		C28.8,29.2,28.9,29.2,28.9,29.2z M29,29.1C29,29.1,29,29.1,29,29.1C28.9,29.1,28.9,29.1,29,29.1C28.9,29.1,28.9,29.1,29,29.1z"/>
</g>
</svg>
