<svg xmlns="http://www.w3.org/2000/svg" xmlns:xlink="http://www.w3.org/1999/xlink" width="207" height="185" viewBox="0 0 207 185">
  <defs>
    <polygon id="illustration_finished_poster-a" points="0 0 206 0 206 174 0 174"/>
  </defs>
  <g fill="none" fill-rule="evenodd">
    <mask id="illustration_finished_poster-b" fill="#fff">
      <use xlink:href="#illustration_finished_poster-a"/>
    </mask>
    <path fill="#000" d="M177.440782,123.387599 C175.45978,128.533031 173.305279,137.463162 172.709684,142.153291 C172.393759,144.784214 173.108473,146.018186 173.86462,146.520053 C174.26341,146.765813 174.408425,146.6494 174.514596,146.196685 C175.51934,141.2401 177.414886,134.113069 178.688942,129.601439 C179.644484,126.23065 179.258642,124.236116 178.466241,123.229795 C178.093347,122.722754 177.647945,122.826232 177.440782,123.387599 M171.1948,147.829047 C170.707966,148.66463 170.79601,149.921885 171.686813,150.819554 C172.471445,151.613746 173.69889,151.577529 174.04071,150.860945 C174.348865,150.193514 174.374761,149.03715 173.714427,148.214501 C172.922026,147.210767 171.64797,147.042616 171.1948,147.829047 M145.068883,142.618941 C143.800007,142.831071 141.461648,146.103555 140.068473,150.131427 C138.708962,154.110147 139.099983,157.762912 140.723627,157.424022 C142.308429,157.095481 143.766342,154.071343 144.988608,150.040884 C146.482775,145.009278 146.260074,142.422334 145.068883,142.618941 M143.32353,160.683572 C138.802185,164.980486 138.328299,170.92011 139.242408,171.727236 C139.946764,172.368799 142.145288,167.427735 143.32353,160.683572 M120.527768,151.370573 C119.862255,153.784192 118.891176,156.350441 117.870896,158.888233 C119.025832,161.081961 120.587328,162.460803 121.822541,161.744219 C123.547177,160.743072 121.449646,154.557688 120.527768,151.370573 M96.0591605,154.10756 C94.8006418,154.361081 92.4545143,157.594761 91.0691079,161.664024 C89.7095969,165.640157 90.0928495,169.251531 91.6750614,168.922989 C93.2987059,168.584099 94.9171713,165.694483 95.9478101,161.581242 C97.2322243,156.554809 97.2399929,153.874735 96.0591605,154.10756 M106.515742,158.029367 C108.786773,158.813211 110.032344,156.691917 110.840282,154.883643 C111.733675,152.886523 112.127285,150.584142 111.459183,150.273709 C110.45185,149.787363 107.673268,152.992587 106.678883,157.268806 C106.614145,157.540435 106.549406,157.809477 106.515742,158.029367 M168.654457,145.15156 C169.040299,145.529253 169.180134,146.473488 168.887516,147.774721 C168.330763,150.289231 166.274665,152.943435 163.933717,153.494454 C160.505159,154.301581 159.109395,151.99144 159.453804,148.209328 C159.852594,143.946044 162.392937,138.839416 161.592768,138.686786 C161.152546,138.622113 159.075731,140.301039 157.159468,143.72874 C155.388219,146.869291 154.523311,151.155857 153.684299,155.35188 C153.609202,155.752857 153.404628,155.972747 152.956637,155.693357 C152.386937,155.344119 151.985557,154.749122 151.757677,153.929061 C150.483621,155.659727 148.676119,157.186024 146.570819,158.557104 C145.625636,164.481206 144.271304,171.564259 141.308865,173.62088 C140.576023,174.135681 139.7396,174.205529 138.768521,173.328555 C137.63689,172.31706 136.577766,171.077914 136.78234,168.519426 C137.098265,164.615727 139.988197,161.340656 143.618738,158.870124 C143.815544,157.887085 143.9502,156.834199 144.136647,155.812356 C143.240665,157.258458 142.028758,158.435518 140.534591,158.787342 C138.737447,159.209014 137.375346,158.267366 136.676169,156.567744 C135.772418,158.733016 133.977864,160.417117 132.084906,160.862071 C130.197128,161.307026 128.954147,160.559399 128.358552,159.090014 C127.182898,161.037983 125.331374,162.398716 123.223484,162.988539 C120.903252,163.619754 118.500155,163.547319 116.53987,161.371699 C116.472541,161.291504 116.415571,161.200961 116.350833,161.115592 C115.030165,163.451602 112.715112,165.425441 110.073776,166.082524 C107.497179,166.731847 105.472156,165.870395 104.273196,164.11386 C103.441952,166.209285 101.735443,168.196058 99.8450749,168.53236 C97.6387828,168.925576 96.261145,167.973581 95.8157433,166.077351 C94.9042236,167.994276 93.4411308,169.913789 91.5455841,170.358743 C87.7933339,171.243478 85.8615335,166.294654 88.0289824,160.678398 C90.1109764,155.253576 92.9128637,152.679567 94.9327086,152.206156 C96.5848381,151.815528 97.6853946,152.873588 97.99614,154.376602 C99.1976887,149.712342 100.971527,143.50885 101.937427,141.11334 C102.20674,140.453669 102.582224,140.409691 102.905917,140.885689 C103.786362,142.080857 104.073801,143.842566 103.089774,147.265093 C101.968502,151.1869 99.6663963,158.748538 98.6564739,163.49558 C98.1178486,166.090285 98.4700266,167.751103 99.8191794,167.34754 C101.212354,166.946564 102.535612,164.55364 103.364266,161.927892 C102.99914,160.47403 102.962887,158.779581 103.405699,156.932503 C104.801463,151.117053 108.424236,148.051524 110.713394,148.747412 C111.868331,149.114758 112.735828,149.546778 113.590378,150.28147 C114.543331,151.078249 114.802285,153.613454 113.592968,156.065877 C112.184255,158.95032 109.729367,160.63442 106.362959,159.002058 C105.946042,163.011822 107.512717,165.32455 109.680166,164.941682 C112.318912,164.455337 114.219637,161.969283 115.45744,159.441839 C114.996501,158.083693 115.017217,156.598787 115.74229,155.644205 C116.133311,155.129403 116.493258,155.214772 116.684884,155.848574 C116.801414,156.161594 116.8791,156.484962 116.99304,156.797982 C118.114313,154.151538 119.315861,151.104118 119.999501,148.773281 C119.828591,147.153854 120.053882,146.292402 120.719395,145.327472 C121.418572,144.31339 122.306786,143.933109 122.757366,144.212499 C123.254559,144.517758 123.158746,145.009278 122.85059,146.059577 C122.747008,146.341554 122.68227,146.610596 122.589046,146.931377 C123.179462,150.705729 124.689167,153.66778 125.222613,156.479788 C125.512642,158.068172 125.629171,159.827294 124.406906,161.136287 C126.242894,159.910076 127.333092,158.031954 127.975299,156.15642 C127.983068,155.972747 127.977888,155.802009 127.996015,155.613162 C128.30935,152.433807 129.850129,147.050377 130.849694,144.603127 C131.09829,144.034 131.352065,143.84774 131.758624,144.134891 C132.51736,144.636758 133.250201,146.292402 132.755598,148.535283 C132.325734,150.509121 131.279558,153.649671 130.906664,155.864095 C130.489747,158.427757 130.942917,159.98251 132.214384,159.597056 C134.011528,159.090014 135.601508,155.905486 136.155671,152.842544 C136.168618,152.795979 136.199693,152.80374 136.21782,152.764936 C136.313633,151.642202 136.55964,150.44186 137.033526,149.187192 C139.081856,143.772718 141.919997,141.188361 143.978685,140.704603 C145.591971,140.324322 146.695118,141.384969 146.987736,142.805201 C147.282944,141.884249 147.552257,141.056427 147.795674,140.27517 C147.984711,139.636195 148.378322,139.501674 148.748626,139.796585 C149.5229,140.378648 150.255741,142.036879 149.711937,144.248716 C149.07232,146.952073 147.681734,152.426046 146.90746,156.735895 C149.085267,154.919861 150.566487,152.977066 151.643737,151.080836 C152.011453,148.129132 153.663582,142.318856 155.225078,138.228897 C155.403756,137.719269 155.735218,137.683052 156.071859,138.029702 C156.913461,138.896329 157.2009,140.27517 157.097319,141.829923 C158.45424,139.468043 160.676069,136.606883 162.056297,136.493058 C163.436524,136.381819 165.150803,138.063333 164.638073,140.396756 C164.208208,142.368008 162.934152,145.816404 162.499109,148.129132 C162.001916,150.713489 162.690735,152.552807 164.122753,152.131135 C165.756756,151.660311 167.111088,148.535283 167.975996,145.353341 C168.095115,144.944604 168.377375,144.877344 168.654457,145.15156 M134.51131,142.97594 C134.902331,142.287812 134.928226,141.134035 134.156542,140.207909 C133.3745,139.242979 132.090085,139.036024 131.60843,139.874194 C131.124185,140.709777 131.207051,141.967031 132.108212,142.900918 C132.960172,143.808936 134.120288,143.664067 134.51131,142.97594 M55.6001142,88.523353 C61.4783806,87.7679653 66.4270006,83.292552 68.9569857,78.5092923 C71.6889554,73.6846416 73.0173918,68.4952317 73.9470384,63.3756693 C74.8637372,58.2354113 75.3194971,53.0925664 75.6069365,47.973004 C75.9202714,42.8534416 76.2284272,37.7545748 76.4278222,32.6712296 C76.6582917,27.5956453 76.8421493,22.5252348 77.259066,17.560889 C77.4739982,15.0825966 77.7743854,12.6301736 78.2586303,10.3174455 C78.6729574,8.06421721 79.6777008,5.72303278 80.4882283,5.19529619 C80.7963841,5.06853592 81.0605176,5.01162315 81.7881797,5.22375257 C82.5236104,5.53935975 83.3781602,6.13953079 84.2068145,6.84835347 C85.8563544,8.35912884 87.4178499,10.2269025 88.844689,12.2136756 C91.7087254,16.1975695 94.3371133,20.478962 96.7324422,24.9026364 C101.598197,33.7111811 105.940863,42.8767241 110.135926,52.0965929 C114.302503,61.3345704 118.443185,70.6061781 122.436263,79.9424594 L122.449211,79.9709158 C122.723702,80.6124779 123.464312,80.9203242 124.116877,80.6616298 C124.78239,80.3977615 125.106083,79.6449608 124.84195,78.9827031 C121.076752,69.5274224 117.083674,60.1704455 113.196767,50.751382 C109.250301,41.3607749 105.156231,32.0167327 100.458797,22.8925809 C98.1463336,18.3162767 95.5852739,13.8382765 92.6461406,9.48703647 C91.9029413,8.40310689 91.1519733,7.32176425 90.2715281,6.28439966 C89.4739484,5.21857868 88.4925109,4.21484437 87.4981258,3.21628394 C86.4234647,2.24876684 85.250401,1.29677141 83.6526519,0.572427057 C83.2797575,0.383580137 82.7463112,0.290450149 82.2905514,0.168863775 C81.8270229,0.0395165698 81.3401885,-0.0406786977 80.7678991,0.021407961 C79.6725217,-0.00446148014 78.6004502,0.419797354 77.6241918,0.937186177 C75.8477642,2.16598463 74.9724981,3.72849887 74.3277014,5.10734009 C73.693263,6.51722463 73.2815254,7.88313112 72.942295,9.22575511 C72.3156252,11.9084162 71.8339699,14.5212297 71.4274114,17.1159347 C70.6168839,22.3001707 70.1663031,27.4093853 69.6561628,32.4746219 C68.7575908,42.5973342 68.5659645,52.5389604 67.6052434,62.1598055 C67.0277749,66.9327174 66.2353743,71.7030424 64.2854471,75.793001 C63.2832933,77.8082305 62.0429014,79.6656563 60.424436,81.0444976 C60.0463624,81.4351261 59.6320353,81.7688419 59.1736859,82.0352972 C58.7153365,82.2965785 58.3269048,82.7104896 57.8089958,82.8657062 C56.7913047,83.1916612 55.8564791,83.7763105 54.7352063,83.8642666 C50.4184352,84.7567624 45.5656285,83.7892453 41.0235671,82.0947969 C36.4478416,80.3848268 32.0482052,77.9815557 27.806531,75.3273511 C21.0089761,71.1287408 14.7345093,66.071265 8.71640745,60.7214646 C9.06081689,60.7602688 9.40004725,60.8094207 9.74445669,60.8482249 C11.9196742,61.1069193 14.1000709,61.3371573 16.2985943,61.4561567 C18.4971178,61.5906778 20.6801039,61.7950464 22.886396,61.8778286 C25.1004567,61.8830025 27.2989802,62.0123497 29.5363468,61.8933503 L29.7694058,61.8804156 C30.3468743,61.8467853 30.8518355,61.4277004 30.9631859,60.8327032 C31.0926632,60.1368152 30.6343138,59.4667967 29.9351367,59.3348626 C25.6287239,58.530323 21.3145424,57.7516528 16.9874132,57.0635256 L10.5031933,55.9899438 L7.26108333,55.4518595 L5.64261789,55.1854042 L4.8320904,55.0508831 L4.40222598,54.9810356 C4.16398787,54.9525792 3.93092885,54.9318837 3.68751165,54.9448184 C1.71945768,54.9836226 0.0025895447,56.6961796 0,58.6751918 C0.0440222598,59.8186211 0.220111299,60.05662 0.313334908,60.6671388 L0.655154808,62.2710441 L2.02243441,68.6944264 C2.91064824,72.9809928 3.85065296,77.2546244 4.87611266,81.5127344 C5.01335853,82.0741013 5.5157302,82.4931863 6.11909412,82.4983602 C6.82862937,82.503534 7.40868738,81.9318194 7.41386647,81.2204098 L7.41645601,81.0031065 C7.44753055,76.532867 7.17044927,72.1221273 6.58521216,67.7760612 C6.31330997,65.7194406 6.0077437,63.6705809 5.66333425,61.629482 C11.9403906,67.6441271 18.5074759,73.4130124 25.809992,78.3359671 C30.0905094,81.2411053 34.5756008,83.9289402 39.4776089,85.975213 C44.3485425,87.969747 49.8280191,89.4520659 55.6001142,88.523353 M197.628872,88.6190699 C196.359995,88.8182646 193.879211,91.9510539 192.325485,95.9556434 C190.800243,99.8748638 191.030712,103.499172 192.628461,103.237891 C194.262464,102.963675 196.002638,100.146493 197.204187,96.0772298 C198.698354,91.1102971 198.817473,88.430223 197.628872,88.6190699 M152.811622,100.195645 C152.042527,102.57822 150.965277,105.105665 149.841414,107.596892 C150.905717,109.837186 152.405064,111.278113 153.671351,110.615856 C155.434831,109.687143 153.598844,103.418977 152.811622,100.195645 M111.091467,118.899251 C111.109594,117.882582 111.031908,116.84263 110.894662,115.898396 C110.648655,114.38762 109.99868,113.2028 109.734546,113.381299 C109.361652,113.621885 109.410853,115.846657 109.545509,116.788304 C109.755262,118.099885 110.286119,118.883729 111.091467,118.899251 M111.073341,120.122875 C109.869202,120.226353 108.955093,119.853833 108.279222,118.971685 C107.03883,124.818179 106.539048,130.139523 107.699164,131.14067 C108.823026,132.149579 110.801438,125.953847 111.073341,120.122875 M178.981561,98.5141312 C181.216338,99.3936922 182.549953,97.3267238 183.432988,95.5520801 C184.406657,93.5937635 184.89867,91.3094918 184.243516,90.9706021 C183.256899,90.4428655 180.346251,93.5316768 179.173187,97.7613304 C179.10068,98.0277857 179.022994,98.2968278 178.981561,98.5141312 M205.848087,97.7923737 C205.177395,100.24221 203.066916,102.880893 200.803654,103.186152 C198.584414,103.486238 197.248209,102.47733 196.883083,100.565578 C195.893877,102.441112 194.350509,104.295951 192.436835,104.665884 C190.562005,105.022883 189.199904,103.967409 188.586182,102.146201 C187.159343,104.363212 184.808036,106.17666 182.200365,106.70957 C179.414015,107.286459 177.363095,106.137855 176.291024,104.083822 C175.413168,106.321528 173.522801,108.370388 171.376068,108.781712 C167.957869,109.436209 166.624254,107.120894 167.168058,103.34913 C167.753295,99.1479325 170.482675,94.2379125 169.762782,93.9999137 C169.130933,93.7826104 165.22331,97.3965713 163.602255,101.711594 C162.600101,104.391668 161.63938,107.527044 161.139598,110.194184 C161.046374,110.592573 160.774472,110.727094 160.476674,110.491682 C160.085653,110.191597 159.749012,109.775099 159.552207,109.123189 C158.33771,110.507204 156.778805,111.500591 155.020504,111.914502 C152.70804,112.442238 150.348965,112.2715 148.492262,110.108815 C147.47716,112.139566 145.669658,113.665863 143.820723,114.020274 C141.932945,114.382446 140.728807,113.598602 140.187592,112.131805 C139.182848,113.872818 137.561793,115.347376 135.829388,115.678505 C132.369756,116.338176 131.072394,113.973709 131.572177,110.209705 C132.149645,105.967117 134.904921,100.969141 134.10993,100.785468 C133.672297,100.700099 131.530744,102.29107 129.472056,105.635988 C127.566151,108.69893 126.527743,112.946692 125.510052,117.103912 C125.416829,117.502301 125.204486,117.711843 124.766853,117.414345 C124.33181,117.119433 124.008116,116.674479 123.788005,116.100177 C122.762545,117.393649 121.400445,118.314601 120.015039,118.581057 C118.01591,118.963924 116.788466,118.063668 116.299042,116.428719 C115.579148,117.510062 114.551099,118.674187 113.29776,119.401118 C113.435005,123.635945 112.510538,128.494226 111.026729,131.306235 C109.967605,133.277486 108.980989,133.637071 107.559329,132.814423 C106.378496,132.154752 104.850665,130.801781 104.635733,127.260254 C104.032369,117.973125 110.405238,100.601795 113.629221,92.9884185 C113.86228,92.4373994 114.398316,92.3753128 114.657271,92.8332019 C115.410828,94.1215 115.623171,95.8935568 114.442338,99.1970844 C113.302939,102.283309 111.376317,107.415806 109.99868,112.108522 C111.637861,112.299956 112.544202,113.727949 113.020678,116.420958 C113.106133,116.865913 113.152745,117.321215 113.204536,117.817908 C114.481182,116.581349 115.636118,114.418664 116.314579,112.232696 C116.923122,109.040407 118.461312,104.46669 119.460876,102.285896 C119.735368,101.724529 119.994322,101.551204 120.393112,101.853876 C121.128543,102.386786 121.788877,104.073474 121.20105,106.293072 C120.69091,108.246215 119.510077,111.3402 119.046549,113.536516 C118.523461,116.082069 118.909303,117.652344 120.196307,117.321215 C121.472952,117.018542 122.697807,115.375833 123.552357,113.378712 C123.554946,113.350256 123.552357,113.332147 123.554946,113.306278 C123.878639,110.587399 125.926969,104.334755 127.765546,100.061124 C127.96753,99.5592566 128.298992,99.5359741 128.620096,99.8981463 C129.428033,100.798403 129.653324,102.187592 129.485003,103.734584 C130.942917,101.434791 133.281276,98.6667609 134.664093,98.612435 C136.049499,98.5581092 137.688681,100.30947 137.080138,102.619611 C136.567408,104.572754 135.150927,107.964238 134.62266,110.258857 C134.014117,112.819932 134.62525,114.685119 136.072805,114.322947 C137.621353,113.94784 139.011938,111.236722 140.003734,108.316062 C140.506106,105.12636 142.197078,100.05595 143.26656,97.7251132 C143.538463,97.1637463 143.800007,96.9904211 144.196207,97.2930935 C144.931638,97.826004 145.591971,99.5126916 145.009324,101.73229 C144.494005,103.688019 143.313172,106.779418 142.852233,108.97832 C142.326556,111.521286 142.714987,113.094148 143.999402,112.763019 C145.369271,112.437064 146.68217,110.592573 147.539309,108.401432 C147.008452,106.932047 147.018811,105.268642 147.852644,104.264908 C148.261792,103.765628 148.619149,103.866519 148.78488,104.508081 C148.891051,104.826275 148.950611,105.15223 149.051603,105.470424 C150.286816,102.870545 151.610073,99.8774507 152.392116,97.5776574 C152.291124,95.9530565 152.552668,95.0993649 153.257024,94.1654781 C153.997634,93.1798524 154.901385,92.8383758 155.339018,93.1358743 C155.820673,93.4644162 155.704144,93.9481748 155.357145,94.9855394 C155.240615,95.2623424 155.162929,95.5287976 155.054168,95.8469918 C155.489211,99.6394518 156.872028,102.666176 157.288945,105.493706 C157.511646,107.095025 157.553078,108.859321 156.276433,110.116575 C157.744705,109.22408 158.741679,107.909912 159.469342,106.505202 C159.4797,106.39655 159.471931,106.324115 159.487468,106.21029 C160.129675,101.874572 165.84998,85.9338219 168.359248,81.1945403 C168.63374,80.6383473 169.048067,80.5995432 169.345865,81.0496714 C170.099423,82.1284271 170.371325,84.1850477 169.312201,87.041034 C168.649277,88.8544818 167.124036,92.5641597 165.896591,95.6245146 C167.250923,93.6791326 169.110216,91.9303584 170.236668,91.8424023 C171.653149,91.7389245 173.302689,93.5316768 172.642355,95.8081876 C172.090782,97.7690912 170.705376,101.111423 170.174519,103.403456 C169.612588,105.959356 170.179698,107.829717 171.668687,107.462371 C173.178391,107.095025 174.701043,104.267495 175.537466,101.61329 C175.376915,100.30171 175.475317,98.8400861 175.918129,97.2879196 C177.557311,91.5345559 181.301793,88.6242438 183.565055,89.4132618 C184.699276,89.8297598 185.551236,90.2979967 186.372121,91.068906 C187.293999,91.9044889 187.441603,94.447455 186.128704,96.8507261 C184.606052,99.6704952 182.081246,101.251118 178.787345,99.4790613 C178.202108,103.470716 179.67038,105.845531 181.850776,105.553206 C184.78991,105.136708 186.936642,102.236744 188.265079,99.5101046 C188.298743,98.0872854 188.606898,96.4989017 189.329381,94.8458444 C191.636666,89.5115656 194.544724,87.0565557 196.580107,86.6685141 C198.247773,86.347733 199.304308,87.4523581 199.552904,88.9657204 C200.948668,84.355786 202.978872,78.2324893 204.045764,75.8783702 C204.343562,75.2316341 204.719046,75.2005908 205.022022,75.6921102 C205.853266,76.9234956 206.065609,78.6955523 204.939157,82.0715144 C203.657332,85.9441697 201.036713,93.4023296 199.829985,98.105394 C199.182599,100.674229 199.46227,102.347982 200.829549,102.001332 C202.484268,101.600355 204.159704,98.4546314 205.045328,95.3761679 C205.179985,94.9726047 205.464834,94.9156919 205.690125,95.2106035 C205.920594,95.5443193 206.166601,96.5972056 205.848087,97.7923737 M146.992915,96.253142 C147.412421,95.5805365 147.487518,94.4293464 146.752088,93.4721771 C146.014067,92.4762036 144.740011,92.2123353 144.222102,93.0298096 C143.704193,93.847284 143.735268,95.1045388 144.594997,96.0772298 C145.410703,97.0188775 146.573409,96.9231605 146.992915,96.253142 M120.416418,97.5880052 C119.898509,98.4080664 119.929584,99.6653213 120.791902,100.638012 C121.605019,101.577073 122.770314,101.481356 123.18982,100.808751 C123.609327,100.141319 123.681834,98.9875419 122.948993,98.0303726 C122.210972,97.0343991 120.936916,96.7731178 120.416418,97.5880052 M62.10764,118.625035 C62.2060427,117.383302 62.0480805,116.358872 61.8357378,115.683679 C61.4240002,114.41349 60.5409655,114.87914 60.6393682,116.038091 C60.7300022,117.160824 61.2479112,118.115407 62.10764,118.625035 M62.0480805,119.859007 C60.5176596,119.349379 58.9483955,118.006755 58.6298815,116.338176 C57.7416677,117.437627 56.7861257,119.054467 56.1957095,120.813589 C55.0692575,124.192138 55.2116825,127.997533 56.4468953,128.732225 C57.6872872,129.464331 59.9298329,127.516362 61.2556798,123.42899 C61.6803651,122.122583 61.8771705,120.94811 62.0480805,119.859007 M88.5365332,112.592281 C87.5369689,115.735418 84.7376711,122.257104 84.6729325,126.109064 C84.6625743,126.489345 84.4580003,126.740278 84.0203672,126.445367 C83.4014661,126.008173 83.020803,125.382133 82.8058708,124.647441 C81.9435524,125.508893 80.9258613,126.150455 79.8408421,126.357411 C77.1943274,126.867039 75.8633014,125.433872 75.7390033,123.012492 C74.6695213,125.159656 73.0096232,127.710382 70.650548,127.953555 C67.7114147,128.261402 67.061439,125.307111 67.4395125,122.453712 C67.5715793,121.372369 67.8667874,120.053028 68.3147786,118.658665 C67.2789608,119.406292 66.0800016,119.972833 64.7929979,120.094419 C64.513327,123.685097 62.801638,128.188967 60.1007429,129.717851 C58.689441,130.496521 56.5815516,130.731933 54.5876022,128.921072 C52.3321088,126.864452 52.2751388,123.247904 53.4404339,119.654638 C54.4503563,116.550306 56.5375294,113.790036 58.9458059,113.161409 C60.1525338,112.845802 60.9138599,113.078627 61.9807523,114.012513 C63.1926592,115.044704 64.3786707,115.070573 64.7515651,118.117994 C64.8007665,118.363753 64.8059456,118.6121 64.8266619,118.948403 C67.1391254,118.464644 69.0113662,116.120873 69.9643186,113.621885 C70.246579,112.88978 70.7282343,111.873111 71.0855915,111.08668 C71.3238296,110.579638 71.696724,110.548595 72.0929244,110.851268 C73.2478613,112.020566 73.3721594,113.769341 72.3674161,116.446828 C71.3600832,119.129489 70.7385925,120.935176 70.332034,122.99697 C69.89958,125.144134 70.2931908,126.543671 71.2073001,126.453128 C72.8179969,126.269455 74.56335,123.069405 76.0445696,119.119141 C77.7795645,114.527315 78.4217716,111.495417 79.3488286,109.50347 C79.6129622,108.905886 79.9237075,108.763604 80.3173183,109.066276 C81.0682863,109.679382 81.7312097,111.368656 81.1433831,113.588254 C80.6021682,115.587962 79.1753291,118.938055 78.647062,121.232674 C78.038519,123.793749 78.5227638,125.431285 79.9729089,125.069112 C80.9854209,124.823353 81.9772165,123.563511 82.8265871,121.902693 C82.8731989,121.698324 82.8809676,121.509477 82.9482957,121.294761 C83.5413015,119.326097 85.5326613,114.982617 86.6280387,112.537955 C84.0177777,111.477308 86.6383969,105.99816 88.1351538,105.669619 C89.3910829,105.390229 89.5179706,107.811608 88.9922931,110.566704 C90.2637595,110.15538 91.5196887,109.237014 92.8248192,107.894391 C93.2495045,107.475306 93.5602499,107.330437 93.9072489,107.599479 C94.8446641,108.308302 96.1653319,109.90962 95.243454,111.477308 C93.8088462,113.901275 92.3069103,116.847804 92.0609035,119.085511 C91.8174863,121.323217 92.6072975,122.815884 93.7958985,122.632211 C95.3988266,122.409734 96.8722776,119.512357 97.6102978,116.335589 C97.71129,115.978591 97.9495282,115.893222 98.1748185,116.185546 C98.462258,116.594284 98.6901379,117.561801 98.4544894,118.746621 C97.9702445,121.287 95.9348624,123.441925 93.7648239,123.77564 C90.8101534,124.215421 89.1140017,121.757824 89.5464556,118.511209 C89.9271187,115.65781 91.7320313,112.318065 93.0034978,110.134684 C91.4368232,111.658394 89.7587983,112.359456 88.5365332,112.592281 M56.3743881,110.070011 C53.9894174,113.477016 51.0813587,117.238433 47.1141762,123.604902 C45.9877243,126.986038 45.2471145,130.160218 44.8638619,132.765271 C44.7784069,133.202465 44.4909674,133.256791 44.1128939,133.034313 C43.3981796,132.622989 42.7197189,131.277778 42.9242929,129.047833 C43.0926133,127.498253 43.6131118,125.162242 44.3174679,122.665841 C43.4447914,117.688561 42.5772939,111.404874 42.6083684,107.392523 C42.6057789,106.719918 42.9631361,106.608679 43.3774632,106.782005 C44.4702511,107.203676 45.3092636,108.26691 45.7080534,111.226375 C46.0239779,113.526168 46.2026565,116.232111 46.6273418,119.315749 C49.6104973,114.397968 54.2716778,107.690022 56.9414983,104.226104 C57.3169823,103.775975 57.6251381,103.840649 57.8348913,104.264908 C58.3864643,105.382468 58.3243152,107.250241 56.3743881,110.070011" mask="url(#illustration_finished_poster-b)"/>
  </g>
</svg>
