<?xml version="1.0" encoding="UTF-8"?>
<svg width="200px" height="190px" viewBox="0 0 200 190" version="1.1" xmlns="http://www.w3.org/2000/svg" xmlns:xlink="http://www.w3.org/1999/xlink">
    <!-- Generator: Sketch 50 (54983) - http://www.bohemiancoding.com/sketch -->
    <title>Group</title>
    <desc>Created with Sketch.</desc>
    <defs></defs>
    <g id="Symbols" stroke="none" stroke-width="1" fill="none" fill-rule="evenodd">
        <g id="Illustration/Get-Started" fill="#000000">
            <g id="Group">
                <path d="M58.7037604,4.8051629 C58.7367023,4.77737791 58.7316343,4.77990382 58.6910904,4.81021471 C58.6961584,4.8051629 58.7012264,4.80768881 58.7037604,4.8051629 M102.630507,130.989414 C102.442991,131.42387 101.961533,131.64615 101.513017,131.522381 C89.0635152,128.135138 76.897821,122.651392 67.1470208,113.94964 C58.8938098,107.106956 51.5883117,96.081368 48.0635292,80.6935375 C42.7472145,56.2301203 48.6336773,30.698244 55.9974572,6.84862233 C52.6627241,9.30380473 46.6546298,13.4791304 40.162543,16.7148183 L39.9674256,16.8108028 C38.6497499,17.4700647 37.4613078,15.6943515 38.5889341,14.7345066 C41.6018503,12.1681842 55.2068518,1.0289307 56.36742,0.384824208 C58.0803984,-0.479036268 60.6194581,-0.00163968943 61.6735987,2.98145745 C61.9776777,3.93625061 63.4803348,8.68243141 63.3688392,8.33133022 C69.1590102,26.7325687 69.9369457,27.7580873 68.2138313,28.2632689 C67.6462172,28.4274529 67.0557971,28.1748621 66.774524,27.6873619 C65.9307048,25.7777756 64.4077758,24.7775161 58.0525245,7.62407603 C57.3480748,11.4533523 55.6224265,20.806789 51.5832437,42.7417725 C47.6935664,69.4987141 55.3943672,89.3144609 55.1206961,88.4202896 C58.5441189,102.643677 72.3214319,113.911751 84.7785352,121.787532 C96.3107315,128.615061 103.545278,128.872703 102.630507,130.989414 M199.216135,116.263372 C198.848706,115.765768 198.41286,115.871856 198.212675,116.419978 C196.304579,121.454112 194.24191,130.18365 193.684431,134.770698 C193.38542,137.334495 194.097472,138.536827 194.839932,139.021801 C195.230166,139.264288 195.369536,139.14557 195.470895,138.706063 C196.428744,133.861371 198.243082,126.892392 199.472068,122.479631 C200.381771,119.185847 199.996605,117.235846 199.216135,116.263372 M192.22992,140.317592 C191.761132,141.135986 191.849821,142.363577 192.729116,143.232489 C193.49945,144.005417 194.700562,143.967529 195.029981,143.2628 C195.328992,142.606064 195.351798,141.482035 194.698028,140.681322 C193.917559,139.706322 192.670835,139.544664 192.22992,140.317592 M181.526339,131.744661 C180.294819,132.002303 178.016761,135.167266 176.686415,139.150622 C175.373807,143.04052 175.766576,146.566688 177.317379,146.235794 C178.903658,145.894796 180.469665,143.063254 181.455387,139.039482 C182.686907,134.129118 182.679305,131.509751 181.526339,131.744661 M132.980126,143.300689 C131.741004,143.515391 129.473081,146.720768 128.137668,150.699073 C126.830128,154.591497 127.222897,158.117664 128.768631,157.78677 C130.35491,157.448299 131.824625,154.556134 132.980126,150.537415 C134.389025,145.662413 134.143228,143.101142 132.980126,143.300689 M108.342124,152.303024 C107.701024,154.662222 106.768515,157.172975 105.782793,159.655942 C106.925623,161.795386 108.461222,163.129065 109.664868,162.424337 C111.344904,161.434181 109.259429,155.409891 108.342124,152.303024 M163.757989,142.257489 C165.985368,143.012735 167.191548,140.933913 167.974551,139.165778 C168.836109,137.210725 169.206071,134.957615 168.552301,134.659558 C167.561511,134.187213 164.860276,137.334495 163.912563,141.517398 C163.849213,141.777566 163.788397,142.045313 163.757989,142.257489 M189.711132,137.804313 C189.954396,138.120052 190.240737,139.132941 189.987337,140.317592 C189.445063,142.734885 187.504026,145.407296 185.307055,145.811441 C183.148094,146.202957 181.80001,145.281001 181.351494,143.432036 C180.472199,145.308786 179.048095,147.190587 177.195747,147.632621 C175.378875,148.069603 173.99785,147.10218 173.313672,145.356778 C172.02387,147.582103 169.809161,149.461378 167.282772,150.102959 C164.992043,150.691495 163.167569,150.024655 161.961389,148.620251 C161.109968,150.193891 159.668126,151.97213 157.656137,152.376276 C156.181354,152.684436 154.676163,152.0277 153.761392,150.532363 C152.968252,152.457105 151.414915,153.985279 149.671529,154.338906 C146.648477,154.942598 144.808799,152.515201 144.99378,149.143114 C145.153422,146.359563 146.856264,142.871285 148.092852,140.575234 C146.605399,142.017528 145.01912,142.858655 143.795202,143.15166 C143.204782,149.158269 141.091433,155.945383 136.948357,157.276537 C134.819804,157.95348 133.301943,156.864814 132.858494,154.849139 C131.984267,156.763778 130.580436,158.721356 128.652068,159.188649 C126.994837,159.585217 125.710103,158.766822 124.970178,157.274011 C124.144097,158.910799 122.664245,160.881007 120.52809,161.307886 C118.916472,161.643831 117.246571,160.855748 116.379946,159.044672 C115.290329,161.335671 113.351826,162.972459 111.043359,163.629195 C108.775437,164.258146 106.423892,164.202576 104.492991,162.085865 C103.119567,160.547587 102.610235,157.925695 103.682113,156.501083 C104.059678,155.995902 104.414437,156.074205 104.60702,156.695578 C104.723584,156.998687 104.79707,157.314425 104.911099,157.62006 C105.998182,155.028479 107.153682,152.047908 107.81252,149.769539 C107.637675,148.18832 107.853064,147.347193 108.496698,146.399978 C109.175807,145.407296 110.044967,145.02841 110.485881,145.301208 C110.974942,145.599265 110.883718,146.076662 110.589775,147.104706 C110.488415,147.377504 110.425065,147.642724 110.336376,147.953411 C110.931864,151.636185 112.424385,154.523297 112.964125,157.263907 C113.255534,158.814815 113.3797,160.532432 112.188724,161.818119 C114.150033,160.497069 115.209242,158.425825 115.797128,156.425306 C115.774322,155.82414 115.799662,155.182559 115.913691,154.472779 C116.265916,152.310602 117.12494,148.610147 118.067584,145.099135 C116.724569,145.4174 115.675496,145.048617 115.254854,144.692464 C114.727783,144.237801 114.900095,143.904381 115.498117,143.800819 C116.613073,143.573487 117.697622,143.229963 118.734024,142.858655 C119.433406,140.400947 120.092244,138.289288 120.550896,137.261243 C120.78149,136.667655 121.186928,136.609559 121.496075,137.033912 C122.197991,138.031645 122.512206,139.327436 122.058621,141.600753 C123.586618,141.191556 124.34935,141.754833 124.790264,142.191815 C125.177965,142.595961 125.089275,142.906647 124.496321,143.050624 C123.601822,143.141557 122.408312,143.55328 121.460599,143.947321 C120.558498,146.950626 119.235755,151.305291 118.536373,154.967857 C117.928215,158.147975 118.951948,160.481914 120.626916,160.158598 C122.149845,159.865592 123.505531,157.420514 124.33668,154.677378 C124.24799,153.209825 124.468448,151.532622 125.157693,149.754383 C127.217829,144.475236 129.893724,141.921543 131.905713,141.436569 C133.443846,141.067786 134.525861,142.093305 134.860348,143.469925 C135.212572,142.345896 135.534389,141.434043 135.716837,140.976854 C135.917022,140.431258 136.203363,140.234237 136.603734,140.514613 C137.409543,141.070312 138.081051,142.654056 137.690816,144.826337 C137.330989,146.783916 135.982906,150.355549 135.600273,152.568245 C135.197368,155.033531 135.706701,156.453091 136.900211,156.038842 C139.368319,155.197715 141.745203,149.50937 142.201322,143.285533 C138.729753,142.911699 141.182657,136.667655 142.730926,136.170051 C143.934572,135.798743 144.099281,138.210985 143.929504,141.12083 C145.310529,140.625752 146.605399,139.605286 147.859725,138.223614 C148.31331,137.698225 148.571777,137.551723 149.022827,137.859883 C149.973074,138.501464 151.3541,140.082682 150.533086,141.694211 C149.195139,144.26306 147.852123,147.501274 147.695016,149.615458 C147.550578,151.939294 148.353853,153.366432 149.595509,153.151729 C151.080429,152.901664 152.299279,150.484371 152.942912,147.688191 C152.904903,147.031455 152.915039,146.331778 153.041738,145.541169 C153.391429,143.381518 154.247918,139.681063 155.193097,136.164999 C153.852615,136.488315 152.803543,136.117007 152.3829,135.760854 C151.85583,135.306191 152.025607,134.975297 152.62363,134.871734 C153.738586,134.644403 154.825668,134.300879 155.859537,133.929571 C156.558919,131.469337 157.215223,129.357678 157.678943,128.332159 C157.907002,127.733519 158.312441,127.677949 158.624122,128.104827 C159.323504,129.102561 159.637719,130.398352 159.184134,132.669143 C160.714665,132.259946 161.477397,132.825749 161.915777,133.260205 C162.306012,133.666876 162.214788,133.977563 161.621834,134.119014 C160.727335,134.212473 159.533825,134.62167 158.586112,135.018237 C157.686545,138.021541 156.361267,142.373681 155.66442,146.038773 C155.053728,149.216365 156.079994,151.550304 157.754963,151.229514 C159.021959,150.9845 160.169857,149.241624 161.00354,147.081973 C160.3371,145.490651 160.177459,143.449717 160.707063,141.204185 C162.039943,135.518367 165.569793,132.504959 167.817444,133.171798 C168.94507,133.5229 169.796491,133.944726 170.637777,134.657032 C171.575354,135.427434 171.838889,137.902824 170.670719,140.304962 C169.307431,143.126401 166.915343,144.783397 163.611018,143.20723 C163.225851,147.127439 164.771586,149.378023 166.890003,148.991559 C169.743278,148.448489 171.709655,145.520962 172.880359,142.798033 C172.847417,141.41131 173.078011,139.847773 173.703907,138.203407 C175.713362,132.893949 178.439937,130.365515 180.411383,129.89317 C182.028069,129.50418 183.112618,130.532225 183.424299,131.997251 C184.574731,127.435462 186.27504,121.368231 187.207548,119.021663 C187.46855,118.380082 187.835978,118.33209 188.155261,118.794331 C189.021887,119.958775 189.313296,121.678918 188.370651,125.02322 C187.293704,128.860074 185.078995,136.255932 184.116079,140.896025 C183.604212,143.42951 183.956437,145.051143 185.276647,144.65205 C186.875596,144.184757 188.365583,141.040001 189.090304,137.996282 C189.2018,137.594663 189.478005,137.526464 189.711132,137.804313 M67.0051173,159.332626 C65.7659953,159.549854 63.4980727,162.760283 62.1550571,166.698173 C60.8449834,170.588071 61.2478881,174.154653 62.8341669,173.813655 C64.3824358,173.482761 65.7938692,170.524923 66.9671074,166.579455 C68.4038807,161.658987 68.1682195,159.135605 67.0051173,159.332626 M65.3960325,176.986196 C60.9919549,181.19941 60.5611763,187.003946 61.4607434,187.786977 C62.1525231,188.410877 64.2785422,183.573763 65.3960325,176.986196 M77.4071533,163.030555 C79.634532,163.785801 80.8381781,161.706979 81.6237155,159.936318 C82.4852727,157.981265 82.8577695,155.730681 82.1989316,155.430098 C81.2132088,154.960279 78.5069057,158.107561 77.5591928,162.285412 C77.498377,162.550632 77.4375612,162.815853 77.4071533,163.030555 M96.5590627,159.961577 C96.9087536,160.542536 96.8834136,161.297782 96.7085682,162.295516 C96.472907,163.55847 94.7067148,167.642863 91.5240212,168.284443 C89.8085088,168.643122 88.0397825,167.713588 87.2314392,165.649921 C85.9923172,168.084896 83.6382389,170.186452 80.9319358,170.876025 C78.0609232,171.61359 75.9095642,170.401154 74.8250157,168.180881 C73.8012831,170.817929 71.4446708,172.990209 68.5635222,174.889692 C67.6664891,180.676547 66.3792213,187.60006 63.4930048,189.625838 C62.7784191,190.13102 61.9624738,190.201745 61.0046249,189.35304 C59.8922025,188.370462 58.8507319,187.165604 59.0357133,184.667481 C59.3245884,180.855886 62.1347852,177.640406 65.6747716,175.207956 C65.859753,174.250637 65.9864526,173.222593 66.161298,172.224859 C65.2972069,173.636842 64.1163667,174.793708 62.6567875,175.147335 C59.0281113,176.018773 57.1301515,171.275118 59.1801508,165.791372 C61.1541304,160.492017 63.9187154,157.95348 65.9307048,157.471032 C67.5068476,157.092146 68.5888621,158.122716 68.8853391,159.506913 C69.1666122,158.605164 69.4276134,157.794348 69.6607406,157.031524 C69.843188,156.405099 70.2283547,156.271226 70.5907156,156.559179 C71.3509131,157.122456 72.0781687,158.739037 71.5587004,160.898689 C70.9454744,163.543314 69.6151287,168.895713 68.8828051,173.106401 C71.5308265,170.883602 73.1044353,168.463783 74.1788478,166.190466 C73.9659925,164.924986 73.9989344,163.500374 74.3562273,161.974725 C75.6916409,156.286381 79.2189574,153.278025 81.464074,153.939813 C82.5942343,154.295966 83.4481895,154.71274 84.2869408,155.427572 C85.2245177,156.2005 85.4880529,158.673364 84.3173487,161.075502 C82.9565952,163.899467 80.564507,165.553937 77.2601818,163.980296 C76.875015,167.900505 78.42075,170.148563 80.5391671,169.762099 C83.623035,169.173563 85.6603643,165.809053 86.7905246,162.921941 C86.7981266,162.457174 86.8234665,161.974725 86.9070882,161.449337 C87.2618471,159.289685 88.1158023,155.58923 89.0584472,152.073167 C87.7179656,152.396483 86.668893,152.025174 86.2507844,151.669021 C85.7237141,151.211832 85.8909576,150.883464 86.4940476,150.779902 C87.60647,150.55257 88.6910184,150.209047 89.727421,149.835212 C90.4293367,147.377504 91.0831066,145.265845 91.5442931,144.240327 C91.7774203,143.641686 92.180325,143.586116 92.489472,144.012995 C93.1913877,145.008203 93.5030687,146.306519 93.0545522,148.574784 C94.5825492,148.168113 95.3452807,148.733917 95.7836612,149.168373 C96.173896,149.575044 96.0826723,149.885731 95.4922522,150.027181 C94.5952191,150.12064 93.401709,150.529837 92.4539961,150.926405 C91.5544291,153.929709 90.2266174,158.281848 89.5297697,161.944414 C88.9241457,165.124532 89.9478783,167.458471 91.6203128,167.137681 C93.414379,166.789106 94.9879878,163.457433 95.7329814,160.158598 C95.854613,159.630683 96.2701876,159.448818 96.5590627,159.961577 M42.288562,168.190985 C41.6525301,170.550182 40.7149532,173.060935 39.7317644,175.543902 C40.8745947,177.683346 42.4076597,179.017025 43.6138397,178.312297 C45.2938762,177.324667 43.208401,171.297851 42.288562,168.190985 M50.8458521,170.79267 C51.0891153,171.105882 51.2969026,172.138978 50.9244058,173.515598 C50.0831206,176.589628 47.7619842,178.729072 44.9923312,179.519681 C42.7218746,180.146106 40.3728643,180.090536 38.4419626,177.976351 C37.0685391,176.435548 36.5592068,173.813655 37.6310853,172.391569 C38.00865,171.883862 38.3634089,171.962165 38.5559922,172.583538 C38.6725559,172.886647 38.7460416,173.202386 38.8600712,173.508021 C39.9471537,170.918965 41.1026539,167.938394 41.7589578,165.657499 C41.5866463,164.076281 41.7995016,163.235153 42.4456695,162.290464 C43.1247793,161.295256 43.9914045,160.91637 44.432319,161.189168 C44.9239134,161.487225 44.8301557,161.964622 44.5362127,162.992666 C44.434853,163.265464 44.3765712,163.530685 44.2853475,163.841371 C44.8833696,167.524145 46.3733567,170.411258 46.9130969,173.151868 C47.204506,174.702775 47.3286716,176.420392 46.1376955,177.706079 C48.5399196,176.086972 49.6270021,173.331207 50.0983245,170.974535 C50.1895482,170.489561 50.6152588,170.51482 50.8458521,170.79267 M40.0383774,156.129775 C40.2993785,155.316432 40.4362141,154.328802 39.9775616,153.649333 C39.7165604,153.255292 39.3618016,153.174463 38.9842368,153.846354 C38.003582,155.662482 36.7163142,160.340463 36.2753997,162.484959 C36.2145839,162.911837 36.3615554,163.172006 36.6048186,163.154324 C36.8911597,163.126539 37.1876367,162.972459 37.4993177,162.358663 C38.2595152,160.843119 39.4834332,157.804452 40.0383774,156.129775 M15.8869023,177.829849 C18.111747,178.582569 19.3204611,176.503747 20.1034645,174.735612 C20.9624877,172.780559 21.3375185,170.527449 20.6812146,170.229392 C19.6904239,169.757047 16.9891887,172.904329 16.0389418,177.087232 C15.978126,177.3474 15.9147762,177.615147 15.8869023,177.829849 M35.0388117,174.760871 C35.3885026,175.34183 35.3631627,176.09455 35.1883172,177.09481 C34.950122,178.357764 33.1864638,182.442156 30.0037702,183.086263 C28.2882578,183.442416 26.5169976,182.512882 25.7086542,180.449215 C24.4720663,182.88419 22.117988,184.985746 19.4091508,185.672793 C14.4222551,186.955954 11.5005626,182.459838 12.8334423,176.774019 C14.1713899,171.088201 17.6961724,168.074793 19.9438231,168.741632 C21.0714494,169.09526 21.9228706,169.51456 22.7641558,170.226866 C23.7017328,170.997268 23.9678019,173.472658 22.7970977,175.874796 C21.4363442,178.696235 19.044256,180.355757 15.7399308,178.77959 C15.3547641,182.697273 16.900499,184.947857 19.0189161,184.561393 C22.105318,183.972857 24.1426473,180.605821 25.2702737,177.716183 C25.2778756,177.251416 25.3006816,176.774019 25.3868373,176.251156 C25.7390621,174.086453 26.5955513,170.385998 27.5381962,166.872461 C26.1977146,167.195777 25.151176,166.824468 24.7305334,166.465789 C24.2009291,166.011126 24.3707066,165.680232 24.9712626,165.57667 C26.086219,165.349338 27.1733014,165.005815 28.2071701,164.634506 C28.9065518,162.176798 29.5628556,160.065139 30.0240421,159.037095 C30.2546354,158.443506 30.660074,158.38541 30.969221,158.809763 C31.6686027,159.807496 31.9828177,161.103287 31.5317672,163.376604 C33.0622982,162.967407 33.8250297,163.530685 34.2634103,163.967667 C34.653645,164.371812 34.5624213,164.682499 33.9694672,164.826475 C33.0749681,164.917408 31.881458,165.329131 30.9337451,165.725699 C30.0341781,168.726477 28.7089004,173.081142 28.0095187,176.743708 C27.4013607,179.923826 28.4276273,182.255239 30.1000619,181.936975 C31.896662,181.5884 33.4652029,178.256727 34.2127304,174.960418 C34.336896,174.429977 34.7474027,174.250637 35.0388117,174.760871 M12.2708961,185.101937 C12.4634795,185.389891 12.5293633,185.665215 12.017497,185.788984 C10.0384494,186.220915 5.93845082,188.249219 3.79215983,189.390929 C2.90272874,189.850644 2.50996002,189.944103 1.92460794,189.42124 C1.4456835,188.996887 0.802049605,188.403299 0.487834631,187.976421 C0.0519880555,187.37778 -0.0899154808,186.786718 0.0545220472,185.667741 C0.771641704,180.343127 4.39271587,166.869935 5.98659666,162.9472 C6.22985987,162.3915 6.59475468,162.346034 6.95204751,162.798171 C7.66409918,163.66961 8.22157736,165.281139 7.30934034,168.577448 C6.16397608,172.803292 4.04302501,179.72428 2.64426158,186.710941 C4.7500087,185.579334 6.90390167,184.647274 8.37361686,184.167352 C10.3045186,183.5384 11.5512425,184.030952 12.2708961,185.101937" id="Fill-1"></path>
            </g>
        </g>
    </g>
</svg>