<svg xmlns="http://www.w3.org/2000/svg" xmlns:xlink="http://www.w3.org/1999/xlink" width="262" height="172" viewBox="0 0 262 172">
  <defs>
    <polygon id="illustration_message_reminder-a" points="0 0 262 0 262 172 0 172"/>
  </defs>
  <g fill="none" fill-rule="evenodd">
    <mask id="illustration_message_reminder-b" fill="#fff">
      <use xlink:href="#illustration_message_reminder-a"/>
    </mask>
    <path fill="#000" d="M180.459901,132.435535 C180.876163,132.89562 180.879466,133.590712 180.492937,134.054107 C169.732903,147.012618 156.630571,158.501505 141.007543,165.369681 C128.40076,171.460016 111.334031,174.157637 91.1123023,169.997012 C59.1196181,163.029536 31.907336,142.17014 7.49986479,120.463393 C8.61980696,125.762646 10.3443197,135.169565 10.6845971,144.649303 L10.6978117,144.92734 C10.7671887,146.85374 8.01193275,147.300585 7.48004281,145.443695 C6.05285987,140.465508 0.145908261,118.242407 0.00385070014,116.514605 C-0.0985628904,114.008962 1.840688,111.248452 5.96366094,111.615858 C7.25869731,111.774736 13.7206645,112.562508 13.2449369,112.506238 C38.2768006,115.614295 39.9187217,115.246889 39.5850516,117.567174 C39.4760307,118.331776 38.8615491,118.89778 38.124832,118.970599 C35.3960054,118.934189 33.3807702,120.201906 9.53161828,118.441005 C13.7074498,121.360393 23.9091649,128.490057 47.8343011,145.198758 C77.587101,164.353522 105.331273,165.958855 104.125436,165.799977 C122.900159,169.454177 143.756191,159.193287 159.861554,148.66429 C174.219279,138.661578 178.434755,130.201308 180.459901,132.435535 M261.617716,83.45799 C260.643135,86.7977441 258.205031,89.05183 255.466293,91.1966869 C252.836576,93.2819646 252.119681,95.4930208 251.91155,97.618018 C251.861995,98.0681732 251.587791,98.1145127 251.227692,97.8530255 C250.633032,97.4260401 249.87319,96.227833 250.348917,94.2550941 C250.781697,92.494193 251.865299,91.0278788 254.518141,88.856542 C256.675434,87.092331 258.413162,84.7124665 259.173004,82.0115355 C259.652036,80.2804241 259.833737,77.7549211 258.42968,77.2650464 C256.212921,76.5070645 253.315608,80.6081105 251.868603,85.4737583 C251.683598,86.0265224 251.488681,86.0596221 251.1451,85.7153857 C250.41499,84.9110644 249.985514,83.0508643 250.960095,80.6743098 C252.509514,76.9208101 255.981665,74.6137648 259.143271,76.0204998 C261.528517,77.0730685 262.645155,79.9461176 261.617716,83.45799 M251.538236,99.7330854 C252.093252,100.686355 252.132896,101.646245 251.713331,102.278448 C251.293765,102.913961 250.223378,102.970231 249.473446,102.08647 C248.720211,101.1663 248.680567,99.9647829 249.199242,99.1968711 C249.71131,98.4256494 250.920451,98.7069964 251.538236,99.7330854 M226.529498,99.210111 C225.108923,102.98678 223.51986,105.7837 221.98696,105.998848 C220.421023,106.217306 220.282269,102.702124 221.831688,98.9817234 C223.424054,95.2182938 225.862158,92.2360158 227.087818,92.1168571 C228.234189,92.0076282 228.287048,94.4934116 226.529498,99.210111 M219.654573,119.582942 C218.831961,118.755451 219.667788,113.102032 224.259881,109.282333 C222.700551,115.660634 220.288877,120.241625 219.654573,119.582942 M210.837093,101.732304 C209.40991,105.508973 207.791115,108.352233 206.18223,108.57731 C204.64933,108.792458 204.593168,105.260726 206.10955,101.550256 C207.682094,97.7073871 210.116894,94.6886995 211.385502,94.5993304 C212.53848,94.5298212 212.588035,97.0122945 210.837093,101.732304 M195.610505,110.248843 C194.384845,110.854566 192.984092,109.437901 192.026029,107.263255 C193.159186,104.90325 194.252699,102.506836 195.042275,100.24282 C195.712919,103.350877 197.315196,109.404802 195.610505,110.248843 M183.799905,112.208342 C182.57755,112.814065 181.176796,111.3974 180.21543,109.219444 C181.35189,106.859439 182.445403,104.466335 183.234979,102.202319 C183.905623,105.310376 185.504596,111.360991 183.799905,112.208342 M169.633793,106.952118 C170.856149,102.923891 173.710515,100.037602 174.638845,100.567196 C175.259933,100.908123 174.737954,103.089389 173.76007,104.93966 C172.86808,106.617811 171.543311,108.564071 169.425662,107.67038 C169.475217,107.461852 169.551202,107.203675 169.633793,106.952118 M237.177208,95.754508 C238.399564,91.7295912 241.25393,88.8433022 242.188867,89.3728965 C242.806652,89.7105129 242.281369,91.8917795 241.303485,93.7453596 C240.414799,95.4202016 239.09003,97.3697707 236.972381,96.4727703 C237.018632,96.2642426 237.101224,96.0093753 237.177208,95.754508 M246.404342,96.4396707 C245.14895,99.30279 242.816563,102.907341 239.549239,103.287987 C237.454716,103.516375 236.110124,101.20271 236.76425,97.3929405 C239.869694,99.1737014 242.321013,97.7206269 243.847306,95.0527956 C245.162164,92.7854699 245.079573,90.3427161 244.22062,89.5185349 C243.450866,88.7605531 242.65138,88.2905381 241.577689,87.8635527 C239.436914,87.0526114 235.783062,89.7502325 234.078371,95.2216038 C233.625769,96.6812981 233.490319,98.0681732 233.602643,99.3193398 C232.390199,101.474127 230.682204,103.738142 227.930252,105.737361 C228.94778,101.666105 230.629346,96.5191098 231.40901,93.9770571 C232.069743,91.8950894 231.478387,90.263277 230.774707,89.6542435 C230.447644,89.3464168 230.061115,89.4523357 229.83977,90.0514392 C229.558958,90.7829414 229.24511,91.5574731 228.901529,92.4180638 C228.716524,91.0411186 227.738639,89.9587602 226.172703,90.2169375 C224.173986,90.5479339 221.303101,92.8351194 219.003751,97.8828152 C218.237301,99.5609672 217.906935,101.17292 217.887113,102.596205 C216.915835,105.058818 215.485349,107.289734 214.130846,107.584321 C212.812684,107.882218 212.578124,106.190826 213.192606,103.834131 C213.787265,101.603215 215.257396,98.3429003 215.825626,96.4396707 C216.440108,94.3246034 215.848752,92.6927909 215.148375,92.0837574 C214.811401,91.7759307 214.517375,91.9050193 214.246475,92.4743332 C213.919412,93.1727357 213.585742,94.0730461 213.235553,95.0958251 C213.060459,93.5566916 212.062753,92.3948941 210.387795,92.6729311 C208.432026,92.9973076 205.633822,95.2679433 203.232058,100.414938 C202.551503,101.868012 202.207922,103.271437 202.098901,104.555704 C201.395221,106.554922 200.205902,108.63027 198.111379,109.835097 C199.363467,108.66337 199.363467,106.971978 199.191677,105.432844 C198.86131,102.708743 197.612525,99.7761149 197.295374,96.128534 C197.404395,95.8306372 197.480379,95.57577 197.596007,95.3142828 C197.95941,94.3279133 198.081646,93.8678283 197.629044,93.5401418 C197.216086,93.245555 196.347222,93.5500717 195.613809,94.4768617 C194.920039,95.3573123 194.649139,96.1649436 194.705301,97.7272469 C193.899207,99.9118234 192.561223,102.748463 191.322349,105.207767 C191.23315,104.89994 191.180291,104.585493 191.087789,104.280977 C190.945731,103.658703 190.608757,103.556094 190.199103,104.026109 C189.419438,104.9198 189.353365,106.412594 189.756412,107.782919 C189.019695,109.348532 187.949308,110.847946 186.304083,111.794596 C187.552868,110.619559 187.552868,108.928167 187.384381,107.389033 C187.054015,104.664932 185.801926,101.735614 185.484774,98.088033 C185.597099,97.7868262 185.673083,97.531959 185.788711,97.2704718 C186.152114,96.2874123 186.27435,95.8240173 185.821748,95.4963308 C185.40879,95.201744 184.536622,95.5062607 183.806513,96.4330508 C183.112743,97.3135013 182.841843,98.1244426 182.894701,99.6834359 C182.091911,101.868012 180.753927,104.704652 179.511749,107.163956 C179.425854,106.856129 179.372995,106.544992 179.280493,106.237166 C179.138435,105.614892 178.798158,105.512283 178.391807,105.982298 C177.648483,106.832959 177.569195,108.216524 177.902865,109.53058 C176.55497,111.887275 174.576075,114.18439 171.999217,114.485597 C169.911301,114.710675 168.560102,112.400319 169.220835,108.58724 C172.32628,110.368001 174.774295,108.914927 176.300588,106.247095 C177.615446,103.97977 177.529551,101.537016 176.673902,100.716145 C175.907452,99.954853 175.104661,99.484838 174.034274,99.0611626 C171.890196,98.2469113 168.239647,100.944532 166.531653,106.419214 C166.082354,107.859048 165.940297,109.229373 166.049318,110.4673 C165.015271,113.224501 163.759878,115.733454 162.279837,116.018111 C160.879083,116.289528 160.033345,114.574966 160.760151,112.162002 C161.414277,110.043625 162.904229,107.140786 163.317187,105.264036 C163.773093,103.175448 163.079323,100.914743 161.668659,101.110031 C160.367015,101.282149 158.05445,103.559404 156.478602,105.710881 C156.706555,103.903641 155.659294,101.944142 154.32131,102.12619 C152.907341,102.318168 150.360216,105.115088 148.96607,107.398963 C149.296436,105.737361 149.160986,104.188298 148.318552,103.201928 C148.017918,102.847762 147.697463,102.861002 147.492636,103.337637 C145.63928,107.425443 143.700029,113.419789 143.283767,116.024731 C142.950097,118.133178 143.359752,119.394274 144.337636,119.996688 C144.743987,120.248245 144.955422,120.052957 145.051228,119.675621 C146.005987,115.736764 147.284505,111.781356 149.174201,108.895067 C151.222473,105.737361 152.966807,104.363726 153.465661,104.479574 C154.29488,104.625213 150.964787,110.728787 150.211551,114.19432 C149.544211,117.203078 150.343698,118.639603 151.103541,119.116237 C151.519802,119.450544 151.813828,119.278426 151.969101,118.768691 C153.003148,114.816594 154.298184,110.738717 157.007189,106.952118 C159.128141,103.98308 160.386837,103.334327 160.7139,103.400526 C161.338292,103.496515 158.583036,108.461462 157.674529,111.953474 C156.75611,115.402457 158.454194,117.89817 161.853664,117.335477 C163.888721,116.99786 165.801543,115.035051 166.703443,112.893504 C167.671417,114.919202 169.610668,116.09424 172.303154,115.601055 C174.886619,115.13766 177.192577,113.346969 178.599938,111.172323 C178.669315,111.278241 178.708959,111.41064 178.784943,111.509939 C180.516063,113.717685 182.802199,113.942763 185.055298,113.489298 C187.321611,113.012663 189.317025,111.576138 190.542684,109.454451 C190.56581,109.484241 190.575721,109.52396 190.595543,109.55375 C192.323359,111.761496 194.609495,111.983264 196.862594,111.533109 C199.135515,111.056474 201.130928,109.613329 202.359891,107.485022 C202.914906,109.212824 204.186817,110.235603 205.967492,109.941016 C207.843973,109.629879 209.363659,107.888838 210.348151,106.078287 C210.652088,107.918628 211.953732,108.987746 214.084595,108.756049 C215.752946,108.574001 217.371741,107.018317 218.336411,105.257416 C218.947589,106.707181 220.107175,107.557841 221.719363,107.289734 C223.166368,107.051417 224.401939,106.002158 225.343483,104.678172 C225.105619,105.641372 224.907399,106.644291 224.659624,107.567771 C221.032201,109.696078 218.068814,112.645257 217.517102,116.355727 C217.153699,118.791861 218.085333,120.043027 219.099557,121.082356 C219.971725,121.985977 220.771212,121.972737 221.501321,121.532511 C224.461404,119.751751 226.209043,113.062312 227.490865,107.461852 C230.44434,105.80356 232.902267,103.834131 234.081675,101.318558 C234.976968,103.575954 236.988899,104.92642 239.849872,104.406755 C242.852903,103.867231 245.568515,101.566806 246.810693,98.9055942 C247.34919,97.7702764 247.28642,96.6548184 247.074986,96.3701614 C246.863551,96.042475 246.553007,96.0954344 246.404342,96.4396707 M128.271917,115.415697 C126.844734,119.192367 125.229243,122.035626 123.620358,122.260704 C122.087458,122.475851 122.027992,118.944119 123.54107,115.233649 C125.116918,111.39409 127.551719,108.372093 128.823629,108.282724 C129.976608,108.213214 130.019556,110.698998 128.271917,115.415697 M133.263754,110.123064 C133.874932,108.007997 133.28688,106.376184 132.583199,105.767151 C132.249529,105.462634 131.948896,105.591723 131.681299,106.161036 C131.35754,106.856129 131.02387,107.756439 130.670378,108.782528 C130.498587,107.240085 129.50088,106.078287 127.819315,106.356324 C125.86685,106.680701 123.07195,108.954646 120.663579,114.101641 C118.205652,119.377725 119.768286,124.230133 123.402316,123.624409 C125.282101,123.313272 126.798483,121.575541 127.786279,119.76168 C128.086912,121.602021 129.388556,122.674449 131.522723,122.439442 C133.69323,122.204434 135.794361,119.642522 136.458397,117.318927 C136.782156,116.137269 136.620277,115.15752 136.408842,114.833143 C136.197408,114.505457 135.929811,114.588206 135.791057,114.975472 C134.866031,117.90148 133.158037,120.923478 131.568974,121.267714 C130.250812,121.565611 130.012948,119.874219 130.62743,117.520835 C131.222089,115.286608 132.695524,112.026293 133.263754,110.123064 M247.828221,60.1459101 C246.298625,60.3610578 246.166478,56.8822851 247.719201,53.161885 C249.301656,49.3587358 251.749671,46.4194873 252.965419,46.2572991 C254.108487,46.1083507 253.926786,48.6735731 252.380671,53.3968925 C251.131886,57.266241 249.400766,59.9274524 247.828221,60.1459101 M236.694873,55.9952146 C235.449392,59.8645631 233.718272,62.5257745 232.149031,62.7442322 C230.616131,62.9593799 230.483984,59.4806072 232.04001,55.7602071 C233.619162,51.9603679 236.067177,49.0178094 237.282925,48.8589312 C238.425993,48.7099828 238.244292,51.2718953 236.694873,55.9952146 M221.273368,58.471068 C219.849489,62.2477375 218.230694,65.090997 216.618506,65.3193846 C215.085605,65.5345323 215.029443,62.0028001 216.545825,58.2923299 C218.115066,54.4461512 220.55317,51.4274636 221.82508,51.3414045 C222.974756,51.2718953 223.024311,53.7543686 221.273368,58.471068 M251.964409,57.6899164 C252.265042,59.5302567 253.513828,60.5298659 255.647995,60.2981684 C257.811895,60.059851 259.896507,57.5839975 260.596884,55.2570925 C260.92725,54.1118448 260.722423,53.0989957 260.507685,52.7746191 C260.302857,52.4866522 260.028653,52.5296818 259.889899,52.9169476 C258.968177,55.8462662 257.289916,58.8186143 255.700853,59.1628506 C254.382691,59.4640574 254.158042,57.8487947 254.838597,55.4060409 C256.107204,50.927659 258.793083,43.844335 260.111245,40.1636544 C261.270831,36.9529889 261.108952,35.2516671 260.349109,34.0468401 C260.071601,33.5735151 259.708198,33.5933749 259.407564,34.2057184 C258.33057,36.4366344 256.23935,42.255552 254.798953,46.637945 C254.594126,45.1848706 253.612937,44.0992022 252.01066,44.3639994 C250.054891,44.6883759 247.220347,46.9689414 244.881353,52.0265672 C244.088474,53.7311989 243.754803,55.3729413 243.738285,56.8227057 C242.776919,59.2720794 241.369558,61.4732058 240.018359,61.7644827 C238.700197,62.0623795 238.475548,60.4471168 239.156103,58.004363 C240.421406,53.529291 243.110589,46.445967 244.428751,42.7619766 C245.585033,39.554621 245.426458,37.8499893 244.666615,36.6484722 C244.389107,36.1718373 244.025704,36.1916971 243.72507,36.8040405 C242.648076,39.0349565 240.556856,44.8538741 239.113155,49.2362671 C238.911632,47.7831927 237.930443,46.6975243 236.328166,46.9623215 C234.372397,47.286698 231.537853,49.5672636 229.198859,54.6248893 C228.296959,56.5645285 227.94677,58.4445883 228.039273,60.0234414 C227.084514,62.201398 225.796085,64.0582881 224.570425,64.3230852 C223.24896,64.624292 223.0144,62.9295902 223.625577,60.5762054 C224.223541,58.3452894 225.693671,55.0849744 226.261901,53.1784348 C226.876383,51.0666775 226.285027,49.431555 225.58465,48.8225215 C225.254284,48.5146948 224.95365,48.6504034 224.68275,49.2164073 C224.355687,49.9148098 224.025321,50.8151202 223.671829,51.8378992 C223.496735,50.2987657 222.502332,49.1336582 220.820767,49.4150052 C218.868301,49.7393817 216.070097,52.0100173 213.668333,57.1570121 C211.207104,62.4330955 212.766433,67.2855035 216.403767,66.6830899 C218.280249,66.3719533 219.796631,64.6309119 220.784426,62.8170514 C221.088363,64.6573917 222.390007,65.7298202 224.52087,65.4981226 C226.096718,65.3260045 227.632922,63.9192696 228.61411,62.2742172 C229.258325,63.598203 230.384874,64.3661148 231.930989,64.1079376 C233.767827,63.8067308 235.287512,62.0656895 236.278611,60.2915485 C236.582548,62.1318888 237.834637,63.131498 239.965501,62.8998005 C241.627244,62.7144425 243.229521,61.2150286 244.207405,59.4772972 C244.825191,60.9270617 245.991384,61.7777226 247.61018,61.5096154 C249.450321,61.2050987 250.970006,59.4640574 251.964409,57.6899164 M181.731812,65.0247977 C180.304629,68.8014672 178.689137,71.6480367 177.080252,71.8731142 C175.547352,72.0882619 175.484583,68.5565298 177.004268,64.8460596 C178.576812,61.0031909 181.011613,57.9845033 182.28022,57.8918242 C183.429895,57.822315 183.47945,60.3114083 181.731812,65.0247977 M187.886538,67.8382675 C187.027585,69.4336704 186.006753,70.6649772 185.025565,70.8768149 C183.707403,71.1780217 183.472843,69.4833199 184.087324,67.1299351 C184.67868,64.8990191 186.152114,61.638704 186.723648,59.7321645 C187.331522,57.6170972 186.74347,55.9852847 186.03979,55.3795612 C185.709423,55.0717345 185.412093,55.2041331 185.141193,55.770137 C184.81413,56.4685395 184.483764,57.3688499 184.126968,58.3916289 C183.958481,56.8524954 182.960775,55.6873879 181.27921,55.9687349 C179.32344,56.2931114 176.52854,58.567057 174.123473,63.7107418 C173.479258,65.090997 173.122463,66.4348426 172.996923,67.6661494 C171.738227,70.2909512 169.554505,73.3990079 166.511831,73.8657129 C164.202569,74.2099492 162.844763,71.0919626 164.265339,66.3123739 C165.434836,62.4562653 167.952228,59.4640574 168.705464,59.9042827 C169.326552,60.241899 168.427956,62.1219589 168.23304,63.601513 C167.978657,65.4550931 168.718678,66.5374515 169.736207,66.8552081 C170.291222,67.0438761 170.426673,66.8982376 170.502657,66.4050529 C170.935437,64.160897 172.157793,61.8240621 171.06428,60.3147183 C170.449798,59.4938471 169.716385,58.9708727 168.556799,58.5174075 C166.409417,57.6667467 162.811727,60.4371869 161.123554,65.7860896 C159.418863,71.2607708 161.903219,75.8351417 166.855412,74.9348314 C169.458699,74.4681264 171.840641,72.5218673 173.145588,70.3273608 C173.618012,72.3232694 174.936174,73.5545762 176.858907,73.2368196 C178.738692,72.925683 180.255074,71.1846416 181.242869,69.3707811 C181.546806,71.2111214 182.84845,72.2835498 184.97601,72.0518523 C186.155418,71.9227637 187.298486,71.1052025 188.220208,70.0228441 C188.415124,70.4332797 188.659595,70.7874459 188.996569,71.0257633 C189.406224,71.3170402 189.614354,71.1250623 189.710161,70.7444164 C190.783852,66.7856988 191.883972,62.7409222 193.773668,59.8513232 C195.821939,56.6969271 197.909855,55.2206829 198.329421,55.3133619 C199.08596,55.5119598 196.330704,60.2319691 195.673275,64.2833657 C195.101741,67.8812971 196.284452,70.1784124 199.607939,69.6256484 C201.874252,69.2516224 204.008419,66.8452782 204.702189,64.4786536 C205.058985,63.2539667 204.989608,62.3371066 204.642723,61.9531507 C204.398252,61.6718037 204.124048,61.7181432 203.985294,62.1020991 C202.95455,65.087687 201.464598,67.9938359 199.875535,68.3347622 C198.481389,68.6492088 197.946196,66.8452782 198.583803,64.4058344 C199.145426,62.2179478 200.58252,59.0039723 201.121017,57.1437723 C201.758624,54.9459558 200.229027,53.2280843 198.910865,53.2446341 C197.5894,53.2644939 195.286746,55.859506 193.836437,58.0308428 C194.031353,56.5479787 193.852956,55.210753 193.103024,54.3269925 C192.80239,53.9761363 192.488542,53.9893761 192.283715,54.462701 C190.427056,58.5140976 188.312711,64.4587938 187.939397,67.0571159 C187.896449,67.3450828 187.899753,67.5800903 187.886538,67.8382675 M131.284859,70.2876413 C130.478765,69.7779067 130.009645,68.8511167 129.950179,67.7753782 C129.880802,66.6599202 130.736451,66.2362447 131.103158,67.4642415 C131.291466,68.1163046 131.410398,69.102674 131.284859,70.2876413 M130.356529,74.8686321 C128.988812,78.7578404 126.801787,80.568391 125.63229,79.8368888 C124.4694,79.1053867 124.426452,75.4478759 125.586038,72.2372103 C126.190609,70.5689882 127.142064,69.0430946 128.020839,68.0136957 C128.285132,69.6190284 129.745352,70.9463242 131.198964,71.4692986 C131.007351,72.5086274 130.795917,73.6307054 130.356529,74.8686321 M108.13278,96.4992501 C107.270524,95.6353493 108.142691,89.97862 112.741392,86.1986406 C111.267958,92.3584845 108.767084,97.157933 108.13278,96.4992501 M133.828681,69.8672758 C133.544565,66.9346472 132.411409,66.8849978 131.278252,65.8655287 C130.283849,64.9420486 129.560346,64.7004212 128.40076,64.9718383 C126.081588,65.5179824 124.020101,68.1129946 122.982751,71.0621729 C122.424432,72.6542659 122.130406,74.2529787 122.176657,75.715983 C120.960908,78.0395781 119.094338,80.5121216 116.434888,82.5676095 C117.452417,78.4963532 119.057998,73.4023178 119.860788,70.9363943 C120.544647,68.7683676 119.956595,67.1365551 119.289254,66.5242116 C118.886207,66.2693444 118.625218,66.3918131 118.357621,66.9611269 C117.32027,69.1821131 116.223454,72.9885723 115.017617,76.1628282 C113.58713,79.8997781 112.047622,82.7331077 110.501508,82.8688163 C109.593,82.9383255 109.285759,81.5812401 109.751576,79.5323721 C110.187659,77.5662532 110.788926,75.8219019 111.81967,73.3129488 C112.883449,70.7642761 112.847109,69.0795042 111.700738,67.980596 C111.363764,67.6363597 110.964021,67.6628394 110.726157,68.1427843 C108.767084,72.0915719 107.488566,76.2852969 107.042571,78.9332685 C106.570147,81.6706091 107.121859,84.5138686 109.972921,84.2821711 C111.55868,84.1431526 112.873538,82.8754362 113.881156,81.4223618 C113.606952,82.4352109 113.375695,83.4778497 113.134528,84.4443594 C109.513712,86.6123861 106.580058,89.515225 105.988702,93.2323151 C105.588959,95.6717589 106.59988,96.9129956 107.574461,97.9589444 C108.499487,98.932074 109.239508,98.8096053 109.936581,98.4124095 C112.975952,96.6217187 114.710376,89.8561513 116.035145,84.2457615 C118.988621,82.4186611 121.41351,80.5121216 122.573097,77.9237293 C122.847301,78.698261 123.253651,79.3966635 123.848311,79.9692874 C125.711578,81.7533583 127.730116,81.5812401 129.097833,80.8729077 C131.717639,79.4727927 133.461974,75.1996286 133.81877,71.7605755 C135.051036,71.6778263 136.207319,71.1647818 137.21824,70.4729993 C136.755727,71.7969851 136.441879,73.0580815 136.293214,74.0874805 C135.85713,76.8148912 136.408842,79.6614607 139.223564,79.4363831 C141.479967,79.260955 143.131799,76.8546108 144.202186,74.8289125 C144.268259,77.1525076 145.50383,78.5559326 148.041044,78.1355671 C150.353609,77.7516112 152.411792,75.3982264 153.174938,72.9786424 C153.548252,71.8300847 153.379765,70.8106156 153.128687,70.4928591 C152.871001,70.1684825 152.567064,70.2611615 152.431614,70.6484274 C151.397567,73.6340154 149.791986,76.556714 148.19962,76.9009503 C146.805474,77.212087 146.389212,75.6332339 147.026819,73.1937901 C147.588442,71.0059036 149.032143,67.8283376 149.600373,65.9251081 C150.218159,63.8133507 149.626803,62.1782283 148.926426,61.5725048 C148.553112,61.271298 148.252478,61.4003866 147.988185,61.9663905 C147.053248,63.8530703 146.366086,66.7426693 144.595322,71.1018925 C143.082244,74.8520823 141.334606,77.8773898 139.791794,78.0130984 C138.916323,78.0792977 138.576046,76.7255222 139.038559,74.6766542 C139.48125,72.7138452 140.118857,70.9959737 141.146297,68.4539209 C142.170433,65.9085582 142.094448,64.2304062 141.020758,63.0818486 C140.647443,62.7839518 140.293951,62.8005016 140.04948,63.2837564 C139.689381,64.0284984 139.21035,64.9916981 138.919627,65.6834807 C137.945046,68.0600352 136.098298,70.2545416 133.878235,70.6649772 C133.865021,70.3439107 133.865021,70.1022832 133.828681,69.8672758 M229.869503,13.4257613 C230.447644,11.8038787 231.349544,10.2415755 232.304303,9.2022466 C232.568596,10.8075794 234.03212,12.1315652 235.475821,12.61813 C235.287512,13.6541488 234.993486,14.7894667 234.56401,16.067113 C233.272277,19.9430814 231.078644,21.7172223 229.872806,20.9890302 C228.71322,20.2939376 228.709917,16.6364268 229.869503,13.4257613 M235.340371,8.61638289 C235.531983,9.30816547 235.693863,10.287915 235.571627,11.4761922 C234.719282,10.933358 234.20391,10.0098779 234.193999,8.96723913 C234.160963,7.80544159 235.023219,7.42148571 235.340371,8.61638289 M198.25674,27.5990292 C200.077059,19.8934319 201.269682,16.156482 203.830021,13.4356912 C205.637126,11.4861221 207.285654,10.7711698 207.830759,11.406683 C208.587298,12.3268531 206.568759,16.159792 201.989881,18.5694461 C201.2862,18.9302322 201.22343,19.0593209 201.339059,19.7643433 C202.135242,25.0669064 204.81121,26.9171766 207.553251,26.500121 C208.990345,26.2816634 210.044214,25.5501612 210.843701,24.6597808 C211.04192,25.1099359 211.299606,25.4839619 211.653098,25.7388292 C212.066056,26.033416 212.274187,25.8381281 212.369993,25.4607922 C213.440381,21.4987647 214.543805,17.4539881 216.4335,14.567699 C218.485076,11.4133029 220.572992,9.93705872 220.992557,10.0297377 C221.745792,10.2250256 218.990537,14.945035 218.336411,18.9997415 C217.75827,22.5943629 218.944285,24.8947882 222.267771,24.3420242 C224.339169,23.9977879 226.288331,21.9555398 227.140676,19.794133 C227.398362,20.2939376 227.71221,20.7606426 228.135079,21.1578383 C230.041293,22.9750088 231.964026,22.6969718 233.298706,22.031669 C236.001104,20.6580337 237.748742,16.3848695 238.065894,12.9524364 C239.202354,12.803488 240.385066,12.4062922 241.458757,11.6251406 C241.049102,13.0219456 240.751773,14.1572634 240.576678,15.2727215 C240.071218,18.2947191 240.916956,20.727543 243.331934,20.5289451 C245.231541,20.3766867 246.579436,18.5429664 247.606876,16.7655155 C247.722504,18.4337376 248.94486,19.7577234 250.593388,19.5260258 C253.140513,19.1453799 255.387005,15.7129468 257.359293,10.8803986 C259.186219,6.39539672 259.490156,4.57160628 259.503371,2.96296354 C259.539711,1.95011441 259.182915,1.48340941 258.654329,1.69193718 C257.894486,1.97990409 255.700853,4.95887213 255.961843,10.9532178 C254.541267,14.9715147 252.631749,17.9835824 251.184744,18.2218998 C250.087928,18.4039479 249.77408,17.0071429 250.471153,14.6372083 C251.115367,12.4393919 252.489692,9.11287756 253.064529,7.24605759 C253.718655,5.12768032 253.120691,3.45614825 252.423618,2.88683436 C252.050304,2.54590802 251.752975,2.71802617 251.485378,3.2840301 C250.553744,5.17070986 249.859975,8.02058928 248.01653,12.429462 C246.467112,16.1862717 245.442976,18.9732618 243.92329,19.2645387 C243.067641,19.4465867 242.813259,18.1226009 243.279076,16.0704229 C243.748196,14.0612745 244.402322,12.1845246 245.429761,9.63916192 C246.453897,7.09379922 246.371306,5.37923762 245.264578,4.27370948 C244.934212,3.96588278 244.527861,3.95595289 244.293301,4.47561731 C243.969542,5.17401982 243.526851,6.13390952 243.236128,6.8256921 C242.235118,9.28168575 240.414799,11.3967531 238.165004,11.8502182 C238.158396,11.5688712 238.151789,11.2875242 238.112145,11.0525168 C237.82803,8.12319818 236.615585,8.08347861 235.56502,7.05076969 C234.554099,6.05116041 233.843811,5.88566219 232.687528,6.16038924 C230.361749,6.70322341 228.303566,9.29823557 227.266215,12.2474139 C226.64843,13.9950752 226.337886,15.7559763 226.460121,17.3282094 C225.435985,20.1284394 224.035232,22.7267615 222.535368,23.051138 C221.141222,23.3622747 220.602725,21.558344 221.246939,19.1222102 C221.805258,16.9343237 223.242352,13.7203481 223.777546,11.8601481 C224.42176,9.66233167 222.892164,7.94115013 221.567395,7.96431988 C220.249233,7.98086971 217.946579,10.5758819 216.49627,12.7472186 C216.69449,11.2643545 216.509485,9.92712883 215.76616,9.04336831 C215.465527,8.69251207 215.145071,8.70575193 214.943548,9.17907685 C213.083585,13.2304734 210.96924,19.1751696 210.595926,21.7701818 C210.546371,22.1044882 210.546371,22.3792152 210.53646,22.6704921 C209.77001,24.0739171 208.858198,25.1662053 207.946387,25.2257847 C206.433309,25.3184637 204.969786,23.2662857 204.282623,20.0820999 C206.624921,18.9302322 208.078534,17.5201874 209.191868,16.0075336 C210.407617,14.3591713 210.255648,12.6942591 209.257942,11.2908342 C208.204073,9.7715605 207.170026,9.34126511 205.769272,10.099247 C204.81121,10.6189114 203.707786,11.4828121 202.660524,12.9060969 C203.397241,10.8108893 204.470932,7.81868145 205.14488,6.05778034 C206.30777,2.92655393 206.132675,1.34770087 205.353011,0.265342482 C205.039163,-0.161642937 204.652634,-0.059034038 204.381733,0.47056028 C201.685943,5.78305329 197.321803,19.7477935 196.816342,23.4913633 C196.469458,26.0036264 196.872505,27.2250032 197.566274,27.7943171 C197.890033,28.0624243 198.19397,27.9300257 198.25674,27.5990292 M149.127949,38.6377608 C147.654515,44.7976047 145.153641,49.5970532 144.522642,48.9383703 C143.657082,48.0744696 144.532553,42.4210502 149.127949,38.6377608 M161.972596,24.6796406 C162.58047,23.0081085 163.531925,21.4822149 164.4107,20.4528159 C164.674993,22.0581487 166.135213,23.3854444 167.588825,23.9084188 C167.400516,24.9477477 167.182474,26.0698256 166.743087,27.3077524 C165.378674,31.1969606 163.185041,33.0075112 162.018847,32.2760091 C160.855957,31.5445069 160.816313,27.8869961 161.972596,24.6796406 M167.489715,19.9033618 C167.678024,20.5554248 167.80026,21.5417942 167.67472,22.7267615 C166.868626,22.2203369 166.392899,21.2902369 166.34004,20.2144985 C166.270663,19.0990404 167.126312,18.675365 167.489715,19.9033618 M146.326442,50.8515298 C149.365813,49.064149 151.096933,42.2952716 152.421703,36.6848818 C155.375179,34.8610913 157.803372,32.9512418 158.959654,30.3694695 C159.233858,31.1373813 159.640209,31.8357838 160.238172,32.4117176 C162.098135,34.1924785 164.119978,34.0236703 165.484391,33.3120279 C168.104197,31.911913 169.851835,27.6387488 170.205327,24.1996957 C171.440898,24.1169466 172.59718,23.6039021 173.608101,22.9121195 C173.145588,24.2394153 172.828437,25.4972018 172.679772,26.5266007 C172.243688,29.2540115 172.798704,32.1005809 175.610122,31.8755034 C177.873132,31.7000752 179.52166,29.2937311 180.592047,27.2680328 C180.654817,29.5916279 181.893691,30.9950528 184.430905,30.5746873 C186.736863,30.1907314 188.798349,27.8373467 189.564799,25.4177626 C189.938113,24.269205 189.769627,23.2530459 189.515244,22.9319793 C189.260862,22.6109128 188.953622,22.7035918 188.818171,23.0875476 C187.787428,26.0731356 186.178544,28.9991442 184.589481,29.3400706 C183.195335,29.6512072 182.775769,28.0723542 183.41668,25.6296004 C183.975,23.4450238 185.422004,20.2707679 185.990235,18.3642283 C186.604716,16.249161 186.016664,14.6173485 185.312984,14.011625 C184.936366,13.7104182 184.64234,13.8395069 184.374743,14.4088207 C183.439806,16.2955005 182.752644,19.1817895 180.978576,23.5410128 C179.472105,27.2912025 177.724467,30.3165101 176.181656,30.4522186 C175.302881,30.5184179 174.962604,29.1646424 175.42842,27.1157744 C175.864504,25.1529655 176.508718,23.4384039 177.529551,20.8930412 C178.55699,18.3476785 178.481006,16.6695265 177.407315,15.5242788 C177.037305,15.223072 176.677205,15.2396218 176.436038,15.7228766 C176.079242,16.4676187 175.593603,17.4308183 175.306185,18.1226009 C174.334907,20.4991554 172.491463,22.6969718 170.268097,23.1040975 C170.254882,22.7830309 170.251578,22.5414035 170.211934,22.306396 C169.931123,19.3770774 168.80127,19.324118 167.664809,18.304649 C166.670406,17.3811689 165.946904,17.1395414 164.790621,17.4142685 C162.468146,17.9571027 160.409963,20.5521148 159.366005,23.5012932 C158.807686,25.0966961 158.51366,26.692099 158.563214,28.1551033 C157.347466,30.4786983 155.477592,32.9545518 152.828053,35.0067298 C153.838975,30.9354734 155.451163,25.8414381 156.247346,23.3755145 C156.934508,21.2074878 156.343152,19.5756753 155.679116,18.9633319 C155.272765,18.7084646 155.015079,18.8309333 154.747482,19.4002472 C153.706828,21.6212334 152.610012,25.4276925 151.407478,28.6052584 C149.973688,32.3422084 148.437484,35.172228 146.891369,35.3079365 C145.976254,35.3774458 145.67562,34.0203603 146.138133,31.9714923 C146.577521,30.0086834 147.175484,28.2577122 148.206227,25.755379 C149.273311,23.2033964 149.23697,21.5186245 148.087295,20.4230262 C147.750322,20.07548 147.353882,20.1019597 147.109411,20.5852145 C145.150338,24.5306922 143.878427,28.7244172 143.432432,31.3723888 C142.956705,34.1097294 143.508417,36.9529889 146.362783,36.7212914 C147.945238,36.5822729 149.2634,35.3145565 150.267714,33.8614821 C149.99351,34.8743312 149.765557,35.91697 149.521086,36.8834796 C145.903573,39.0515064 142.966616,41.9543452 142.381867,45.6714354 C141.97882,48.1108792 142.986438,49.3521159 143.961019,50.3980646 C144.886045,51.3745042 145.629369,51.2520355 146.326442,50.8515298 M116.421674,24.7855594 C115.622187,23.8322896 115.618883,22.6241526 116.137559,21.8529309 C116.65293,21.0850191 117.865375,21.3663661 118.549234,22.3394957 C119.223181,23.2762156 119.127375,24.3784338 118.707809,25.010637 C118.291548,25.6395303 117.174909,25.7057295 116.421674,24.7855594 M123.323028,32.2528393 C124.90218,28.4496901 127.350195,25.5071317 128.565943,25.3482534 C129.709011,25.2026149 129.52731,27.7645275 127.977891,32.4878468 C126.729106,36.3571953 125.00129,39.0150968 123.425442,39.2368644 C121.895845,39.4520121 121.763699,35.9699294 123.323028,32.2528393 M115.238962,41.9609652 C116.989904,41.6729982 118.707809,40.2761932 119.731945,38.3961334 C120.326605,39.9551267 121.529139,40.8786068 123.214007,40.6005698 C125.050845,40.296053 126.57053,38.5550117 127.56163,36.7841807 C127.865567,38.621211 129.117655,39.6208203 131.248519,39.3891227 C133.415722,39.1474953 135.497031,36.6716419 136.197408,34.3447369 C136.531078,33.2027991 136.326251,32.18995 136.108209,31.8622635 C135.903382,31.5742966 135.629178,31.6206361 135.490424,32.0079019 C134.565398,34.9339105 132.89044,37.9095686 131.301377,38.2538049 C129.986519,38.5517017 129.755263,36.939749 130.435817,34.4936853 C131.707728,30.0186133 134.393607,22.9352893 135.711769,19.2546088 C136.871355,16.0439432 136.709476,14.3426215 135.946329,13.1411043 C135.668821,12.6611595 135.308722,12.6810193 135.008089,13.2966727 C133.931094,15.5275887 131.839875,21.3431964 130.399477,25.7288993 C130.19465,24.2725149 129.210158,23.1901565 127.611184,23.4549537 C125.655415,23.7793302 122.820871,26.0598957 120.485181,31.1142115 C119.761678,32.6698948 119.424705,34.1693087 119.355328,35.5263942 C118.522804,38.0783768 116.993208,40.4317616 115.443789,40.762758 C114.204915,41.047415 113.877852,39.5314512 114.439475,37.1052473 C114.935025,35.0100397 116.137559,32.0774112 116.672752,30.2172111 C117.290537,28.1021438 116.699182,26.4703313 116.005412,25.940737 C115.638705,25.6395303 115.384323,25.8017185 115.110119,26.3313128 C114.000088,28.6085684 112.183073,33.6562643 111.677612,36.6749519 C111.112685,40.0709754 112.268968,42.4541499 115.238962,41.9609652 M96.7549608,40.7197285 C97.293458,36.9298191 99.5994156,31.1969606 100.977044,27.3871915 C101.670813,25.5005118 101.667509,24.0507473 101.314017,23.1040975 C103.90409,21.7536319 106.411571,19.2016493 108.142691,21.1677682 C111.059827,24.4678028 107.980812,36.4862839 97.9806202,42.3283712 C96.8805,42.9539545 96.5170969,42.4475299 96.7549608,40.7197285 M97.1580078,44.397099 C97.9145469,44.8340143 98.6347457,44.8340143 99.7084366,44.2514606 C109.609518,39.0316466 114.677339,26.4438516 110.048906,20.7738825 C108.179032,18.4668372 106.011828,17.4970176 103.573724,18.304649 C101.099279,19.1155903 99.4044995,21.0088899 96.7648717,21.8065914 C96.2693221,21.9687796 96.2693221,22.210407 96.4972749,22.6175327 C96.8276414,23.1636768 97.7691857,24.0143377 99.3086932,23.8389096 C97.2769397,28.3206015 95.040359,34.9703202 94.4390921,38.8529085 C94.0393488,41.5306698 94.3300712,42.0867438 95.2385789,42.9837442 C95.9125264,43.6755268 96.6261179,44.0826524 97.1580078,44.397099" mask="url(#illustration_message_reminder-b)"/>
  </g>
</svg>
